RobotoCondensed-Medium.ufo
<glyph name="exclam" format="1">
  <advance width="527"/>
  <unicode hex="0021"/>
  <outline>
    <contour>
      <point x="396" y="1456" type="line"/>
      <point x="141" y="1456" type="line"/>
      <point x="166" y="432" type="line"/>
      <point x="371" y="432" type="line"/>
    </contour>
    <contour>
      <point x="138" y="119" type="curve" smooth="yes"/>
      <point x="138" y="44"/>
      <point x="186" y="-14"/>
      <point x="269" y="-14" type="curve" smooth="yes"/>
      <point x="353" y="-14"/>
      <point x="402" y="44"/>
      <point x="402" y="119" type="curve" smooth="yes"/>
      <point x="402" y="194"/>
      <point x="353" y="253"/>
      <point x="269" y="253" type="curve" smooth="yes"/>
      <point x="186" y="253"/>
      <point x="138" y="194"/>
    </contour>
  </outline>
</glyph>
<glyph name="quotedbl" format="1">
  <advance width="663"/>
  <unicode hex="0022"/>
  <outline>
    <contour>
      <point x="275" y="1400" type="line"/>
      <point x="275" y="1536" type="line"/>
      <point x="96" y="1536" type="line"/>
      <point x="96" y="1009" type="line"/>
      <point x="239" y="1009" type="line"/>
    </contour>
    <contour>
      <point x="579" y="1400" type="line"/>
      <point x="579" y="1536" type="line"/>
      <point x="401" y="1536" type="line"/>
      <point x="401" y="1009" type="line"/>
      <point x="543" y="1009" type="line"/>
    </contour>
  </outline>
</glyph>
<glyph name="numbersign" format="1">
  <advance width="1107"/>
  <unicode hex="0023"/>
  <outline>
    <contour>
      <point x="550" y="0" type="line"/>
      <point x="711" y="0" type="line"/>
      <point x="774.9216995239258" y="410" type="line"/>
      <point x="978" y="410" type="line"/>
      <point x="978" y="570" type="line"/>
      <point x="799.8667602539062" y="570" type="line"/>
      <point x="848.0418930053711" y="879" type="line"/>
      <point x="1042" y="879" type="line"/>
      <point x="1042" y="1040" type="line"/>
      <point x="873.1428604125977" y="1040" type="line"/>
      <point x="938" y="1456" type="line"/>
      <point x="778" y="1456" type="line"/>
      <point x="712.8571395874023" y="1040" type="line"/>
      <point x="550.1428604125977" y="1040" type="line"/>
      <point x="615" y="1456" type="line"/>
      <point x="455" y="1456" type="line"/>
      <point x="390.14286041259766" y="1040" type="line"/>
      <point x="168" y="1040" type="line"/>
      <point x="168" y="879" type="line"/>
      <point x="365.0418930053711" y="879" type="line"/>
      <point x="316.86676025390625" y="570" type="line"/>
      <point x="104" y="570" type="line"/>
      <point x="104" y="410" type="line"/>
      <point x="291.9216995239258" y="410" type="line"/>
      <point x="228" y="0" type="line"/>
      <point x="388" y="0" type="line"/>
      <point x="451.9216995239258" y="410" type="line"/>
      <point x="614.2033004760742" y="410" type="line"/>
    </contour>
    <contour>
      <point x="476.86676025390625" y="570" type="line"/>
      <point x="525.0418930053711" y="879" type="line"/>
      <point x="687.6456069946289" y="879" type="line"/>
      <point x="639.2582397460938" y="570" type="line"/>
    </contour>
  </outline>
</glyph>
<glyph name="dollar" format="1">
  <advance width="1026"/>
  <unicode hex="0024"/>
  <outline>
    <contour>
      <point x="923.9999999999998" y="383.0" type="curve"/>
      <point x="924" y="632"/>
      <point x="790" y="741"/>
      <point x="570" y="835" type="curve" smooth="yes"/>
      <point x="437" y="902"/>
      <point x="389" y="963"/>
      <point x="389" y="1074" type="curve"/>
      <point x="389" y="1191"/>
      <point x="433" y="1272"/>
      <point x="532" y="1272" type="curve" smooth="yes"/>
      <point x="623" y="1272"/>
      <point x="680" y="1172"/>
      <point x="680" y="1005" type="curve"/>
      <point x="920" y="1005" type="line"/>
      <point x="920.0" y="1270.823118"/>
      <point x="803.78481744785" y="1434.376875354108"/>
      <point x="615" y="1469.7390060424805" type="curve"/>
      <point x="615" y="1691" type="line"/>
      <point x="464" y="1691" type="line"/>
      <point x="464" y="1471.9252243041992" type="line"/>
      <point x="272.413263881754" y="1443.292291603108"/>
      <point x="149.0" y="1295.009848"/>
      <point x="149.00000000000006" y="1073.0" type="curve"/>
      <point x="149" y="823"/>
      <point x="290" y="711"/>
      <point x="507" y="622" type="curve" smooth="yes"/>
      <point x="634" y="561"/>
      <point x="684" y="493"/>
      <point x="684" y="381" type="curve"/>
      <point x="684" y="262"/>
      <point x="626" y="184"/>
      <point x="515" y="184" type="curve" smooth="yes"/>
      <point x="428" y="184"/>
      <point x="341" y="242"/>
      <point x="341" y="445" type="curve"/>
      <point x="100" y="445" type="line"/>
      <point x="100.0" y="137.413387"/>
      <point x="265.44879531219703" y="10.03391255600799"/>
      <point x="443" y="-15.860130310058594" type="curve"/>
      <point x="443" y="-212" type="line"/>
      <point x="593" y="-212" type="line"/>
      <point x="593" y="-15.810798645019531" type="line"/>
      <point x="794.861876248877" y="12.055697638836"/>
      <point x="924.0" y="151.57685999999998"/>
    </contour>
  </outline>
</glyph>
<glyph name="percent" format="1">
  <advance width="1301"/>
  <unicode hex="0025"/>
  <outline>
    <contour>
      <point x="101" y="1099" type="line"/>
      <point x="101" y="936"/>
      <point x="196" y="800"/>
      <point x="368" y="800" type="curve" smooth="yes"/>
      <point x="541" y="800"/>
      <point x="633" y="936"/>
      <point x="633" y="1099" type="curve" smooth="yes"/>
      <point x="633" y="1176" type="line" smooth="yes"/>
      <point x="633" y="1341"/>
      <point x="541" y="1477"/>
      <point x="366" y="1477" type="curve" smooth="yes"/>
      <point x="196" y="1477"/>
      <point x="101" y="1341"/>
      <point x="101" y="1176" type="curve" smooth="yes"/>
    </contour>
    <contour>
      <point x="265" y="1176" type="line"/>
      <point x="265" y="1256"/>
      <point x="298" y="1329"/>
      <point x="366" y="1329" type="curve" smooth="yes"/>
      <point x="436" y="1329"/>
      <point x="469" y="1256"/>
      <point x="469" y="1176" type="curve" smooth="yes"/>
      <point x="469" y="1099" type="line" smooth="yes"/>
      <point x="469" y="1021"/>
      <point x="437" y="948"/>
      <point x="368" y="948" type="curve" smooth="yes"/>
      <point x="298" y="948"/>
      <point x="265" y="1021"/>
      <point x="265" y="1099" type="curve" smooth="yes"/>
    </contour>
    <contour>
      <point x="1011" y="1247" type="line"/>
      <point x="890" y="1320" type="line"/>
      <point x="293" y="182" type="line"/>
      <point x="413" y="109" type="line"/>
    </contour>
    <contour>
      <point x="680" y="279" type="line"/>
      <point x="680" y="115"/>
      <point x="775" y="-21"/>
      <point x="947" y="-21" type="curve" smooth="yes"/>
      <point x="1119" y="-21"/>
      <point x="1212" y="115"/>
      <point x="1212" y="279" type="curve" smooth="yes"/>
      <point x="1212" y="357" type="line" smooth="yes"/>
      <point x="1212" y="521"/>
      <point x="1119" y="657"/>
      <point x="946" y="657" type="curve" smooth="yes"/>
      <point x="775" y="657"/>
      <point x="680" y="521"/>
      <point x="680" y="357" type="curve" smooth="yes"/>
    </contour>
    <contour>
      <point x="843" y="357" type="line"/>
      <point x="843" y="436"/>
      <point x="876" y="509"/>
      <point x="946" y="509" type="curve" smooth="yes"/>
      <point x="1015" y="509"/>
      <point x="1049" y="436"/>
      <point x="1049" y="357" type="curve" smooth="yes"/>
      <point x="1049" y="279" type="line" smooth="yes"/>
      <point x="1049" y="200"/>
      <point x="1023" y="128"/>
      <point x="947" y="128" type="curve" smooth="yes"/>
      <point x="882" y="128"/>
      <point x="843" y="201"/>
      <point x="843" y="279" type="curve" smooth="yes"/>
    </contour>
  </outline>
</glyph>
<glyph name="ampersand" format="1">
  <advance width="1154"/>
  <unicode hex="0026"/>
  <outline>
    <contour>
      <point x="852" y="0" type="line"/>
      <point x="1129" y="0" type="line"/>
      <point x="945.0769653320312" y="262.1468963623047" type="line"/>
      <point x="1020.233788071036" y="380.68710509791606"/>
      <point x="1050.0" y="529.42771"/>
      <point x="1050.0" y="697.0" type="curve"/>
      <point x="843" y="697" type="line"/>
      <point x="843.0" y="609.522764"/>
      <point x="829.206172774581" y="530.031427972611"/>
      <point x="805.5132369995117" y="461.06813049316406" type="curve"/>
      <point x="593.4939651489258" y="763.2607955932617" type="line"/>
      <point x="674" y="830" type="line" smooth="yes"/>
      <point x="780" y="915"/>
      <point x="840" y="1011"/>
      <point x="840" y="1150" type="curve"/>
      <point x="840" y="1326"/>
      <point x="715" y="1476"/>
      <point x="521" y="1476" type="curve" smooth="yes"/>
      <point x="318" y="1476"/>
      <point x="184" y="1336"/>
      <point x="184" y="1105" type="curve" smooth="yes"/>
      <point x="184.0" y="991.751507"/>
      <point x="235.99179789241" y="892.945180081225"/>
      <point x="314.94825744628906" y="775.2136917114258" type="curve"/>
      <point x="178.027676227862" y="663.577648769163"/>
      <point x="86.0" y="563.024761"/>
      <point x="86.00000000000003" y="393.00000000000006" type="curve"/>
      <point x="86" y="152"/>
      <point x="242" y="-20"/>
      <point x="492" y="-20" type="curve"/>
      <point x="598.510963" y="-20.0"/>
      <point x="703.615194616878" y="14.464918886489002"/>
      <point x="791.385627746582" y="87.52448272705078" type="curve"/>
    </contour>
    <contour>
      <point x="408.00000000000006" y="1110.0" type="curve" smooth="yes"/>
      <point x="408" y="1200"/>
      <point x="445" y="1276"/>
      <point x="520" y="1276" type="curve" smooth="yes"/>
      <point x="592" y="1276"/>
      <point x="634" y="1208"/>
      <point x="634" y="1140" type="curve"/>
      <point x="634" y="1062"/>
      <point x="615" y="1016"/>
      <point x="545" y="961" type="curve"/>
      <point x="487.68019104003906" y="914.7032318115234" type="line"/>
      <point x="440.48144363178903" y="985.989615760476"/>
      <point x="408.00000000000006" y="1048.936299"/>
    </contour>
    <contour>
      <point x="327" y="403" type="curve"/>
      <point x="327" y="450"/>
      <point x="334" y="526"/>
      <point x="405" y="607" type="curve" smooth="yes"/>
      <point x="421.9155960083008" y="621.0229721069336" type="line"/>
      <point x="675.7051620483398" y="254.56199645996094" type="line"/>
      <point x="622.382577998576" y="206.50747029761598"/>
      <point x="561.2547040000001" y="179.99999999999997"/>
      <point x="500.00000000000006" y="179.99999999999997" type="curve" smooth="yes"/>
      <point x="391" y="180"/>
      <point x="327" y="277"/>
    </contour>
  </outline>
</glyph>
<glyph name="parenleft" format="1">
  <advance width="658"/>
  <unicode hex="0028"/>
  <outline>
    <contour>
      <point x="124" y="575" type="line"/>
      <point x="124" y="-1"/>
      <point x="385" y="-361"/>
      <point x="556" y="-462" type="curve"/>
      <point x="602" y="-325" type="line"/>
      <point x="483" y="-204"/>
      <point x="340" y="74"/>
      <point x="340" y="573" type="curve"/>
      <point x="340" y="594" type="line" smooth="yes"/>
      <point x="340" y="1093"/>
      <point x="483" y="1371"/>
      <point x="602" y="1486" type="curve"/>
      <point x="556" y="1629" type="line"/>
      <point x="385" y="1528"/>
      <point x="124" y="1168"/>
      <point x="124" y="592" type="curve"/>
    </contour>
  </outline>
</glyph>
<glyph name="parenright" format="1">
  <advance width="663"/>
  <unicode hex="0029"/>
  <outline>
    <contour>
      <point x="542" y="592" type="line"/>
      <point x="542" y="1158"/>
      <point x="278" y="1528"/>
      <point x="102" y="1629" type="curve"/>
      <point x="56" y="1492" type="line"/>
      <point x="165" y="1378"/>
      <point x="318" y="1093"/>
      <point x="318" y="594" type="curve" smooth="yes"/>
      <point x="318" y="573" type="line"/>
      <point x="318" y="74"/>
      <point x="174" y="-210"/>
      <point x="56" y="-325" type="curve"/>
      <point x="102" y="-462" type="line"/>
      <point x="278" y="-361"/>
      <point x="542" y="10"/>
      <point x="542" y="575" type="curve"/>
    </contour>
  </outline>
</glyph>
<glyph name="asterisk" format="1">
  <advance width="909"/>
  <unicode hex="002A"/>
  <outline>
    <contour>
      <point x="126" y="699" type="line"/>
      <point x="273" y="596" type="line"/>
      <point x="451" y="876" type="line"/>
      <point x="632" y="587" type="line"/>
      <point x="779" y="694" type="line"/>
      <point x="577" y="960" type="line"/>
      <point x="889" y="1048" type="line"/>
      <point x="834" y="1221" type="line"/>
      <point x="536" y="1105" type="line"/>
      <point x="552" y="1457" type="line"/>
      <point x="371" y="1457" type="line"/>
      <point x="386" y="1112" type="line"/>
      <point x="83" y="1230" type="line"/>
      <point x="28" y="1059" type="line"/>
      <point x="333" y="971" type="line"/>
    </contour>
  </outline>
</glyph>
<glyph name="plus" format="1">
  <advance width="994"/>
  <unicode hex="002B"/>
  <outline>
    <contour>
      <point x="914" y="577" type="line"/>
      <point x="914" y="803" type="line"/>
      <point x="613" y="803" type="line"/>
      <point x="613" y="1206" type="line"/>
      <point x="381" y="1206" type="line"/>
      <point x="381" y="803" type="line"/>
      <point x="75" y="803" type="line"/>
      <point x="75" y="577" type="line"/>
      <point x="381" y="577" type="line"/>
      <point x="381" y="146" type="line"/>
      <point x="613" y="146" type="line"/>
      <point x="613" y="577" type="line"/>
    </contour>
  </outline>
</glyph>
<glyph name="comma" format="1">
  <advance width="457"/>
  <unicode hex="002C"/>
  <outline>
    <contour>
      <point x="349" y="241" type="move" name="_bottom"/>
    </contour>
    <contour>
      <point x="142" y="57" type="move" name="_right"/>
    </contour>
    <contour>
      <point x="354" y="237" type="line"/>
      <point x="132" y="237" type="line"/>
      <point x="132" y="52" type="line"/>
      <point x="132" y="-77"/>
      <point x="85" y="-166"/>
      <point x="30" y="-256" type="curve"/>
      <point x="163" y="-333" type="line"/>
      <point x="279" y="-237"/>
      <point x="353" y="-76"/>
      <point x="353" y="61" type="curve"/>
    </contour>
  </outline>
</glyph>
<glyph name="hyphen" format="1">
  <advance width="632"/>
  <unicode hex="002D"/>
  <outline>
    <contour>
      <point x="541" y="720" type="line"/>
      <point x="87" y="720" type="line"/>
      <point x="87" y="520" type="line"/>
      <point x="541" y="520" type="line"/>
    </contour>
  </outline>
</glyph>
<glyph name="period" format="1">
  <advance width="575"/>
  <unicode hex="002E"/>
  <outline>
    <contour>
      <point x="134" y="124" type="curve" smooth="yes"/>
      <point x="134" y="48"/>
      <point x="188" y="-12"/>
      <point x="279" y="-12" type="curve" smooth="yes"/>
      <point x="369" y="-12"/>
      <point x="423" y="48"/>
      <point x="423" y="124" type="curve" smooth="yes"/>
      <point x="423" y="202"/>
      <point x="369" y="262"/>
      <point x="279" y="262" type="curve" smooth="yes"/>
      <point x="188" y="262"/>
      <point x="134" y="202"/>
    </contour>
  </outline>
</glyph>
<glyph name="zero" format="1">
  <advance width="1026"/>
  <unicode hex="0030"/>
  <outline>
    <contour>
      <point x="922" y="850" type="line"/>
      <point x="922" y="1309"/>
      <point x="755" y="1476"/>
      <point x="512" y="1476" type="curve" smooth="yes"/>
      <point x="271" y="1476"/>
      <point x="104" y="1309"/>
      <point x="104" y="850" type="curve"/>
      <point x="104" y="612" type="line"/>
      <point x="104" y="153"/>
      <point x="272" y="-20"/>
      <point x="514" y="-20" type="curve" smooth="yes"/>
      <point x="757" y="-20"/>
      <point x="922" y="153"/>
      <point x="922" y="612" type="curve"/>
    </contour>
    <contour>
      <point x="681" y="577" type="line"/>
      <point x="681" y="287"/>
      <point x="621" y="180"/>
      <point x="514" y="180" type="curve" smooth="yes"/>
      <point x="409" y="180"/>
      <point x="344" y="287"/>
      <point x="344" y="577" type="curve" smooth="yes"/>
      <point x="344" y="887" type="line" smooth="yes"/>
      <point x="344" y="1177"/>
      <point x="408" y="1276"/>
      <point x="512" y="1276" type="curve" smooth="yes"/>
      <point x="619" y="1276"/>
      <point x="681" y="1177"/>
      <point x="681" y="887" type="curve"/>
    </contour>
  </outline>
</glyph>
<glyph name="one" format="1">
  <advance width="1026"/>
  <unicode hex="0031"/>
  <outline>
    <contour>
      <point x="687" y="1461" type="line"/>
      <point x="658" y="1461" type="line"/>
      <point x="158" y="1251" type="line"/>
      <point x="158" y="1043" type="line"/>
      <point x="447" y="1162" type="line"/>
      <point x="447" y="0" type="line"/>
      <point x="687" y="0" type="line"/>
    </contour>
  </outline>
</glyph>
<glyph name="two" format="1">
  <advance width="1026"/>
  <unicode hex="0032"/>
  <outline>
    <contour>
      <point x="946" y="200" type="line"/>
      <point x="404" y="200" type="line"/>
      <point x="653" y="538" type="line" smooth="yes"/>
      <point x="803" y="721"/>
      <point x="903" y="890"/>
      <point x="903" y="1074" type="curve" smooth="yes"/>
      <point x="903" y="1319"/>
      <point x="762" y="1476"/>
      <point x="509" y="1476" type="curve" smooth="yes"/>
      <point x="234" y="1476"/>
      <point x="81" y="1266"/>
      <point x="81" y="1011" type="curve"/>
      <point x="322" y="1011" type="line"/>
      <point x="322" y="1165"/>
      <point x="377" y="1276"/>
      <point x="506" y="1276" type="curve" smooth="yes"/>
      <point x="605" y="1276"/>
      <point x="662" y="1181"/>
      <point x="662" y="1048" type="curve" smooth="yes"/>
      <point x="662" y="951"/>
      <point x="629" y="860"/>
      <point x="501" y="686" type="curve" smooth="yes"/>
      <point x="104" y="172" type="line"/>
      <point x="104" y="0" type="line"/>
      <point x="946" y="0" type="line"/>
    </contour>
  </outline>
</glyph>
<glyph name="three" format="1">
  <advance width="1026"/>
  <unicode hex="0033"/>
  <outline>
    <contour>
      <point x="472" y="645" type="line" smooth="yes"/>
      <point x="595" y="645"/>
      <point x="669" y="573"/>
      <point x="669" y="409" type="curve" smooth="yes"/>
      <point x="669" y="262"/>
      <point x="599" y="180"/>
      <point x="490" y="180" type="curve" smooth="yes"/>
      <point x="387" y="180"/>
      <point x="322" y="266"/>
      <point x="322" y="392" type="curve"/>
      <point x="81" y="392" type="line"/>
      <point x="81" y="119"/>
      <point x="269" y="-20"/>
      <point x="486" y="-20" type="curve" smooth="yes"/>
      <point x="726" y="-20"/>
      <point x="909" y="135"/>
      <point x="909" y="408" type="curve" smooth="yes"/>
      <point x="909.0" y="553.978866"/>
      <point x="855.187299700389" y="687.9993541556421"/>
      <point x="706.2848434448242" y="748.337890625" type="curve"/>
      <point x="831.696933065728" y="815.8087285678081"/>
      <point x="892.0" y="945.768128"/>
      <point x="892.0" y="1062.0" type="curve" smooth="yes"/>
      <point x="892" y="1335"/>
      <point x="727" y="1476"/>
      <point x="487" y="1476" type="curve" smooth="yes"/>
      <point x="256" y="1476"/>
      <point x="91" y="1308"/>
      <point x="91" y="1077" type="curve"/>
      <point x="331" y="1077" type="line"/>
      <point x="331" y="1200"/>
      <point x="399" y="1276"/>
      <point x="491" y="1276" type="curve" smooth="yes"/>
      <point x="598" y="1276"/>
      <point x="652" y="1196"/>
      <point x="652" y="1062" type="curve" smooth="yes"/>
      <point x="652" y="932"/>
      <point x="595" y="841"/>
      <point x="472" y="841" type="curve" smooth="yes"/>
      <point x="344" y="841" type="line"/>
      <point x="344" y="645" type="line"/>
    </contour>
  </outline>
</glyph>
<glyph name="four" format="1">
  <advance width="1026"/>
  <unicode hex="0034"/>
  <outline>
    <contour>
      <point x="60" y="475" type="line"/>
      <point x="67" y="323" type="line"/>
      <point x="579" y="323" type="line"/>
      <point x="579" y="0" type="line"/>
      <point x="819" y="0" type="line"/>
      <point x="819" y="323" type="line"/>
      <point x="959" y="323" type="line"/>
      <point x="959" y="523" type="line"/>
      <point x="819" y="523" type="line"/>
      <point x="819" y="1456" type="line"/>
      <point x="574" y="1456" type="line"/>
    </contour>
    <contour>
      <point x="305" y="523" type="line"/>
      <point x="575" y="1087" type="line"/>
      <point x="579" y="1094.7684173583984" type="line"/>
      <point x="579" y="523" type="line"/>
    </contour>
  </outline>
</glyph>
<glyph name="five" format="1">
  <advance width="1026"/>
  <unicode hex="0035"/>
  <outline>
    <contour>
      <point x="345" y="672" type="line"/>
      <point x="384" y="720"/>
      <point x="416" y="757"/>
      <point x="504" y="757" type="curve"/>
      <point x="634" y="757"/>
      <point x="700" y="639"/>
      <point x="700" y="474" type="curve" smooth="yes"/>
      <point x="700" y="302"/>
      <point x="642" y="180"/>
      <point x="524" y="180" type="curve" smooth="yes"/>
      <point x="428" y="180"/>
      <point x="364" y="257"/>
      <point x="350" y="395" type="curve"/>
      <point x="117" y="395" type="line"/>
      <point x="129" y="125"/>
      <point x="317" y="-20"/>
      <point x="525" y="-20" type="curve" smooth="yes"/>
      <point x="802" y="-20"/>
      <point x="940" y="198"/>
      <point x="940" y="466" type="curve" smooth="yes"/>
      <point x="940" y="770"/>
      <point x="805" y="956"/>
      <point x="569" y="956" type="curve"/>
      <point x="491" y="956"/>
      <point x="429" y="925"/>
      <point x="391" y="899" type="curve"/>
      <point x="421" y="1243" type="line"/>
      <point x="895" y="1243" type="line"/>
      <point x="895" y="1456" type="line"/>
      <point x="222" y="1456" type="line"/>
      <point x="153" y="722" type="line"/>
    </contour>
  </outline>
</glyph>
<glyph name="six" format="1">
  <advance width="1026"/>
  <unicode hex="0036"/>
  <outline>
    <contour>
      <point x="941" y="478" type="curve" smooth="yes"/>
      <point x="941" y="732"/>
      <point x="833" y="966"/>
      <point x="592" y="966" type="curve" smooth="yes"/>
      <point x="499.490872" y="966.0"/>
      <point x="419.87325147073904" y="927.578252244072"/>
      <point x="360.39110565185547" y="857.9773330688477" type="curve"/>
      <point x="381.60665213337603" y="1083.181013917696"/>
      <point x="483.14259200000004" y="1259.0"/>
      <point x="739.0" y="1259.0" type="curve" smooth="yes"/>
      <point x="753" y="1259" type="line"/>
      <point x="753" y="1464" type="line"/>
      <point x="727" y="1464" type="line" name="hr00"/>
      <point x="267" y="1464"/>
      <point x="115" y="1086"/>
      <point x="115" y="649" type="curve" smooth="yes"/>
      <point x="115" y="552" type="line" smooth="yes"/>
      <point x="115" y="244"/>
      <point x="259" y="-20"/>
      <point x="531" y="-20" type="curve" smooth="yes"/>
      <point x="793" y="-20"/>
      <point x="941" y="198"/>
    </contour>
    <contour>
      <point x="356" y="529" type="curve"/>
      <point x="356" y="613.5921630859375" type="line"/>
      <point x="384.632236560393" y="698.408714565927"/>
      <point x="448.092612" y="765.0"/>
      <point x="531.0" y="765.0000000000001" type="curve" smooth="yes"/>
      <point x="641" y="765"/>
      <point x="702" y="633"/>
      <point x="702" y="472" type="curve" smooth="yes"/>
      <point x="702" y="302"/>
      <point x="638" y="181"/>
      <point x="528" y="181" type="curve" smooth="yes"/>
      <point x="436" y="181"/>
      <point x="356" y="299"/>
    </contour>
  </outline>
</glyph>
<glyph name="seven" format="1">
  <advance width="1026"/>
  <unicode hex="0037"/>
  <outline>
    <contour>
      <point x="939" y="1456" type="line"/>
      <point x="76" y="1456" type="line"/>
      <point x="76" y="1256" type="line"/>
      <point x="687" y="1256" type="line"/>
      <point x="209" y="0" type="line"/>
      <point x="462" y="0" type="line"/>
      <point x="939" y="1318" type="line"/>
    </contour>
  </outline>
</glyph>
<glyph name="eight" format="1">
  <advance width="1026"/>
  <unicode hex="0038"/>
  <outline>
    <contour>
      <point x="917" y="397" type="curve" smooth="yes"/>
      <point x="917.0" y="557.50576"/>
      <point x="840.96602727708" y="684.019861606224"/>
      <point x="720.006233215332" y="750.2200393676758" type="curve"/>
      <point x="826.1481492124481" y="814.6562718103839"/>
      <point x="892.0" y="930.616228"/>
      <point x="892.0" y="1072.0" type="curve" smooth="yes"/>
      <point x="892" y="1332"/>
      <point x="736" y="1476"/>
      <point x="513" y="1476" type="curve" smooth="yes"/>
      <point x="291" y="1476"/>
      <point x="133" y="1332"/>
      <point x="133" y="1072" type="curve" smooth="yes"/>
      <point x="133.0" y="931.043497"/>
      <point x="198.040168279733" y="815.357377853909"/>
      <point x="303.8563232421875" y="750.8130950927734" type="curve"/>
      <point x="183.14565492736693" y="684.7864573983239"/>
      <point x="107.99999999999993" y="557.9922399999999"/>
      <point x="107.99999999999994" y="397.0" type="curve" smooth="yes"/>
      <point x="108" y="126"/>
      <point x="283" y="-20"/>
      <point x="513" y="-20" type="curve" smooth="yes"/>
      <point x="745" y="-20"/>
      <point x="917" y="126"/>
    </contour>
    <contour>
      <point x="652" y="1063" type="curve" smooth="yes"/>
      <point x="652" y="934"/>
      <point x="603" y="848"/>
      <point x="513" y="848" type="curve" smooth="yes"/>
      <point x="424" y="848"/>
      <point x="374" y="934"/>
      <point x="374" y="1063" type="curve" smooth="yes"/>
      <point x="374" y="1194"/>
      <point x="425" y="1276"/>
      <point x="513" y="1276" type="curve" smooth="yes"/>
      <point x="602" y="1276"/>
      <point x="652" y="1189"/>
    </contour>
    <contour>
      <point x="677" y="411" type="curve" smooth="yes"/>
      <point x="677" y="267"/>
      <point x="619" y="180"/>
      <point x="513" y="180" type="curve" smooth="yes"/>
      <point x="408" y="180"/>
      <point x="348" y="267"/>
      <point x="348" y="411" type="curve" smooth="yes"/>
      <point x="348" y="554"/>
      <point x="408" y="648"/>
      <point x="511" y="648" type="curve" smooth="yes"/>
      <point x="614" y="648"/>
      <point x="677" y="554"/>
    </contour>
  </outline>
</glyph>
<glyph name="nine" format="1">
  <advance width="1026"/>
  <unicode hex="0039"/>
  <outline>
    <contour>
      <point x="907" y="802" type="curve" smooth="yes"/>
      <point x="907" y="884" type="line" smooth="yes"/>
      <point x="907" y="1209"/>
      <point x="771" y="1476"/>
      <point x="501" y="1476" type="curve" smooth="yes"/>
      <point x="242" y="1476"/>
      <point x="96" y="1247"/>
      <point x="96" y="967" type="curve" smooth="yes"/>
      <point x="96" y="708"/>
      <point x="208" y="479"/>
      <point x="449" y="479" type="curve" smooth="yes"/>
      <point x="532.561137" y="479.0"/>
      <point x="607.735889719558" y="521.730624667014"/>
      <point x="665.3341064453125" y="586.6710739135742" type="curve"/>
      <point x="649.705425171392" y="362.55139422020795"/>
      <point x="561.137732" y="199.99999999999997"/>
      <point x="290.0" y="200.00000000000003" type="curve" smooth="yes"/>
      <point x="277" y="200" type="line"/>
      <point x="277" y="-8" type="line"/>
      <point x="292" y="-8" type="line" smooth="yes"/>
      <point x="774" y="-8"/>
      <point x="907" y="374"/>
    </contour>
    <contour>
      <point x="334" y="974" type="curve" smooth="yes"/>
      <point x="334" y="1138"/>
      <point x="392" y="1275"/>
      <point x="499" y="1275" type="curve" smooth="yes"/>
      <point x="584" y="1275"/>
      <point x="668" y="1155"/>
      <point x="668" y="925" type="curve"/>
      <point x="668" y="822.3776931762695" type="line"/>
      <point x="635.20061993585" y="738.1007596270249"/>
      <point x="570.689585" y="673.9999999999999"/>
      <point x="502.99999999999994" y="673.9999999999999" type="curve" smooth="yes"/>
      <point x="386" y="674"/>
      <point x="334" y="817"/>
    </contour>
  </outline>
</glyph>
<glyph name="less" format="1">
  <advance width="913"/>
  <unicode hex="003C"/>
  <outline>
    <contour>
      <point x="776" y="161" type="line"/>
      <point x="776" y="409" type="line"/>
      <point x="303.5321044921875" y="629.5447845458984" type="line"/>
      <point x="776" y="855" type="line"/>
      <point x="776" y="1102" type="line"/>
      <point x="69" y="731" type="line"/>
      <point x="69" y="533" type="line"/>
    </contour>
  </outline>
</glyph>
<glyph name="equal" format="1">
  <advance width="1007"/>
  <unicode hex="003D"/>
  <outline>
    <contour>
      <point x="874" y="982" type="line"/>
      <point x="141" y="982" type="line"/>
      <point x="141" y="776" type="line"/>
      <point x="874" y="776" type="line"/>
    </contour>
    <contour>
      <point x="874" y="557" type="line"/>
      <point x="141" y="557" type="line"/>
      <point x="141" y="351" type="line"/>
      <point x="874" y="351" type="line"/>
    </contour>
  </outline>
</glyph>
<glyph name="greater" format="1">
  <advance width="937"/>
  <unicode hex="003E"/>
  <outline>
    <contour>
      <point x="130" y="1102" type="line"/>
      <point x="130" y="859" type="line"/>
      <point x="624.1818161010742" y="634.7878799438477" type="line"/>
      <point x="130" y="406" type="line"/>
      <point x="130" y="161" type="line"/>
      <point x="860" y="533" type="line"/>
      <point x="860" y="732" type="line"/>
    </contour>
  </outline>
</glyph>
<glyph name="question" format="1">
  <advance width="897"/>
  <unicode hex="003F"/>
  <outline>
    <contour>
      <point x="529" y="431" type="line"/>
      <point x="530" y="531"/>
      <point x="544" y="607"/>
      <point x="601" y="674" type="curve" smooth="yes"/>
      <point x="706" y="794"/>
      <point x="815" y="912"/>
      <point x="815" y="1089" type="curve" smooth="yes"/>
      <point x="815" y="1334"/>
      <point x="677" y="1476"/>
      <point x="442" y="1476" type="curve" smooth="yes"/>
      <point x="228" y="1476"/>
      <point x="66" y="1345"/>
      <point x="63" y="1090" type="curve"/>
      <point x="304" y="1090" type="line"/>
      <point x="304" y="1217"/>
      <point x="379" y="1269"/>
      <point x="442" y="1269" type="curve" smooth="yes"/>
      <point x="528" y="1269"/>
      <point x="575" y="1202"/>
      <point x="575" y="1079" type="curve" smooth="yes"/>
      <point x="575" y="967"/>
      <point x="514" y="902"/>
      <point x="443" y="816" type="curve" smooth="yes"/>
      <point x="341" y="700"/>
      <point x="307" y="619"/>
      <point x="307" y="431" type="curve"/>
    </contour>
    <contour>
      <point x="292" y="121" type="curve" smooth="yes"/>
      <point x="292" y="46"/>
      <point x="340" y="-12"/>
      <point x="424" y="-12" type="curve" smooth="yes"/>
      <point x="507" y="-12"/>
      <point x="556" y="46"/>
      <point x="556" y="121" type="curve" smooth="yes"/>
      <point x="556" y="197"/>
      <point x="507" y="255"/>
      <point x="424" y="255" type="curve" smooth="yes"/>
      <point x="340" y="255"/>
      <point x="292" y="197"/>
    </contour>
  </outline>
</glyph>
<glyph name="at" format="1">
  <advance width="1568"/>
  <unicode hex="0040"/>
  <outline>
    <contour>
      <point x="1082" y="-364" type="curve"/>
      <point x="1048" y="-226" type="line"/>
      <point x="977" y="-269"/>
      <point x="868" y="-298"/>
      <point x="769" y="-298" type="curve" smooth="yes"/>
      <point x="434" y="-298"/>
      <point x="247" y="-21"/>
      <point x="266" y="470" type="curve" smooth="yes"/>
      <point x="282" y="938"/>
      <point x="479" y="1272"/>
      <point x="821" y="1272" type="curve" smooth="yes"/>
      <point x="1182" y="1272"/>
      <point x="1344" y="982"/>
      <point x="1327" y="517" type="curve" smooth="yes"/>
      <point x="1320" y="297"/>
      <point x="1251" y="124"/>
      <point x="1140" y="124" type="curve" smooth="yes"/>
      <point x="1089" y="124"/>
      <point x="1045" y="157"/>
      <point x="1057" y="317" type="curve"/>
      <point x="1100" y="882" type="line"/>
      <point x="1032" y="940"/>
      <point x="970" y="990"/>
      <point x="839" y="990" type="curve" smooth="yes"/>
      <point x="656" y="990"/>
      <point x="489" y="771"/>
      <point x="459" y="424" type="curve" smooth="yes"/>
      <point x="438" y="157"/>
      <point x="531" y="-19"/>
      <point x="699" y="-19" type="curve" smooth="yes"/>
      <point x="775.513494" y="-19.0"/>
      <point x="850.225105955036" y="29.200344702786992"/>
      <point x="906.2035675048828" y="123.19974517822266" type="curve"/>
      <point x="940.606150160924" y="31.749630071564"/>
      <point x="1011.008328" y="-20.999999999999993"/>
      <point x="1110.0" y="-20.99999999999997" type="curve"/>
      <point x="1370" y="-21"/>
      <point x="1469" y="260"/>
      <point x="1477" y="521" type="curve"/>
      <point x="1496" y="1067"/>
      <point x="1252" y="1424"/>
      <point x="824" y="1424" type="curve" smooth="yes"/>
      <point x="393" y="1424"/>
      <point x="117" y="1016"/>
      <point x="97" y="470" type="curve" smooth="yes"/>
      <point x="78" y="-114"/>
      <point x="329" y="-453"/>
      <point x="766" y="-453" type="curve" smooth="yes"/>
      <point x="872" y="-453"/>
      <point x="1002" y="-424"/>
    </contour>
    <contour>
      <point x="650" y="424" type="curve" smooth="yes"/>
      <point x="669" y="691"/>
      <point x="738" y="833"/>
      <point x="858" y="833" type="curve" smooth="yes"/>
      <point x="881.51251" y="833.0"/>
      <point x="902.994186065918" y="828.48703570204"/>
      <point x="922.3692245483398" y="821.1537246704102" type="curve"/>
      <point x="884" y="317" type="line" smooth="yes"/>
      <point x="883.6000137329102" y="311.05039978027344" type="line"/>
      <point x="849.207909661464" y="189.72465784853802"/>
      <point x="795.471267" y="148.0"/>
      <point x="758.9999999999999" y="148.0" type="curve" smooth="yes"/>
      <point x="678" y="148"/>
      <point x="637" y="244"/>
    </contour>
  </outline>
</glyph>
<glyph name="A" format="1">
  <advance width="1210"/>
  <unicode hex="0041"/>
  <outline>
    <contour>
      <point x="608" y="1600" type="move" name="top"/>
    </contour>
    <contour>
      <point x="613" y="4" type="move" name="bottom"/>
    </contour>
    <contour>
      <point x="1178" y="0" type="move" name="right"/>
    </contour>
    <contour>
      <point x="327" y="1454" type="move" name="tonos"/>
    </contour>
    <contour>
      <point x="1115" y="0" type="move" name="ogonek"/>
    </contour>
    <contour>
      <point x="1190" y="1600" type="move" name="top_dd"/>
    </contour>
    <contour>
      <point x="1190" y="-407" type="move" name="bottom_dd"/>
    </contour>
    <contour>
      <point x="1190" y="1600" type="move" name="top0315"/>
    </contour>
    <contour>
      <point x="32" y="0" type="line"/>
      <point x="293" y="0" type="line"/>
      <point x="386.37060546875" y="334" type="line"/>
      <point x="824.3626174926758" y="334" type="line"/>
      <point x="918" y="0" type="line"/>
      <point x="1180" y="0" type="line"/>
      <point x="716" y="1456" type="line"/>
      <point x="493" y="1456" type="line"/>
    </contour>
    <contour>
      <point x="444.79712677001953" y="543" type="line"/>
      <point x="605.0542068481445" y="1116.2624816894531" type="line"/>
      <point x="765.769172668457" y="543" type="line"/>
    </contour>
  </outline>
</glyph>
<glyph name="B" format="1">
  <advance width="1137"/>
  <unicode hex="0042"/>
  <outline>
    <contour>
      <point x="535" y="1612" type="move" name="top"/>
    </contour>
    <contour>
      <point x="540" y="10" type="move" name="bottom"/>
    </contour>
    <contour>
      <point x="1117" y="1600" type="move" name="top_dd"/>
    </contour>
    <contour>
      <point x="1117" y="-407" type="move" name="bottom_dd"/>
    </contour>
    <contour>
      <point x="1117" y="1612" type="move" name="top0315"/>
    </contour>
    <contour>
      <point x="1030" y="426" type="curve" smooth="yes"/>
      <point x="1030.0" y="576.865317"/>
      <point x="968.199496988377" y="714.944323032078"/>
      <point x="821.8477172851562" y="758.205436706543" type="curve"/>
      <point x="943.160267952458" y="815.601179064546"/>
      <point x="1007.0" y="929.60334"/>
      <point x="1007.0" y="1062.0" type="curve"/>
      <point x="1007" y="1334"/>
      <point x="845" y="1456"/>
      <point x="573" y="1456" type="curve"/>
      <point x="134" y="1456" type="line"/>
      <point x="134" y="0" type="line"/>
      <point x="595" y="0" type="line"/>
      <point x="870" y="0"/>
      <point x="1030" y="147"/>
    </contour>
    <contour>
      <point x="385" y="1247" type="line"/>
      <point x="573" y="1247" type="line"/>
      <point x="701" y="1247"/>
      <point x="757" y="1188"/>
      <point x="757" y="1046" type="curve"/>
      <point x="757" y="918"/>
      <point x="687" y="844"/>
      <point x="572" y="844" type="curve"/>
      <point x="385" y="844" type="line"/>
    </contour>
    <contour>
      <point x="781" y="426" type="curve" smooth="yes"/>
      <point x="781" y="297"/>
      <point x="720" y="208"/>
      <point x="595" y="208" type="curve" smooth="yes"/>
      <point x="385" y="208" type="line"/>
      <point x="385" y="654" type="line"/>
      <point x="604" y="654" type="line" smooth="yes"/>
      <point x="732" y="654"/>
      <point x="781" y="568"/>
    </contour>
  </outline>
</glyph>
<glyph name="C" format="1">
  <advance width="1165"/>
  <unicode hex="0043"/>
  <outline>
    <contour>
      <point x="596" y="1620" type="move" name="top"/>
    </contour>
    <contour>
      <point x="594" y="-6" type="move" name="bottom"/>
    </contour>
    <contour>
      <point x="1145" y="1600" type="move" name="top_dd"/>
    </contour>
    <contour>
      <point x="1145" y="-407" type="move" name="bottom_dd"/>
    </contour>
    <contour>
      <point x="1145" y="1620" type="move" name="top0315"/>
    </contour>
    <contour>
      <point x="841" y="476" type="line"/>
      <point x="828" y="260"/>
      <point x="772" y="188"/>
      <point x="601" y="188" type="curve" smooth="yes"/>
      <point x="414" y="188"/>
      <point x="356" y="339"/>
      <point x="356" y="601" type="curve" smooth="yes"/>
      <point x="356" y="856" type="line" smooth="yes"/>
      <point x="356" y="1132"/>
      <point x="432" y="1268"/>
      <point x="612" y="1268" type="curve" smooth="yes"/>
      <point x="775" y="1268"/>
      <point x="832" y="1188"/>
      <point x="842" y="973" type="curve"/>
      <point x="1092" y="973" type="line"/>
      <point x="1075" y="1295"/>
      <point x="916" y="1476"/>
      <point x="612" y="1476" type="curve" smooth="yes"/>
      <point x="297" y="1476"/>
      <point x="106" y="1246"/>
      <point x="106" y="854" type="curve"/>
      <point x="106" y="601" type="line"/>
      <point x="106" y="209"/>
      <point x="292" y="-20"/>
      <point x="601" y="-20" type="curve" smooth="yes"/>
      <point x="912" y="-20"/>
      <point x="1078" y="162"/>
      <point x="1091" y="476" type="curve"/>
    </contour>
  </outline>
</glyph>
<glyph name="D" format="1">
  <advance width="1163"/>
  <unicode hex="0044"/>
  <outline>
    <contour>
      <point x="491" y="1607" type="move" name="top"/>
    </contour>
    <contour>
      <point x="284" y="733" type="move" name="cross"/>
    </contour>
    <contour>
      <point x="493" y="10" type="move" name="bottom"/>
    </contour>
    <contour>
      <point x="1143" y="1600" type="move" name="top_dd"/>
    </contour>
    <contour>
      <point x="1143" y="-407" type="move" name="bottom_dd"/>
    </contour>
    <contour>
      <point x="1143" y="1607" type="move" name="top0315"/>
    </contour>
    <contour>
      <point x="134" y="0" type="line"/>
      <point x="491" y="0" type="line"/>
      <point x="839" y="0"/>
      <point x="1054" y="216"/>
      <point x="1054" y="612" type="curve"/>
      <point x="1054" y="843" type="line"/>
      <point x="1054" y="1239"/>
      <point x="837" y="1456"/>
      <point x="502" y="1456" type="curve"/>
      <point x="134" y="1456" type="line"/>
    </contour>
    <contour>
      <point x="502" y="1247" type="line"/>
      <point x="722" y="1247"/>
      <point x="805" y="1131"/>
      <point x="805" y="845" type="curve"/>
      <point x="805" y="612" type="line" smooth="yes"/>
      <point x="805" y="334"/>
      <point x="725" y="208"/>
      <point x="491" y="208" type="curve"/>
      <point x="385" y="208" type="line"/>
      <point x="385" y="1247" type="line"/>
    </contour>
  </outline>
</glyph>
<glyph name="E" format="1">
  <advance width="1011"/>
  <unicode hex="0045"/>
  <outline>
    <contour>
      <point x="549" y="1607" type="move" name="top"/>
    </contour>
    <contour>
      <point x="550" y="10" type="move" name="bottom"/>
    </contour>
    <contour>
      <point x="-32" y="1456" type="move" name="tonos"/>
    </contour>
    <contour>
      <point x="840" y="0" type="move" name="ogonek"/>
    </contour>
    <contour>
      <point x="991" y="1600" type="move" name="top_dd"/>
    </contour>
    <contour>
      <point x="991" y="-407" type="move" name="bottom_dd"/>
    </contour>
    <contour>
      <point x="991" y="1607" type="move" name="top0315"/>
    </contour>
    <contour>
      <point x="134" y="0" type="line"/>
      <point x="948" y="0" type="line"/>
      <point x="948" y="208" type="line"/>
      <point x="385" y="208" type="line"/>
      <point x="385" y="648" type="line"/>
      <point x="863" y="648" type="line"/>
      <point x="863" y="852" type="line"/>
      <point x="385" y="852" type="line"/>
      <point x="385" y="1247" type="line"/>
      <point x="941" y="1247" type="line"/>
      <point x="941" y="1456" type="line"/>
      <point x="134" y="1456" type="line"/>
    </contour>
  </outline>
</glyph>
<glyph name="F" format="1">
  <advance width="978"/>
  <unicode hex="0046"/>
  <outline>
    <contour>
      <point x="299" y="319" type="move" name="cross"/>
    </contour>
    <contour>
      <point x="549" y="1612" type="move" name="top"/>
    </contour>
    <contour>
      <point x="466" y="10" type="move" name="bottom"/>
    </contour>
    <contour>
      <point x="958" y="1600" type="move" name="top_dd"/>
    </contour>
    <contour>
      <point x="958" y="-407" type="move" name="bottom_dd"/>
    </contour>
    <contour>
      <point x="958" y="1612" type="move" name="top0315"/>
    </contour>
    <contour>
      <point x="134" y="0" type="line"/>
      <point x="385" y="0" type="line"/>
      <point x="385" y="614" type="line"/>
      <point x="850" y="614" type="line"/>
      <point x="850" y="822" type="line"/>
      <point x="385" y="822" type="line"/>
      <point x="385" y="1247" type="line"/>
      <point x="918" y="1247" type="line"/>
      <point x="918" y="1456" type="line"/>
      <point x="134" y="1456" type="line"/>
    </contour>
  </outline>
</glyph>
<glyph name="G" format="1">
  <advance width="1203"/>
  <unicode hex="0047"/>
  <outline>
    <contour>
      <point x="590" y="1620" type="move" name="top"/>
    </contour>
    <contour>
      <point x="632" y="-6" type="move" name="bottom"/>
    </contour>
    <contour>
      <point x="1190" y="1600" type="move" name="top_dd"/>
    </contour>
    <contour>
      <point x="1190" y="-407" type="move" name="bottom_dd"/>
    </contour>
    <contour>
      <point x="1190" y="1620" type="move" name="top0315"/>
    </contour>
    <contour>
      <point x="1090" y="750" type="line"/>
      <point x="611" y="750" type="line"/>
      <point x="611" y="554" type="line"/>
      <point x="841" y="554" type="line"/>
      <point x="841" y="259" type="line"/>
      <point x="813" y="239"/>
      <point x="773" y="188"/>
      <point x="640" y="188" type="curve" smooth="yes"/>
      <point x="458" y="188"/>
      <point x="357" y="309"/>
      <point x="357" y="600" type="curve" smooth="yes"/>
      <point x="357" y="857" type="line" smooth="yes"/>
      <point x="357" y="1145"/>
      <point x="432" y="1268"/>
      <point x="617" y="1268" type="curve" smooth="yes"/>
      <point x="764" y="1268"/>
      <point x="831" y="1189"/>
      <point x="845" y="1009" type="curve"/>
      <point x="1090" y="1009" type="line"/>
      <point x="1072" y="1308"/>
      <point x="920" y="1476"/>
      <point x="612" y="1476" type="curve" smooth="yes"/>
      <point x="288" y="1476"/>
      <point x="106" y="1274"/>
      <point x="106" y="855" type="curve" smooth="yes"/>
      <point x="106" y="600" type="line" smooth="yes"/>
      <point x="106" y="181"/>
      <point x="316" y="-20"/>
      <point x="631" y="-20" type="curve" smooth="yes"/>
      <point x="911" y="-20"/>
      <point x="1035" y="108"/>
      <point x="1090" y="174" type="curve"/>
    </contour>
  </outline>
</glyph>
<glyph name="H" format="1">
  <advance width="1265"/>
  <unicode hex="0048"/>
  <outline>
    <contour>
      <point x="623" y="1607" type="move" name="top"/>
    </contour>
    <contour>
      <point x="1127" y="0" type="move" name="right"/>
    </contour>
    <contour>
      <point x="-26" y="1455" type="move" name="tonos"/>
    </contour>
    <contour>
      <point x="625" y="10" type="move" name="bottom"/>
    </contour>
    <contour>
      <point x="1245" y="1600" type="move" name="top_dd"/>
    </contour>
    <contour>
      <point x="1245" y="-407" type="move" name="bottom_dd"/>
    </contour>
    <contour>
      <point x="1245" y="1607" type="move" name="top0315"/>
    </contour>
    <contour>
      <point x="878" y="0" type="line"/>
      <point x="1128" y="0" type="line"/>
      <point x="1128" y="1456" type="line"/>
      <point x="878" y="1456" type="line"/>
      <point x="878" y="852" type="line"/>
      <point x="385" y="852" type="line"/>
      <point x="385" y="1456" type="line"/>
      <point x="134" y="1456" type="line"/>
      <point x="134" y="0" type="line"/>
      <point x="385" y="0" type="line"/>
      <point x="385" y="645" type="line"/>
      <point x="878" y="645" type="line"/>
    </contour>
  </outline>
</glyph>
<glyph name="J" format="1">
  <advance width="998"/>
  <unicode hex="004A"/>
  <outline>
    <contour>
      <point x="726" y="1601" type="move" name="top"/>
    </contour>
    <contour>
      <point x="450" y="-10" type="move" name="bottom"/>
    </contour>
    <contour>
      <point x="978" y="1600" type="move" name="top_dd"/>
    </contour>
    <contour>
      <point x="978" y="-407" type="move" name="bottom_dd"/>
    </contour>
    <contour>
      <point x="978" y="1601" type="move" name="top0315"/>
    </contour>
    <contour>
      <point x="621" y="437" type="line"/>
      <point x="621" y="276"/>
      <point x="558" y="188"/>
      <point x="461" y="188" type="curve" smooth="yes"/>
      <point x="370" y="188"/>
      <point x="301" y="251"/>
      <point x="301" y="418" type="curve"/>
      <point x="50" y="418" type="line"/>
      <point x="50" y="119"/>
      <point x="224" y="-20"/>
      <point x="461" y="-20" type="curve" smooth="yes"/>
      <point x="697" y="-20"/>
      <point x="871" y="148"/>
      <point x="871" y="437" type="curve"/>
      <point x="871" y="1456" type="line"/>
      <point x="621" y="1456" type="line"/>
    </contour>
  </outline>
</glyph>
<glyph name="K" format="1">
  <advance width="1125"/>
  <unicode hex="004B"/>
  <outline>
    <contour>
      <point x="578" y="74" type="move" name="bottom"/>
    </contour>
    <contour>
      <point x="1047" y="0" type="move" name="right"/>
    </contour>
    <contour>
      <point x="241" y="1227" type="move" name="cross"/>
    </contour>
    <contour>
      <point x="524" y="1601" type="move" name="top"/>
    </contour>
    <contour>
      <point x="1105" y="1600" type="move" name="top_dd"/>
    </contour>
    <contour>
      <point x="1105" y="-407" type="move" name="bottom_dd"/>
    </contour>
    <contour>
      <point x="1105" y="1601" type="move" name="top0315"/>
    </contour>
    <contour>
      <point x="833" y="0" type="line"/>
      <point x="1130" y="0" type="line"/>
      <point x="669.9233322143555" y="816.0207595825195" type="line"/>
      <point x="1109" y="1456" type="line"/>
      <point x="807" y="1456" type="line"/>
      <point x="486" y="950" type="line"/>
      <point x="385" y="799.004997253418" type="line"/>
      <point x="385" y="1456" type="line"/>
      <point x="134" y="1456" type="line"/>
      <point x="134" y="0" type="line"/>
      <point x="385" y="0" type="line"/>
      <point x="385" y="455.89078521728516" type="line"/>
      <point x="511.3506088256836" y="611.1338500976562" type="line"/>
    </contour>
  </outline>
</glyph>
<glyph name="M" format="1">
  <advance width="1552"/>
  <unicode hex="004D"/>
  <outline>
    <contour>
      <point x="769" y="1600" type="move" name="top"/>
    </contour>
    <contour>
      <point x="1406" y="0" type="move" name="right"/>
    </contour>
    <contour>
      <point x="775" y="10" type="move" name="bottom"/>
    </contour>
    <contour>
      <point x="1532" y="1600" type="move" name="top_dd"/>
    </contour>
    <contour>
      <point x="1532" y="-407" type="move" name="bottom_dd"/>
    </contour>
    <contour>
      <point x="1532" y="1600" type="move" name="top0315"/>
    </contour>
    <contour>
      <point x="776" y="348" type="line"/>
      <point x="458" y="1456" type="line"/>
      <point x="134" y="1456" type="line"/>
      <point x="134" y="0" type="line"/>
      <point x="384" y="0" type="line"/>
      <point x="384" y="470" type="line"/>
      <point x="360.9968948364258" y="1051.5655899047852" type="line"/>
      <point x="686" y="0" type="line"/>
      <point x="864" y="0" type="line"/>
      <point x="1188.8973770141602" y="1048.8926391601562" type="line"/>
      <point x="1166" y="470" type="line"/>
      <point x="1166" y="0" type="line"/>
      <point x="1416" y="0" type="line"/>
      <point x="1416" y="1456" type="line"/>
      <point x="1093" y="1456" type="line"/>
    </contour>
  </outline>
</glyph>
<glyph name="N" format="1">
  <advance width="1262"/>
  <unicode hex="004E"/>
  <outline>
    <contour>
      <point x="630" y="1600" type="move" name="top"/>
    </contour>
    <contour>
      <point x="626" y="6" type="move" name="bottom"/>
    </contour>
    <contour>
      <point x="1124" y="0" type="move" name="right"/>
    </contour>
    <contour>
      <point x="1242" y="1600" type="move" name="top_dd"/>
    </contour>
    <contour>
      <point x="1242" y="-407" type="move" name="bottom_dd"/>
    </contour>
    <contour>
      <point x="1242" y="1600" type="move" name="top0315"/>
    </contour>
    <contour>
      <point x="1125" y="1456" type="line"/>
      <point x="877" y="1456" type="line"/>
      <point x="877" y="430" type="line"/>
      <point x="384" y="1456" type="line"/>
      <point x="134" y="1456" type="line"/>
      <point x="134" y="0" type="line"/>
      <point x="384" y="0" type="line"/>
      <point x="384" y="1024" type="line"/>
      <point x="875" y="0" type="line"/>
      <point x="1125" y="0" type="line"/>
    </contour>
  </outline>
</glyph>
<glyph name="O" format="1">
  <advance width="1236"/>
  <unicode hex="004F"/>
  <outline>
    <contour>
      <point x="620" y="1600" type="move" name="top"/>
    </contour>
    <contour>
      <point x="622" y="0" type="move" name="bottom"/>
    </contour>
    <contour>
      <point x="129" y="1454" type="move" name="tonos"/>
    </contour>
    <contour>
      <point x="1216" y="1600" type="move" name="top_dd"/>
    </contour>
    <contour>
      <point x="1216" y="-407" type="move" name="bottom_dd"/>
    </contour>
    <contour>
      <point x="1216" y="1600" type="move" name="top0315"/>
    </contour>
    <contour>
      <point x="1127" y="844" type="line"/>
      <point x="1127" y="1262"/>
      <point x="926" y="1476"/>
      <point x="617" y="1476" type="curve" smooth="yes"/>
      <point x="314" y="1476"/>
      <point x="107" y="1262"/>
      <point x="107" y="844" type="curve"/>
      <point x="107" y="602" type="line"/>
      <point x="107" y="189"/>
      <point x="316" y="-20"/>
      <point x="619" y="-20" type="curve" smooth="yes"/>
      <point x="927" y="-20"/>
      <point x="1127" y="189"/>
      <point x="1127" y="602" type="curve"/>
    </contour>
    <contour>
      <point x="878" y="602" type="line"/>
      <point x="878" y="311"/>
      <point x="789" y="191"/>
      <point x="619" y="191" type="curve" smooth="yes"/>
      <point x="454" y="191"/>
      <point x="356" y="311"/>
      <point x="356" y="602" type="curve" smooth="yes"/>
      <point x="356" y="846" type="line" smooth="yes"/>
      <point x="356" y="1143"/>
      <point x="453" y="1264"/>
      <point x="617" y="1264" type="curve" smooth="yes"/>
      <point x="786" y="1264"/>
      <point x="878" y="1143"/>
      <point x="878" y="846" type="curve"/>
    </contour>
  </outline>
</glyph>
<glyph name="P" format="1">
  <advance width="1155"/>
  <unicode hex="0050"/>
  <outline>
    <contour>
      <point x="16" y="1454" type="move" name="tonos"/>
    </contour>
    <contour>
      <point x="535" y="1612" type="move" name="top"/>
    </contour>
    <contour>
      <point x="465" y="10" type="move" name="bottom"/>
    </contour>
    <contour>
      <point x="1135" y="1600" type="move" name="top_dd"/>
    </contour>
    <contour>
      <point x="1135" y="-407" type="move" name="bottom_dd"/>
    </contour>
    <contour>
      <point x="1135" y="1612" type="move" name="top0315"/>
    </contour>
    <contour>
      <point x="620" y="538" type="line"/>
      <point x="909" y="538"/>
      <point x="1077" y="708"/>
      <point x="1077" y="991" type="curve"/>
      <point x="1077" y="1260"/>
      <point x="909" y="1456"/>
      <point x="620" y="1456" type="curve"/>
      <point x="134" y="1456" type="line"/>
      <point x="134" y="0" type="line"/>
      <point x="385" y="0" type="line"/>
      <point x="385" y="538" type="line"/>
    </contour>
    <contour>
      <point x="385" y="1247" type="line"/>
      <point x="620" y="1247" type="line"/>
      <point x="766" y="1247"/>
      <point x="826" y="1123"/>
      <point x="826" y="989" type="curve"/>
      <point x="826" y="846"/>
      <point x="766" y="746"/>
      <point x="620" y="746" type="curve"/>
      <point x="385" y="746" type="line"/>
    </contour>
  </outline>
</glyph>
<glyph name="Q" format="1">
  <advance width="1236"/>
  <unicode hex="0051"/>
  <outline>
    <contour>
      <point x="608" y="1600" type="move" name="top"/>
    </contour>
    <contour>
      <point x="606" y="-10" type="move" name="bottom"/>
    </contour>
    <contour>
      <point x="1216" y="1600" type="move" name="top_dd"/>
    </contour>
    <contour>
      <point x="1216" y="-407" type="move" name="bottom_dd"/>
    </contour>
    <contour>
      <point x="1216" y="1600" type="move" name="top0315"/>
    </contour>
    <contour>
      <point x="1138" y="-103" type="line"/>
      <point x="928.6792984008789" y="84.22232818603516" type="line"/>
      <point x="1051.16643712" y="186.08408195200002"/>
      <point x="1122.0" y="362.23983999999996"/>
      <point x="1122.0" y="611.0" type="curve"/>
      <point x="1122" y="844" type="line"/>
      <point x="1122" y="1262"/>
      <point x="921" y="1476"/>
      <point x="611" y="1476" type="curve" smooth="yes"/>
      <point x="308" y="1476"/>
      <point x="102" y="1262"/>
      <point x="102" y="844" type="curve"/>
      <point x="102" y="611" type="line"/>
      <point x="102" y="193"/>
      <point x="310" y="-20"/>
      <point x="613" y="-20" type="curve" smooth="yes"/>
      <point x="646.890811" y="-20.0"/>
      <point x="679.470408348531" y="-17.437720112267"/>
      <point x="710.6184921264648" y="-12.323677062988281" type="curve"/>
      <point x="976" y="-253" type="line"/>
    </contour>
    <contour>
      <point x="873" y="611" type="line"/>
      <point x="873" y="314"/>
      <point x="784" y="191"/>
      <point x="613" y="191" type="curve" smooth="yes"/>
      <point x="449" y="191"/>
      <point x="351" y="314"/>
      <point x="351" y="611" type="curve" smooth="yes"/>
      <point x="351" y="846" type="line" smooth="yes"/>
      <point x="351" y="1143"/>
      <point x="448" y="1264"/>
      <point x="611" y="1264" type="curve" smooth="yes"/>
      <point x="781" y="1264"/>
      <point x="873" y="1143"/>
      <point x="873" y="846" type="curve"/>
    </contour>
  </outline>
</glyph>
<glyph name="R" format="1">
  <advance width="1108"/>
  <unicode hex="0052"/>
  <outline>
    <contour>
      <point x="527" y="1600" type="move" name="top"/>
    </contour>
    <contour>
      <point x="535" y="10" type="move" name="bottom"/>
    </contour>
    <contour>
      <point x="1088" y="1600" type="move" name="top_dd"/>
    </contour>
    <contour>
      <point x="1088" y="-407" type="move" name="bottom_dd"/>
    </contour>
    <contour>
      <point x="1088" y="1600" type="move" name="top0315"/>
    </contour>
    <contour>
      <point x="809" y="0" type="line"/>
      <point x="1077" y="0" type="line"/>
      <point x="1077" y="13" type="line"/>
      <point x="810.3983535766602" y="620.8895797729492" type="line"/>
      <point x="948.2808731356" y="691.1649640288081"/>
      <point x="1027.0" y="821.8076400000001"/>
      <point x="1027.0000000000002" y="1017.0" type="curve" smooth="yes"/>
      <point x="1027" y="1303"/>
      <point x="866" y="1456"/>
      <point x="577" y="1456" type="curve" smooth="yes"/>
      <point x="135" y="1456" type="line"/>
      <point x="135" y="0" type="line"/>
      <point x="385" y="0" type="line"/>
      <point x="385" y="558" type="line"/>
      <point x="573.8732833862305" y="558" type="line"/>
    </contour>
    <contour>
      <point x="385" y="1247" type="line"/>
      <point x="577" y="1247" type="line" smooth="yes"/>
      <point x="722" y="1247"/>
      <point x="777" y="1152"/>
      <point x="777" y="1004" type="curve" smooth="yes"/>
      <point x="777" y="865"/>
      <point x="708" y="766"/>
      <point x="569" y="766" type="curve" smooth="yes"/>
      <point x="385" y="766" type="line"/>
    </contour>
  </outline>
</glyph>
<glyph name="S" format="1">
  <advance width="1086"/>
  <unicode hex="0053"/>
  <outline>
    <contour>
      <point x="555" y="1600" type="move" name="top"/>
    </contour>
    <contour>
      <point x="559" y="0" type="move" name="bottom"/>
    </contour>
    <contour>
      <point x="1066" y="1600" type="move" name="top_dd"/>
    </contour>
    <contour>
      <point x="1066" y="-407" type="move" name="bottom_dd"/>
    </contour>
    <contour>
      <point x="1066" y="1600" type="move" name="top0315"/>
    </contour>
    <contour>
      <point x="755" y="377" type="curve" smooth="yes"/>
      <point x="755" y="263"/>
      <point x="697" y="185"/>
      <point x="565" y="185" type="curve" smooth="yes"/>
      <point x="421" y="185"/>
      <point x="329" y="260"/>
      <point x="329" y="443" type="curve"/>
      <point x="78" y="443" type="line"/>
      <point x="78" y="132"/>
      <point x="324" y="-20"/>
      <point x="565" y="-20" type="curve" smooth="yes"/>
      <point x="838" y="-20"/>
      <point x="1005" y="132"/>
      <point x="1005" y="379" type="curve"/>
      <point x="1005" y="611"/>
      <point x="883" y="745"/>
      <point x="603" y="841" type="curve"/>
      <point x="453" y="901"/>
      <point x="366" y="966"/>
      <point x="366" y="1073" type="curve"/>
      <point x="366" y="1185"/>
      <point x="424" y="1270"/>
      <point x="555" y="1270" type="curve" smooth="yes"/>
      <point x="699" y="1270"/>
      <point x="757" y="1170"/>
      <point x="757" y="1031" type="curve"/>
      <point x="1007" y="1031" type="line"/>
      <point x="1007" y="1276"/>
      <point x="841" y="1476"/>
      <point x="558" y="1476" type="curve" smooth="yes"/>
      <point x="293" y="1476"/>
      <point x="116" y="1309"/>
      <point x="116" y="1072" type="curve"/>
      <point x="116" y="833"/>
      <point x="291" y="711"/>
      <point x="519" y="626" type="curve"/>
      <point x="717" y="550"/>
      <point x="755" y="492"/>
    </contour>
  </outline>
</glyph>
<glyph name="T" format="1">
  <advance width="1091"/>
  <unicode hex="0054"/>
  <outline>
    <contour>
      <point x="543" y="1600" type="move" name="top"/>
    </contour>
    <contour>
      <point x="544" y="4" type="move" name="bottom"/>
    </contour>
    <contour>
      <point x="649" y="0" type="move" name="right"/>
    </contour>
    <contour>
      <point x="538" y="864" type="move" name="cross"/>
    </contour>
    <contour>
      <point x="1071" y="1600" type="move" name="top_dd"/>
    </contour>
    <contour>
      <point x="1071" y="-407" type="move" name="bottom_dd"/>
    </contour>
    <contour>
      <point x="1071" y="1600" type="move" name="top0315"/>
    </contour>
    <contour>
      <point x="56" y="1247" type="line"/>
      <point x="420" y="1247" type="line"/>
      <point x="420" y="0" type="line"/>
      <point x="669" y="0" type="line"/>
      <point x="669" y="1247" type="line"/>
      <point x="1037" y="1247" type="line"/>
      <point x="1037" y="1456" type="line"/>
      <point x="56" y="1456" type="line"/>
    </contour>
  </outline>
</glyph>
<glyph name="V" format="1">
  <advance width="1172"/>
  <unicode hex="0056"/>
  <outline>
    <contour>
      <point x="587" y="1612" type="move" name="top"/>
    </contour>
    <contour>
      <point x="587" y="10" type="move" name="bottom"/>
    </contour>
    <contour>
      <point x="1152" y="1600" type="move" name="top_dd"/>
    </contour>
    <contour>
      <point x="1152" y="-407" type="move" name="bottom_dd"/>
    </contour>
    <contour>
      <point x="1152" y="1612" type="move" name="top0315"/>
    </contour>
    <contour>
      <point x="1142" y="1456" type="line"/>
      <point x="866" y="1456" type="line"/>
      <point x="584.6023330688477" y="354.63560485839844" type="line"/>
      <point x="306" y="1456" type="line"/>
      <point x="31" y="1456" type="line"/>
      <point x="464" y="0" type="line"/>
      <point x="707" y="0" type="line"/>
    </contour>
  </outline>
</glyph>
<glyph name="W" format="1">
  <advance width="1545"/>
  <unicode hex="0057"/>
  <outline>
    <contour>
      <point x="785" y="1600" type="move" name="top"/>
    </contour>
    <contour>
      <point x="781" y="10" type="move" name="bottom"/>
    </contour>
    <contour>
      <point x="1525" y="1600" type="move" name="top_dd"/>
    </contour>
    <contour>
      <point x="1525" y="-407" type="move" name="bottom_dd"/>
    </contour>
    <contour>
      <point x="1525" y="1600" type="move" name="top0315"/>
    </contour>
    <contour>
      <point x="1498" y="1456" type="line"/>
      <point x="1250" y="1456" type="line"/>
      <point x="1087.4353103637695" y="437.9272689819336" type="line"/>
      <point x="884" y="1456" type="line"/>
      <point x="676" y="1456" type="line"/>
      <point x="469.5369186401367" y="438.9448928833008" type="line"/>
      <point x="305" y="1456" type="line"/>
      <point x="57" y="1456" type="line"/>
      <point x="329" y="0" type="line"/>
      <point x="569" y="0" type="line"/>
      <point x="780.1320419311523" y="988.6745300292969" type="line"/>
      <point x="986" y="0" type="line"/>
      <point x="1226" y="0" type="line"/>
    </contour>
  </outline>
</glyph>
<glyph name="X" format="1">
  <advance width="1141"/>
  <unicode hex="0058"/>
  <outline>
    <contour>
      <point x="563" y="14" type="move" name="bottom"/>
    </contour>
    <contour>
      <point x="961" y="0" type="move" name="right"/>
    </contour>
    <contour>
      <point x="570" y="742" type="move" name="cross"/>
    </contour>
    <contour>
      <point x="560" y="1612" type="move" name="top"/>
    </contour>
    <contour>
      <point x="1121" y="1600" type="move" name="top_dd"/>
    </contour>
    <contour>
      <point x="1121" y="-407" type="move" name="bottom_dd"/>
    </contour>
    <contour>
      <point x="1121" y="1612" type="move" name="top0315"/>
    </contour>
    <contour>
      <point x="346" y="1456" type="line"/>
      <point x="58" y="1456" type="line"/>
      <point x="415" y="734" type="line"/>
      <point x="50" y="0" type="line"/>
      <point x="342" y="0" type="line"/>
      <point x="572" y="531" type="line"/>
      <point x="803" y="0" type="line"/>
      <point x="1094" y="0" type="line"/>
      <point x="729" y="734" type="line"/>
      <point x="1086" y="1456" type="line"/>
      <point x="798" y="1456" type="line"/>
      <point x="572" y="934" type="line"/>
    </contour>
  </outline>
</glyph>
<glyph name="Y" format="1">
  <advance width="1095"/>
  <unicode hex="0059"/>
  <outline>
    <contour>
      <point x="551" y="1600" type="move" name="top"/>
    </contour>
    <contour>
      <point x="546" y="19" type="move" name="bottom"/>
    </contour>
    <contour>
      <point x="549" y="598" type="move" name="cross"/>
    </contour>
    <contour>
      <point x="-35" y="1454" type="move" name="tonos"/>
    </contour>
    <contour>
      <point x="1075" y="1600" type="move" name="top_dd"/>
    </contour>
    <contour>
      <point x="1075" y="-407" type="move" name="bottom_dd"/>
    </contour>
    <contour>
      <point x="1075" y="1600" type="move" name="top0315"/>
    </contour>
    <contour>
      <point x="298" y="1456" type="line"/>
      <point x="22" y="1456" type="line"/>
      <point x="421" y="535" type="line"/>
      <point x="421" y="0" type="line"/>
      <point x="673" y="0" type="line"/>
      <point x="673" y="535" type="line"/>
      <point x="1072" y="1456" type="line"/>
      <point x="796" y="1456" type="line"/>
      <point x="547" y="771" type="line"/>
    </contour>
  </outline>
</glyph>
<glyph name="Z" format="1">
  <advance width="1079"/>
  <unicode hex="005A"/>
  <outline>
    <contour>
      <point x="546" y="1600" type="move" name="top"/>
    </contour>
    <contour>
      <point x="537" y="10" type="move" name="bottom"/>
    </contour>
    <contour>
      <point x="1059" y="1600" type="move" name="top_dd"/>
    </contour>
    <contour>
      <point x="1059" y="-407" type="move" name="bottom_dd"/>
    </contour>
    <contour>
      <point x="1059" y="1600" type="move" name="top0315"/>
    </contour>
    <contour>
      <point x="83" y="1247" type="line"/>
      <point x="704.108528137207" y="1247" type="line"/>
      <point x="84" y="166" type="line"/>
      <point x="84" y="0" type="line"/>
      <point x="1006" y="0" type="line"/>
      <point x="1006" y="208" type="line"/>
      <point x="369.3752899169922" y="208" type="line"/>
      <point x="988" y="1295" type="line"/>
      <point x="988" y="1456" type="line"/>
      <point x="83" y="1456" type="line"/>
    </contour>
  </outline>
</glyph>
<glyph name="bracketleft" format="1">
  <advance width="533"/>
  <unicode hex="005B"/>
  <outline>
    <contour>
      <point x="488" y="1681" type="line"/>
      <point x="122" y="1681" type="line"/>
      <point x="122" y="-327" type="line"/>
      <point x="488" y="-327" type="line"/>
      <point x="488" y="-133" type="line"/>
      <point x="362" y="-133" type="line"/>
      <point x="362" y="1486" type="line"/>
      <point x="488" y="1486" type="line"/>
    </contour>
  </outline>
</glyph>
<glyph name="bracketright" format="1">
  <advance width="533"/>
  <unicode hex="005D"/>
  <outline>
    <contour>
      <point x="34" y="1486" type="line"/>
      <point x="161" y="1486" type="line"/>
      <point x="161" y="-133" type="line"/>
      <point x="34" y="-133" type="line"/>
      <point x="34" y="-327" type="line"/>
      <point x="401" y="-327" type="line"/>
      <point x="401" y="1681" type="line"/>
      <point x="34" y="1681" type="line"/>
    </contour>
  </outline>
</glyph>
<glyph name="asciicircum" format="1">
  <advance width="782"/>
  <unicode hex="005E"/>
  <outline>
    <contour>
      <point x="58" y="729" type="line"/>
      <point x="258" y="729" type="line"/>
      <point x="393" y="1189.6993026733398" type="line"/>
      <point x="528" y="729" type="line"/>
      <point x="727" y="729" type="line"/>
      <point x="477" y="1456" type="line"/>
      <point x="309" y="1456" type="line"/>
    </contour>
  </outline>
</glyph>
<glyph name="underscore" format="1">
  <advance width="828"/>
  <unicode hex="005F"/>
  <outline>
    <contour>
      <point x="404" y="147" type="move" name="_bottom"/>
    </contour>
    <contour>
      <point x="805" y="0" type="line"/>
      <point x="23" y="0" type="line"/>
      <point x="23" y="-196" type="line"/>
      <point x="805" y="-196" type="line"/>
    </contour>
  </outline>
</glyph>
<glyph name="grave" format="1">
  <advance width="662"/>
  <unicode hex="0060"/>
  <outline>
    <contour>
      <point x="398" y="1290" type="move" name="_top"/>
    </contour>
    <contour>
      <point x="398" y="1658" type="move" name="mkmktop_acc"/>
    </contour>
    <contour>
      <point x="332" y="1536" type="line"/>
      <point x="50" y="1536" type="line"/>
      <point x="321" y="1233" type="line"/>
      <point x="528" y="1233" type="line"/>
    </contour>
  </outline>
</glyph>
<glyph name="a" format="1">
  <advance width="974"/>
  <unicode hex="0061"/>
  <outline>
    <contour>
      <point x="493" y="1290" type="move" name="top"/>
    </contour>
    <contour>
      <point x="426" y="9" type="move" name="bottom"/>
    </contour>
    <contour>
      <point x="849" y="0" type="move" name="ogonek"/>
    </contour>
    <contour>
      <point x="604" y="1290" type="move" name="rhalfring"/>
    </contour>
    <contour>
      <point x="954" y="1600" type="move" name="top_dd"/>
    </contour>
    <contour>
      <point x="954" y="-407" type="move" name="bottom_dd"/>
    </contour>
    <contour>
      <point x="749" y="654" type="move" name="rhotichook"/>
    </contour>
    <contour>
      <point x="954" y="1290" type="move" name="top0315"/>
    </contour>
    <contour>
      <point x="647.9999999999999" y="0.0" type="curve"/>
      <point x="892" y="0" type="line"/>
      <point x="892" y="17" type="line"/>
      <point x="868" y="74"/>
      <point x="855" y="152"/>
      <point x="855" y="252" type="curve" smooth="yes"/>
      <point x="855" y="755" type="line"/>
      <point x="855" y="1004"/>
      <point x="704" y="1102"/>
      <point x="495" y="1102" type="curve" smooth="yes"/>
      <point x="259" y="1102"/>
      <point x="112" y="941"/>
      <point x="112" y="769" type="curve"/>
      <point x="352" y="769" type="line"/>
      <point x="352" y="850"/>
      <point x="397" y="910"/>
      <point x="487" y="910" type="curve" smooth="yes"/>
      <point x="571" y="910"/>
      <point x="614" y="868"/>
      <point x="614" y="758" type="curve"/>
      <point x="614" y="661" type="line"/>
      <point x="523" y="661" type="line"/>
      <point x="234" y="661"/>
      <point x="93" y="515"/>
      <point x="93" y="300" type="curve" smooth="yes"/>
      <point x="93" y="99"/>
      <point x="226" y="-20"/>
      <point x="408" y="-20" type="curve" smooth="yes"/>
      <point x="506.57876" y="-20.0"/>
      <point x="577.6980217043999" y="32.3898322745"/>
      <point x="623.3123626708984" y="95.69599151611328" type="curve"/>
      <point x="629.04841330916" y="58.496437505723996"/>
      <point x="637.3531879999999" y="24.681246"/>
    </contour>
    <contour>
      <point x="455.9999999999999" y="178.99999999999997" type="curve" smooth="yes"/>
      <point x="374" y="179"/>
      <point x="333" y="221"/>
      <point x="333" y="322" type="curve" smooth="yes"/>
      <point x="333" y="433"/>
      <point x="411" y="507"/>
      <point x="543" y="507" type="curve"/>
      <point x="614" y="507" type="line"/>
      <point x="614" y="264.3193359375" type="line"/>
      <point x="587.994321008606" y="220.28324068360797"/>
      <point x="529.972332" y="178.99999999999997"/>
    </contour>
  </outline>
</glyph>
<glyph name="b" format="1">
  <advance width="1014"/>
  <unicode hex="0062"/>
  <outline>
    <contour>
      <point x="582" y="1607" type="move" name="top"/>
    </contour>
    <contour>
      <point x="559" y="-10" type="move" name="bottom"/>
    </contour>
    <contour>
      <point x="994" y="1600" type="move" name="top_dd"/>
    </contour>
    <contour>
      <point x="994" y="-407" type="move" name="bottom_dd"/>
    </contour>
    <contour>
      <point x="994" y="1607" type="move" name="top0315"/>
    </contour>
    <contour>
      <point x="936" y="498" type="curve" smooth="yes"/>
      <point x="936" y="583" type="line"/>
      <point x="936" y="933"/>
      <point x="820" y="1102"/>
      <point x="582" y="1102" type="curve" smooth="yes"/>
      <point x="482.30436" y="1102.0"/>
      <point x="408.894262175232" y="1059.491349763492"/>
      <point x="356" y="984.8906860351562" type="curve"/>
      <point x="356" y="1536" type="line"/>
      <point x="116" y="1536" type="line"/>
      <point x="116" y="0" type="line"/>
      <point x="337" y="0" type="line"/>
      <point x="346.31727600097656" y="113.76885223388672" type="line"/>
      <point x="399.99797108292995" y="28.825996155126987"/>
      <point x="476.66715099999993" y="-20.000000000000007"/>
      <point x="583.9999999999999" y="-20.000000000000014" type="curve" smooth="yes"/>
      <point x="819" y="-20"/>
      <point x="936" y="152"/>
    </contour>
    <contour>
      <point x="515.0" y="899.0" type="curve" smooth="yes"/>
      <point x="660" y="899"/>
      <point x="696" y="796"/>
      <point x="696" y="583" type="curve" smooth="yes"/>
      <point x="696" y="498" type="line"/>
      <point x="696" y="276"/>
      <point x="656" y="183"/>
      <point x="517" y="183" type="curve" smooth="yes"/>
      <point x="436.155577" y="183.0"/>
      <point x="385.77940517512" y="225.655551645168"/>
      <point x="356" y="289.6076889038086" type="curve"/>
      <point x="356" y="790.5966339111328" type="line"/>
      <point x="386.821973464384" y="856.647431426733"/>
      <point x="438.24479799999995" y="899.0"/>
    </contour>
  </outline>
</glyph>
<glyph name="c" format="1">
  <advance width="946"/>
  <unicode hex="0063"/>
  <outline>
    <contour>
      <point x="465" y="1290" type="move" name="top"/>
    </contour>
    <contour>
      <point x="476" y="-6" type="move" name="bottom"/>
    </contour>
    <contour>
      <point x="465" y="1290" type="move" name="marktop"/>
    </contour>
    <contour>
      <point x="926" y="1600" type="move" name="top_dd"/>
    </contour>
    <contour>
      <point x="926" y="-407" type="move" name="bottom_dd"/>
    </contour>
    <contour>
      <point x="926" y="1290" type="move" name="top0315"/>
    </contour>
    <contour>
      <point x="503" y="180" type="curve" smooth="yes"/>
      <point x="349" y="180"/>
      <point x="323" y="294"/>
      <point x="323" y="492" type="curve" smooth="yes"/>
      <point x="323" y="590" type="line" smooth="yes"/>
      <point x="323" y="784"/>
      <point x="351" y="902"/>
      <point x="502" y="902" type="curve"/>
      <point x="604" y="902"/>
      <point x="653" y="828"/>
      <point x="658" y="693" type="curve"/>
      <point x="883" y="693" type="line"/>
      <point x="879" y="954"/>
      <point x="734" y="1102"/>
      <point x="505" y="1102" type="curve" smooth="yes"/>
      <point x="218" y="1102"/>
      <point x="82" y="912"/>
      <point x="82" y="590" type="curve" smooth="yes"/>
      <point x="82" y="492" type="line" smooth="yes"/>
      <point x="82" y="170"/>
      <point x="217" y="-20"/>
      <point x="505" y="-20" type="curve"/>
      <point x="713" y="-20"/>
      <point x="879" y="129"/>
      <point x="883" y="360" type="curve"/>
      <point x="658" y="360" type="line"/>
      <point x="654" y="232"/>
      <point x="592" y="180"/>
    </contour>
  </outline>
</glyph>
<glyph name="d" format="1">
  <advance width="1017"/>
  <unicode hex="0064"/>
  <outline>
    <contour>
      <point x="981" y="1536" type="move" name="caron"/>
    </contour>
    <contour>
      <point x="749" y="1306" type="move" name="cross"/>
    </contour>
    <contour>
      <point x="527" y="0" type="move" name="bottom"/>
    </contour>
    <contour>
      <point x="456" y="1607" type="move" name="top"/>
    </contour>
    <contour>
      <point x="997" y="1600" type="move" name="top_dd"/>
    </contour>
    <contour>
      <point x="997" y="-407" type="move" name="bottom_dd"/>
    </contour>
    <contour>
      <point x="997" y="1607" type="move" name="top0315"/>
    </contour>
    <contour>
      <point x="679" y="0" type="line"/>
      <point x="897" y="0" type="line"/>
      <point x="897" y="1536" type="line"/>
      <point x="657" y="1536" type="line"/>
      <point x="657" y="989.3984527587891" type="line"/>
      <point x="603.821824174732" y="1061.408640512776"/>
      <point x="531.43807" y="1102.0"/>
      <point x="436.0" y="1101.9999999999998" type="curve" smooth="yes"/>
      <point x="213" y="1102"/>
      <point x="78" y="937"/>
      <point x="78" y="582" type="curve" smooth="yes"/>
      <point x="78" y="497" type="line"/>
      <point x="78" y="156"/>
      <point x="214" y="-20"/>
      <point x="434" y="-20" type="curve" smooth="yes"/>
      <point x="537.681512" y="-20.0"/>
      <point x="613.944624314169" y="27.694191050142997"/>
      <point x="668.2087097167969" y="110.365478515625" type="curve"/>
    </contour>
    <contour>
      <point x="318" y="497" type="curve" smooth="yes"/>
      <point x="318" y="582" type="line"/>
      <point x="318" y="800"/>
      <point x="369" y="899"/>
      <point x="504" y="899" type="curve" smooth="yes"/>
      <point x="574.493432" y="899.0"/>
      <point x="625.044571076584" y="859.854017594776"/>
      <point x="657" y="797.0296020507812" type="curve"/>
      <point x="657" y="284.83654022216797" type="line"/>
      <point x="626.5769662797" y="223.429927658024"/>
      <point x="578.23775" y="184.00000000000003"/>
      <point x="501.99999999999994" y="184.00000000000003" type="curve" smooth="yes"/>
      <point x="368" y="184"/>
      <point x="318" y="280"/>
    </contour>
  </outline>
</glyph>
<glyph name="e" format="1">
  <advance width="974"/>
  <unicode hex="0065"/>
  <outline>
    <contour>
      <point x="483" y="1290" type="move" name="top"/>
    </contour>
    <contour>
      <point x="498" y="0" type="move" name="bottom"/>
    </contour>
    <contour>
      <point x="722" y="28" type="move" name="ogonek"/>
    </contour>
    <contour>
      <point x="955" y="1600" type="move" name="top_dd"/>
    </contour>
    <contour>
      <point x="955" y="-407" type="move" name="bottom_dd"/>
    </contour>
    <contour>
      <point x="786" y="654" type="move" name="rhotichook"/>
    </contour>
    <contour>
      <point x="955" y="1290" type="move" name="top0315"/>
    </contour>
    <contour>
      <point x="894" y="144" type="curve"/>
      <point x="788" y="290" type="line"/>
      <point x="731" y="224"/>
      <point x="656" y="180"/>
      <point x="547" y="180" type="curve" smooth="yes"/>
      <point x="405.995279" y="180.0"/>
      <point x="331.106188662212" y="257.78309489672"/>
      <point x="329.04378509521484" y="463" type="curve"/>
      <point x="906" y="463" type="line"/>
      <point x="906" y="580" type="line" smooth="yes"/>
      <point x="906" y="919"/>
      <point x="783" y="1102"/>
      <point x="507" y="1102" type="curve" smooth="yes"/>
      <point x="267" y="1102"/>
      <point x="88" y="942"/>
      <point x="88" y="576" type="curve" smooth="yes"/>
      <point x="88" y="471" type="line" smooth="yes"/>
      <point x="88" y="150"/>
      <point x="252" y="-20"/>
      <point x="532" y="-20" type="curve"/>
      <point x="720" y="-20"/>
      <point x="836" y="64"/>
    </contour>
    <contour>
      <point x="506.0" y="902.0" type="curve"/>
      <point x="629" y="902"/>
      <point x="662" y="812"/>
      <point x="668" y="668" type="curve"/>
      <point x="668" y="643" type="line"/>
      <point x="330.66111755371094" y="643" type="line"/>
      <point x="340.9850041542263" y="837.5649119269226"/>
      <point x="399.4312983029893" y="901.9999999999999"/>
    </contour>
  </outline>
</glyph>
<glyph name="f" format="1">
  <advance width="664"/>
  <unicode hex="0066"/>
  <outline>
    <contour>
      <point x="415" y="1721" type="move" name="top"/>
    </contour>
    <contour>
      <point x="297" y="10" type="move" name="bottom"/>
    </contour>
    <contour>
      <point x="644" y="1600" type="move" name="top_dd"/>
    </contour>
    <contour>
      <point x="644" y="-407" type="move" name="bottom_dd"/>
    </contour>
    <contour>
      <point x="644" y="1721" type="move" name="top0315"/>
    </contour>
    <contour>
      <point x="601" y="898" type="line"/>
      <point x="601" y="1082" type="line"/>
      <point x="428" y="1082" type="line"/>
      <point x="428" y="1184" type="line"/>
      <point x="428" y="1293"/>
      <point x="476" y="1353"/>
      <point x="563" y="1353" type="curve" smooth="yes"/>
      <point x="589" y="1353"/>
      <point x="617" y="1350"/>
      <point x="637" y="1344" type="curve"/>
      <point x="642" y="1539" type="line"/>
      <point x="605" y="1550"/>
      <point x="565" y="1557"/>
      <point x="524" y="1557" type="curve" smooth="yes"/>
      <point x="316" y="1557"/>
      <point x="187" y="1425"/>
      <point x="187" y="1184" type="curve"/>
      <point x="187" y="1082" type="line"/>
      <point x="53" y="1082" type="line"/>
      <point x="53" y="898" type="line"/>
      <point x="187" y="898" type="line"/>
      <point x="187" y="0" type="line"/>
      <point x="428" y="0" type="line"/>
      <point x="428" y="898" type="line"/>
    </contour>
  </outline>
</glyph>
<glyph name="g" format="1">
  <advance width="1023"/>
  <unicode hex="0067"/>
  <outline>
    <contour>
      <point x="484" y="1290" type="move" name="top"/>
    </contour>
    <contour>
      <point x="485" y="-447" type="move" name="bottom"/>
    </contour>
    <contour>
      <point x="1003" y="1600" type="move" name="top_dd"/>
    </contour>
    <contour>
      <point x="1003" y="-407" type="move" name="bottom_dd"/>
    </contour>
    <contour>
      <point x="1003" y="1290" type="move" name="top0315"/>
    </contour>
    <contour>
      <point x="908" y="-3" type="curve" smooth="yes"/>
      <point x="908" y="1082" type="line"/>
      <point x="691" y="1082" type="line"/>
      <point x="680.9146957397461" y="979.0458145141602" type="line"/>
      <point x="628.8163576448" y="1057.5036173344"/>
      <point x="553.82432" y="1102.0"/>
      <point x="446.00000000000006" y="1101.9999999999998" type="curve" smooth="yes"/>
      <point x="219" y="1102"/>
      <point x="81" y="937"/>
      <point x="81" y="582" type="curve" smooth="yes"/>
      <point x="81" y="497" type="line"/>
      <point x="81" y="156"/>
      <point x="220" y="-20"/>
      <point x="444" y="-20" type="curve" smooth="yes"/>
      <point x="541.66218" y="-20.0"/>
      <point x="614.100157944192" y="20.792264262127"/>
      <point x="667" y="92.32967376708984" type="curve"/>
      <point x="667" y="-8" type="line" smooth="yes"/>
      <point x="667" y="-174"/>
      <point x="592" y="-230"/>
      <point x="470" y="-230" type="curve" smooth="yes"/>
      <point x="392" y="-230"/>
      <point x="301" y="-194"/>
      <point x="237" y="-131" type="curve"/>
      <point x="151" y="-296" type="line"/>
      <point x="229" y="-384"/>
      <point x="394" y="-426"/>
      <point x="483" y="-426" type="curve" smooth="yes"/>
      <point x="735" y="-426"/>
      <point x="908" y="-296"/>
    </contour>
    <contour>
      <point x="321" y="497" type="curve" smooth="yes"/>
      <point x="321" y="582" type="line"/>
      <point x="321" y="800"/>
      <point x="379" y="899"/>
      <point x="514" y="899" type="curve" smooth="yes"/>
      <point x="584.077271" y="899.0"/>
      <point x="634.365005032741" y="863.445916635094"/>
      <point x="667" y="805.7155075073242" type="curve"/>
      <point x="667" y="275.3773498535156" type="line"/>
      <point x="636.0300759148081" y="219.40481708573594"/>
      <point x="587.7093540000001" y="183.99999999999994"/>
      <point x="512.0000000000001" y="183.99999999999991" type="curve" smooth="yes"/>
      <point x="378" y="184"/>
      <point x="321" y="280"/>
    </contour>
  </outline>
</glyph>
<glyph name="h" format="1">
  <advance width="999"/>
  <unicode hex="0068"/>
  <outline>
    <contour>
      <point x="460" y="1644" type="move" name="top"/>
    </contour>
    <contour>
      <point x="254" y="1304" type="move" name="cross"/>
    </contour>
    <contour>
      <point x="515" y="10" type="move" name="bottom"/>
    </contour>
    <contour>
      <point x="887" y="0" type="move" name="right"/>
    </contour>
    <contour>
      <point x="979" y="1600" type="move" name="top_dd"/>
    </contour>
    <contour>
      <point x="979" y="-407" type="move" name="bottom_dd"/>
    </contour>
    <contour>
      <point x="979" y="1644" type="move" name="top0315"/>
    </contour>
    <contour>
      <point x="505.0" y="899.0" type="curve" smooth="yes"/>
      <point x="600" y="899"/>
      <point x="647" y="846"/>
      <point x="647" y="697" type="curve" smooth="yes"/>
      <point x="647" y="0" type="line"/>
      <point x="887" y="0" type="line"/>
      <point x="887" y="695" type="line" smooth="yes"/>
      <point x="887" y="990"/>
      <point x="768" y="1102"/>
      <point x="590" y="1102" type="curve" smooth="yes"/>
      <point x="494.330046" y="1102.0"/>
      <point x="412.911896715066" y="1059.244585854802"/>
      <point x="352" y="985.5561065673828" type="curve"/>
      <point x="352" y="1536" type="line"/>
      <point x="112" y="1536" type="line"/>
      <point x="112" y="0" type="line"/>
      <point x="352" y="0" type="line"/>
      <point x="352" y="792.7560653686523" type="line"/>
      <point x="385.72732645612797" y="858.326037878576"/>
      <point x="437.8635" y="899.0"/>
    </contour>
  </outline>
</glyph>
<glyph name="i" format="1">
  <advance width="499"/>
  <unicode hex="0069"/>
  <outline>
    <contour>
      <point x="249" y="10" type="move" name="bottom"/>
    </contour>
    <contour>
      <point x="339" y="0" type="move" name="ogonek"/>
    </contour>
    <contour>
      <point x="249" y="1600" type="move" name="top"/>
    </contour>
    <contour>
      <point x="479" y="1600" type="move" name="top_dd"/>
    </contour>
    <contour>
      <point x="479" y="-407" type="move" name="bottom_dd"/>
    </contour>
    <contour>
      <point x="297" y="654" type="move" name="rhotichook"/>
    </contour>
    <contour>
      <point x="479" y="1600" type="move" name="top0315"/>
    </contour>
    <contour>
      <point x="118" y="1363" type="curve" smooth="yes"/>
      <point x="118" y="1288"/>
      <point x="166" y="1232"/>
      <point x="250" y="1232" type="curve"/>
      <point x="333" y="1232"/>
      <point x="382" y="1288"/>
      <point x="382" y="1363" type="curve"/>
      <point x="382" y="1439"/>
      <point x="333" y="1496"/>
      <point x="250" y="1496" type="curve"/>
      <point x="166" y="1496"/>
      <point x="118" y="1439"/>
    </contour>
    <contour>
      <point x="370" y="1082" type="line"/>
      <point x="129" y="1082" type="line"/>
      <point x="129" y="0" type="line"/>
      <point x="370" y="0" type="line"/>
    </contour>
  </outline>
</glyph>
<glyph name="j" format="1">
  <advance width="485"/>
  <unicode hex="006A"/>
  <outline>
    <contour>
      <point x="207" y="1600" type="move" name="top"/>
    </contour>
    <contour>
      <point x="180" y="-459" type="move" name="bottom"/>
    </contour>
    <contour>
      <point x="465" y="1600" type="move" name="top_dd"/>
    </contour>
    <contour>
      <point x="465" y="-407" type="move" name="bottom_dd"/>
    </contour>
    <contour>
      <point x="465" y="1600" type="move" name="top0315"/>
    </contour>
    <contour>
      <point x="107" y="1363" type="curve" smooth="yes"/>
      <point x="107" y="1288"/>
      <point x="155" y="1232"/>
      <point x="239" y="1232" type="curve" smooth="yes"/>
      <point x="322" y="1232"/>
      <point x="371" y="1288"/>
      <point x="371" y="1363" type="curve" smooth="yes"/>
      <point x="371" y="1439"/>
      <point x="322" y="1496"/>
      <point x="239" y="1496" type="curve" smooth="yes"/>
      <point x="155" y="1496"/>
      <point x="107" y="1439"/>
    </contour>
    <contour>
      <point x="124" y="1082" type="line"/>
      <point x="124" y="-91" type="line"/>
      <point x="124" y="-193"/>
      <point x="93" y="-232"/>
      <point x="37" y="-232" type="curve" smooth="yes"/>
      <point x="17" y="-232"/>
      <point x="-10" y="-229"/>
      <point x="-36" y="-224" type="curve"/>
      <point x="-35" y="-420" type="line"/>
      <point x="0" y="-431"/>
      <point x="44" y="-437"/>
      <point x="81" y="-437" type="curve" smooth="yes"/>
      <point x="266" y="-437"/>
      <point x="365" y="-315"/>
      <point x="365" y="-91" type="curve"/>
      <point x="365" y="1082" type="line"/>
    </contour>
  </outline>
</glyph>
<glyph name="k" format="1">
  <advance width="957"/>
  <unicode hex="006B"/>
  <outline>
    <contour>
      <point x="486" y="53" type="move" name="bottom"/>
    </contour>
    <contour>
      <point x="214" y="1293" type="move" name="cross"/>
    </contour>
    <contour>
      <point x="539" y="1607" type="move" name="top"/>
    </contour>
    <contour>
      <point x="539" y="1607" type="move" name="marktop"/>
    </contour>
    <contour>
      <point x="937" y="1600" type="move" name="top_dd"/>
    </contour>
    <contour>
      <point x="937" y="-407" type="move" name="bottom_dd"/>
    </contour>
    <contour>
      <point x="828" y="1607" type="move" name="top0315"/>
    </contour>
    <contour>
      <point x="674" y="0" type="line"/>
      <point x="951" y="0" type="line"/>
      <point x="589.2185287475586" y="633.8187026977539" type="line"/>
      <point x="914" y="1082" type="line"/>
      <point x="627" y="1082" type="line"/>
      <point x="410" y="747" type="line"/>
      <point x="356" y="669.7674407958984" type="line"/>
      <point x="356" y="1536" type="line"/>
      <point x="116" y="1536" type="line"/>
      <point x="116" y="0" type="line"/>
      <point x="356" y="0" type="line"/>
      <point x="356" y="355.9327697753906" type="line"/>
      <point x="440.75423431396484" y="452.08253479003906" type="line"/>
    </contour>
  </outline>
</glyph>
<glyph name="m" format="1">
  <advance width="1528"/>
  <unicode hex="006D"/>
  <outline>
    <contour>
      <point x="781" y="1290" type="move" name="top"/>
    </contour>
    <contour>
      <point x="772" y="10" type="move" name="bottom"/>
    </contour>
    <contour>
      <point x="781" y="1290" type="move" name="marktop"/>
    </contour>
    <contour>
      <point x="1508" y="1600" type="move" name="top_dd"/>
    </contour>
    <contour>
      <point x="1508" y="-407" type="move" name="bottom_dd"/>
    </contour>
    <contour>
      <point x="1508" y="1290" type="move" name="top0315"/>
    </contour>
    <contour>
      <point x="500.0" y="899.0" type="curve" smooth="yes"/>
      <point x="590" y="899"/>
      <point x="643" y="850"/>
      <point x="643" y="698" type="curve"/>
      <point x="643" y="0" type="line"/>
      <point x="883" y="0" type="line"/>
      <point x="883" y="721" type="line"/>
      <point x="883.0" y="734.382793"/>
      <point x="882.704919636631" y="747.372958409071"/>
      <point x="882.12451171875" y="759.9737167358398" type="curve"/>
      <point x="904.691668385943" y="843.473746518903"/>
      <point x="953.7983389999999" y="899.0"/>
      <point x="1026.0" y="899.0" type="curve" smooth="yes"/>
      <point x="1115" y="899"/>
      <point x="1169" y="858"/>
      <point x="1169" y="701" type="curve" smooth="yes"/>
      <point x="1169" y="0" type="line"/>
      <point x="1410" y="0" type="line"/>
      <point x="1410" y="700" type="line" smooth="yes"/>
      <point x="1410" y="988"/>
      <point x="1296" y="1102"/>
      <point x="1110" y="1102" type="curve" smooth="yes"/>
      <point x="988.98864" y="1102.0"/>
      <point x="898.48509093552" y="1045.306318011492"/>
      <point x="839.0021896362305" y="954.9788665771484" type="curve"/>
      <point x="789.83634888284" y="1057.38965092781"/>
      <point x="703.529147" y="1102.0"/>
      <point x="601.0" y="1102.0" type="curve" smooth="yes"/>
      <point x="493.18024776186326" y="1102.0"/>
      <point x="409.1728141884583" y="1060.37531697976"/>
      <point x="348.97769927978516" y="988.4917297363281" type="curve"/>
      <point x="343" y="1082" type="line"/>
      <point x="117" y="1082" type="line"/>
      <point x="117" y="0" type="line"/>
      <point x="357" y="0" type="line"/>
      <point x="357" y="804.9792098999023" type="line"/>
      <point x="385.970242805254" y="863.3423250518509"/>
      <point x="432.110795" y="898.9999999999999"/>
    </contour>
  </outline>
</glyph>
<glyph name="n" format="1">
  <advance width="1001"/>
  <unicode hex="006E"/>
  <outline>
    <contour>
      <point x="502" y="1290" type="move" name="top"/>
    </contour>
    <contour>
      <point x="495" y="10" type="move" name="bottom"/>
    </contour>
    <contour>
      <point x="-35" y="1537" type="move" name="caron"/>
    </contour>
    <contour>
      <point x="888" y="0" type="move" name="right"/>
    </contour>
    <contour>
      <point x="502" y="1290" type="move" name="marktop"/>
    </contour>
    <contour>
      <point x="981" y="1600" type="move" name="top_dd"/>
    </contour>
    <contour>
      <point x="981" y="-407" type="move" name="bottom_dd"/>
    </contour>
    <contour>
      <point x="981" y="1290" type="move" name="top0315"/>
    </contour>
    <contour>
      <point x="505.0" y="899.0" type="curve" smooth="yes"/>
      <point x="600" y="899"/>
      <point x="647" y="848"/>
      <point x="647" y="700" type="curve" smooth="yes"/>
      <point x="647" y="0" type="line"/>
      <point x="887" y="0" type="line"/>
      <point x="887" y="698" type="line" smooth="yes"/>
      <point x="887" y="994"/>
      <point x="771" y="1102"/>
      <point x="598" y="1102" type="curve" smooth="yes"/>
      <point x="494.859022" y="1102.0"/>
      <point x="407.691109079274" y="1056.455179300989"/>
      <point x="344.4189453125" y="976.0873870849609" type="curve"/>
      <point x="338" y="1082" type="line"/>
      <point x="112" y="1082" type="line"/>
      <point x="112" y="0" type="line"/>
      <point x="352" y="0" type="line"/>
      <point x="352" y="787.7870635986328" type="line"/>
      <point x="386.586454074278" y="856.260755040179"/>
      <point x="440.034038" y="899.0"/>
    </contour>
  </outline>
</glyph>
<glyph name="o" format="1">
  <advance width="1026"/>
  <unicode hex="006F"/>
  <outline>
    <contour>
      <point x="505" y="1290" type="move" name="top"/>
    </contour>
    <contour>
      <point x="511" y="-4" type="move" name="bottom"/>
    </contour>
    <contour>
      <point x="1005" y="1600" type="move" name="top_dd"/>
    </contour>
    <contour>
      <point x="1005" y="-407" type="move" name="bottom_dd"/>
    </contour>
    <contour>
      <point x="840" y="654" type="move" name="rhotichook"/>
    </contour>
    <contour>
      <point x="1005" y="1290" type="move" name="top0315"/>
    </contour>
    <contour>
      <point x="81" y="498" type="line"/>
      <point x="81" y="159"/>
      <point x="261" y="-20"/>
      <point x="513" y="-20" type="curve" smooth="yes"/>
      <point x="765" y="-20"/>
      <point x="944" y="159"/>
      <point x="944" y="498" type="curve"/>
      <point x="944" y="583" type="line"/>
      <point x="944" y="922"/>
      <point x="765" y="1102"/>
      <point x="511" y="1102" type="curve" smooth="yes"/>
      <point x="261" y="1102"/>
      <point x="81" y="922"/>
      <point x="81" y="583" type="curve"/>
    </contour>
    <contour>
      <point x="321" y="583" type="line"/>
      <point x="321" y="798"/>
      <point x="401" y="902"/>
      <point x="511" y="902" type="curve" smooth="yes"/>
      <point x="624" y="902"/>
      <point x="704" y="798"/>
      <point x="704" y="583" type="curve"/>
      <point x="704" y="498" type="line"/>
      <point x="704" y="280"/>
      <point x="640" y="180"/>
      <point x="513" y="180" type="curve" smooth="yes"/>
      <point x="400" y="180"/>
      <point x="321" y="280"/>
      <point x="321" y="498" type="curve"/>
    </contour>
  </outline>
</glyph>
<glyph name="p" format="1">
  <advance width="1014"/>
  <unicode hex="0070"/>
  <outline>
    <contour>
      <point x="577" y="1280" type="move" name="top"/>
    </contour>
    <contour>
      <point x="234" y="-407" type="move" name="bottom"/>
    </contour>
    <contour>
      <point x="577" y="1280" type="move" name="marktop"/>
    </contour>
    <contour>
      <point x="994" y="1600" type="move" name="top_dd"/>
    </contour>
    <contour>
      <point x="994" y="-407" type="move" name="bottom_dd"/>
    </contour>
    <contour>
      <point x="994" y="1280" type="move" name="top0315"/>
    </contour>
    <contour>
      <point x="583.0" y="-19.999999999999943" type="curve" smooth="yes"/>
      <point x="813" y="-20"/>
      <point x="935" y="158"/>
      <point x="935" y="499" type="curve" smooth="yes"/>
      <point x="935" y="584" type="line"/>
      <point x="935" y="939"/>
      <point x="814" y="1102"/>
      <point x="581" y="1102" type="curve" smooth="yes"/>
      <point x="476.879607" y="1102.0"/>
      <point x="400.505001961125" y="1056.718874047444"/>
      <point x="346.1244125366211" y="976.7060852050781" type="curve"/>
      <point x="336" y="1082" type="line"/>
      <point x="116" y="1082" type="line"/>
      <point x="116" y="-416" type="line"/>
      <point x="356" y="-416" type="line"/>
      <point x="356" y="91.93234252929688" type="line"/>
      <point x="409.84694229171197" y="20.79460009062403"/>
      <point x="483.725152" y="-19.999999999999964"/>
    </contour>
    <contour>
      <point x="508.0" y="899.0" type="curve" smooth="yes"/>
      <point x="642" y="899"/>
      <point x="695" y="803"/>
      <point x="695" y="584" type="curve" smooth="yes"/>
      <point x="695" y="499" type="line"/>
      <point x="695" y="282"/>
      <point x="643" y="180"/>
      <point x="509" y="180" type="curve" smooth="yes"/>
      <point x="432.51372" y="180.0"/>
      <point x="385.45127653256" y="216.693254970016"/>
      <point x="356" y="272.9980010986328" type="curve"/>
      <point x="356" y="803.874626159668" type="line"/>
      <point x="387.230455874492" y="862.856236397664"/>
      <point x="436.667838" y="899.0"/>
    </contour>
  </outline>
</glyph>
<glyph name="q" format="1">
  <advance width="1023"/>
  <unicode hex="0071"/>
  <outline>
    <contour>
      <point x="471" y="1290" type="move" name="top"/>
    </contour>
    <contour>
      <point x="779" y="-407" type="move" name="bottom"/>
    </contour>
    <contour>
      <point x="471" y="1290" type="move" name="marktop"/>
    </contour>
    <contour>
      <point x="1003" y="1600" type="move" name="top_dd"/>
    </contour>
    <contour>
      <point x="1003" y="-407" type="move" name="bottom_dd"/>
    </contour>
    <contour>
      <point x="1003" y="1290" type="move" name="top0315"/>
    </contour>
    <contour>
      <point x="897" y="1082" type="line"/>
      <point x="683" y="1082" type="line"/>
      <point x="670.11279296875" y="978.9023742675781" type="line"/>
      <point x="616.0860517422241" y="1057.49868554158"/>
      <point x="540.50196" y="1102.0"/>
      <point x="438.00000000000006" y="1102.0" type="curve" smooth="yes"/>
      <point x="206" y="1102"/>
      <point x="78" y="938"/>
      <point x="78" y="583" type="curve" smooth="yes"/>
      <point x="78" y="498" type="line"/>
      <point x="78" y="158"/>
      <point x="207" y="-20"/>
      <point x="437" y="-20" type="curve" smooth="yes"/>
      <point x="531.6033" y="-20.0"/>
      <point x="603.092487471875" y="18.646796147024993"/>
      <point x="656" y="86.40360260009766" type="curve"/>
      <point x="656" y="-416" type="line"/>
      <point x="897" y="-416" type="line"/>
    </contour>
    <contour>
      <point x="318" y="498" type="curve" smooth="yes"/>
      <point x="318" y="583" type="line"/>
      <point x="318" y="801"/>
      <point x="372" y="902"/>
      <point x="506" y="902" type="curve" smooth="yes"/>
      <point x="574.7165" y="902.0"/>
      <point x="623.763465125" y="867.73693925"/>
      <point x="656" y="812.2285614013672" type="curve"/>
      <point x="656" y="269.26187896728516" type="line"/>
      <point x="625.2282448947079" y="214.571962198516"/>
      <point x="577.7768419999999" y="180.0"/>
      <point x="504.0" y="180.0" type="curve" smooth="yes"/>
      <point x="370" y="180"/>
      <point x="318" y="282"/>
    </contour>
  </outline>
</glyph>
<glyph name="r" format="1">
  <advance width="654"/>
  <unicode hex="0072"/>
  <outline>
    <contour>
      <point x="363" y="1290" type="move" name="top"/>
    </contour>
    <contour>
      <point x="244" y="10" type="move" name="bottom"/>
    </contour>
    <contour>
      <point x="634" y="1600" type="move" name="top_dd"/>
    </contour>
    <contour>
      <point x="634" y="-407" type="move" name="bottom_dd"/>
    </contour>
    <contour>
      <point x="634" y="1290" type="move" name="top0315"/>
    </contour>
    <contour>
      <point x="523.0" y="862.0000000000001" type="curve"/>
      <point x="553" y="862"/>
      <point x="584" y="859"/>
      <point x="611" y="854" type="curve"/>
      <point x="612" y="1089" type="line"/>
      <point x="598" y="1096"/>
      <point x="560" y="1102"/>
      <point x="538" y="1102" type="curve"/>
      <point x="455.489899" y="1102.0"/>
      <point x="392.997061373272" y="1054.004061684541"/>
      <point x="350.19600677490234" y="974.6025543212891" type="curve"/>
      <point x="344" y="1082" type="line"/>
      <point x="115" y="1082" type="line"/>
      <point x="115" y="0" type="line"/>
      <point x="356" y="0" type="line"/>
      <point x="356" y="745.5723114013672" type="line"/>
      <point x="385.05335741434" y="819.3511260199241"/>
      <point x="438.794938" y="862.0000000000001"/>
    </contour>
  </outline>
</glyph>
<glyph name="s" format="1">
  <advance width="934"/>
  <unicode hex="0073"/>
  <outline>
    <contour>
      <point x="485" y="1290" type="move" name="top"/>
    </contour>
    <contour>
      <point x="485" y="-10" type="move" name="bottom"/>
    </contour>
    <contour>
      <point x="914" y="1600" type="move" name="top_dd"/>
    </contour>
    <contour>
      <point x="914" y="-407" type="move" name="bottom_dd"/>
    </contour>
    <contour>
      <point x="914" y="1290" type="move" name="top0315"/>
    </contour>
    <contour>
      <point x="615" y="285" type="curve" smooth="yes"/>
      <point x="615" y="208"/>
      <point x="567" y="165"/>
      <point x="474" y="165" type="curve" smooth="yes"/>
      <point x="391" y="165"/>
      <point x="314" y="200"/>
      <point x="310" y="332" type="curve"/>
      <point x="78" y="332" type="line"/>
      <point x="78" y="154"/>
      <point x="215" y="-20"/>
      <point x="471" y="-20" type="curve" smooth="yes"/>
      <point x="701" y="-20"/>
      <point x="850" y="106"/>
      <point x="850" y="298" type="curve"/>
      <point x="850" y="475"/>
      <point x="743" y="557"/>
      <point x="523" y="640" type="curve" smooth="yes"/>
      <point x="383" y="700"/>
      <point x="342" y="728"/>
      <point x="342" y="794" type="curve"/>
      <point x="342" y="865"/>
      <point x="385" y="917"/>
      <point x="469" y="917" type="curve" smooth="yes"/>
      <point x="559" y="917"/>
      <point x="603" y="851"/>
      <point x="603" y="767" type="curve"/>
      <point x="843" y="767" type="line"/>
      <point x="843" y="962"/>
      <point x="703" y="1102"/>
      <point x="469" y="1102" type="curve" smooth="yes"/>
      <point x="247" y="1102"/>
      <point x="108" y="960"/>
      <point x="108" y="783" type="curve"/>
      <point x="108" y="609"/>
      <point x="222" y="532"/>
      <point x="421" y="452" type="curve" smooth="yes"/>
      <point x="561" y="391"/>
      <point x="615" y="352"/>
    </contour>
  </outline>
</glyph>
<glyph name="t" format="1">
  <advance width="620"/>
  <unicode hex="0074"/>
  <outline>
    <contour>
      <point x="398" y="0" type="move" name="bottom"/>
    </contour>
    <contour>
      <point x="518" y="1666" type="move" name="caron"/>
    </contour>
    <contour>
      <point x="273" y="645" type="move" name="cross"/>
    </contour>
    <contour>
      <point x="304" y="1476" type="move" name="top"/>
    </contour>
    <contour>
      <point x="565" y="1329" type="move" name="marktop"/>
    </contour>
    <contour>
      <point x="600" y="1600" type="move" name="top_dd"/>
    </contour>
    <contour>
      <point x="600" y="-407" type="move" name="bottom_dd"/>
    </contour>
    <contour>
      <point x="600" y="1476" type="move" name="top0315"/>
    </contour>
    <contour>
      <point x="558" y="4" type="curve"/>
      <point x="560" y="196" type="line"/>
      <point x="548" y="192"/>
      <point x="519" y="186"/>
      <point x="492" y="186" type="curve" smooth="yes"/>
      <point x="439" y="186"/>
      <point x="406" y="206"/>
      <point x="406" y="303" type="curve"/>
      <point x="406" y="898" type="line"/>
      <point x="557" y="898" type="line"/>
      <point x="557" y="1082" type="line"/>
      <point x="406" y="1082" type="line"/>
      <point x="406" y="1346" type="line"/>
      <point x="166" y="1346" type="line"/>
      <point x="166" y="1082" type="line"/>
      <point x="22" y="1082" type="line"/>
      <point x="22" y="898" type="line"/>
      <point x="166" y="898" type="line"/>
      <point x="166" y="286" type="line"/>
      <point x="166" y="62"/>
      <point x="272" y="-20"/>
      <point x="415" y="-20" type="curve" smooth="yes"/>
      <point x="481" y="-20"/>
      <point x="524" y="-9"/>
    </contour>
  </outline>
</glyph>
<glyph name="u" format="1">
  <advance width="1000"/>
  <unicode hex="0075"/>
  <outline>
    <contour>
      <point x="497" y="1290" type="move" name="top"/>
    </contour>
    <contour>
      <point x="864" y="0" type="move" name="ogonek"/>
    </contour>
    <contour>
      <point x="426" y="0" type="move" name="bottomu"/>
    </contour>
    <contour>
      <point x="980" y="1600" type="move" name="top_dd"/>
    </contour>
    <contour>
      <point x="980" y="-407" type="move" name="bottom_dd"/>
    </contour>
    <contour>
      <point x="796" y="654" type="move" name="rhotichook"/>
    </contour>
    <contour>
      <point x="980" y="1290" type="move" name="top0315"/>
    </contour>
    <contour>
      <point x="498" y="0" type="move" name="bottom"/>
    </contour>
    <contour>
      <point x="660" y="0" type="line"/>
      <point x="886" y="0" type="line"/>
      <point x="886" y="1082" type="line"/>
      <point x="646" y="1082" type="line"/>
      <point x="646" y="291.94051361083984" type="line"/>
      <point x="614.729988294048" y="225.28563009870402"/>
      <point x="559.68722" y="184.00000000000003"/>
      <point x="472.0" y="184.00000000000003" type="curve" smooth="yes"/>
      <point x="409" y="184"/>
      <point x="351" y="229"/>
      <point x="351" y="381" type="curve"/>
      <point x="351" y="1082" type="line"/>
      <point x="111" y="1082" type="line"/>
      <point x="111" y="383" type="line"/>
      <point x="111" y="96"/>
      <point x="232" y="-20"/>
      <point x="411" y="-20" type="curve" smooth="yes"/>
      <point x="519.151048" y="-20.0"/>
      <point x="599.207819709348" y="22.043182700696"/>
      <point x="654.8275909423828" y="94.21168518066406" type="curve"/>
    </contour>
  </outline>
</glyph>
<glyph name="v" format="1">
  <advance width="900"/>
  <unicode hex="0076"/>
  <outline>
    <contour>
      <point x="455" y="1280" type="move" name="top"/>
    </contour>
    <contour>
      <point x="455" y="10" type="move" name="bottom"/>
    </contour>
    <contour>
      <point x="880" y="1600" type="move" name="top_dd"/>
    </contour>
    <contour>
      <point x="880" y="-407" type="move" name="bottom_dd"/>
    </contour>
    <contour>
      <point x="880" y="1280" type="move" name="top0315"/>
    </contour>
    <contour>
      <point x="861" y="1082" type="line"/>
      <point x="613" y="1082" type="line"/>
      <point x="450.62989807128906" y="345.9221954345703" type="line"/>
      <point x="283" y="1082" type="line"/>
      <point x="35" y="1082" type="line"/>
      <point x="344" y="0" type="line"/>
      <point x="555" y="0" type="line"/>
    </contour>
  </outline>
</glyph>
<glyph name="w" format="1">
  <advance width="1312"/>
  <unicode hex="0077"/>
  <outline>
    <contour>
      <point x="653" y="1290" type="move" name="top"/>
    </contour>
    <contour>
      <point x="656" y="10" type="move" name="bottom"/>
    </contour>
    <contour>
      <point x="653" y="1290" type="move" name="marktop"/>
    </contour>
    <contour>
      <point x="1292" y="1600" type="move" name="top_dd"/>
    </contour>
    <contour>
      <point x="1292" y="-407" type="move" name="bottom_dd"/>
    </contour>
    <contour>
      <point x="1292" y="1290" type="move" name="top0315"/>
    </contour>
    <contour>
      <point x="1270" y="1082" type="line"/>
      <point x="1038" y="1082" type="line"/>
      <point x="913.4942474365234" y="408.8656921386719" type="line"/>
      <point x="744" y="1082" type="line"/>
      <point x="566" y="1082" type="line"/>
      <point x="399.1108627319336" y="420.71158599853516" type="line"/>
      <point x="272" y="1082" type="line"/>
      <point x="40" y="1082" type="line"/>
      <point x="283" y="0" type="line"/>
      <point x="479" y="0" type="line"/>
      <point x="653.8696746826172" y="682.9815673828125" type="line"/>
      <point x="831" y="0" type="line"/>
      <point x="1028" y="0" type="line"/>
    </contour>
  </outline>
</glyph>
<glyph name="x" format="1">
  <advance width="916"/>
  <unicode hex="0078"/>
  <outline>
    <contour>
      <point x="456" y="10" type="move" name="bottom"/>
    </contour>
    <contour>
      <point x="745" y="0" type="move" name="right"/>
    </contour>
    <contour>
      <point x="457" y="552" type="move" name="cross"/>
    </contour>
    <contour>
      <point x="456" y="1280" type="move" name="top"/>
    </contour>
    <contour>
      <point x="896" y="1600" type="move" name="top_dd"/>
    </contour>
    <contour>
      <point x="896" y="-407" type="move" name="bottom_dd"/>
    </contour>
    <contour>
      <point x="896" y="1280" type="move" name="top0315"/>
    </contour>
    <contour>
      <point x="313" y="1082" type="line"/>
      <point x="50" y="1082" type="line"/>
      <point x="316" y="550" type="line"/>
      <point x="41" y="0" type="line"/>
      <point x="306" y="0" type="line"/>
      <point x="459" y="366" type="line"/>
      <point x="614" y="0" type="line"/>
      <point x="876" y="0" type="line"/>
      <point x="601" y="550" type="line"/>
      <point x="868" y="1082" type="line"/>
      <point x="604" y="1082" type="line"/>
      <point x="457" y="731" type="line"/>
    </contour>
  </outline>
</glyph>
<glyph name="y" format="1">
  <advance width="885"/>
  <unicode hex="0079"/>
  <outline>
    <contour>
      <point x="452" y="1290" type="move" name="top"/>
    </contour>
    <contour>
      <point x="663" y="-132" type="move" name="bottom"/>
    </contour>
    <contour>
      <point x="452" y="1290" type="move" name="marktop"/>
    </contour>
    <contour>
      <point x="865" y="1600" type="move" name="top_dd"/>
    </contour>
    <contour>
      <point x="865" y="-407" type="move" name="bottom_dd"/>
    </contour>
    <contour>
      <point x="670" y="654" type="move" name="rhotichook"/>
    </contour>
    <contour>
      <point x="865" y="1290" type="move" name="top0315"/>
    </contour>
    <contour>
      <point x="503" y="-164" type="curve" smooth="yes"/>
      <point x="857" y="1082" type="line"/>
      <point x="601" y="1082" type="line"/>
      <point x="438.85306549072266" y="400.13319396972656" type="line"/>
      <point x="284" y="1082" type="line"/>
      <point x="24" y="1082" type="line"/>
      <point x="336.85205078125" y="-0.272552490234375" type="line"/>
      <point x="311" y="-88" type="line" smooth="yes"/>
      <point x="283" y="-193"/>
      <point x="238" y="-230"/>
      <point x="141" y="-230" type="curve" smooth="yes"/>
      <point x="131" y="-230"/>
      <point x="116" y="-229"/>
      <point x="107" y="-228" type="curve"/>
      <point x="107" y="-419" type="line"/>
      <point x="138" y="-428"/>
      <point x="172" y="-437"/>
      <point x="212" y="-437" type="curve" smooth="yes"/>
      <point x="395" y="-437"/>
      <point x="470" y="-272"/>
    </contour>
  </outline>
</glyph>
<glyph name="z" format="1">
  <advance width="916"/>
  <unicode hex="007A"/>
  <outline>
    <contour>
      <point x="457" y="1290" type="move" name="top"/>
    </contour>
    <contour>
      <point x="459" y="10" type="move" name="bottom"/>
    </contour>
    <contour>
      <point x="896" y="1600" type="move" name="top_dd"/>
    </contour>
    <contour>
      <point x="896" y="-407" type="move" name="bottom_dd"/>
    </contour>
    <contour>
      <point x="896" y="1290" type="move" name="top0315"/>
    </contour>
    <contour>
      <point x="93" y="881" type="line"/>
      <point x="537.1565246582031" y="881" type="line"/>
      <point x="87" y="162" type="line"/>
      <point x="87" y="0" type="line"/>
      <point x="833" y="0" type="line"/>
      <point x="833" y="200" type="line"/>
      <point x="367.26998138427734" y="200" type="line"/>
      <point x="822" y="926" type="line"/>
      <point x="822" y="1082" type="line"/>
      <point x="93" y="1082" type="line"/>
    </contour>
  </outline>
</glyph>
<glyph name="braceleft" format="1">
  <advance width="620"/>
  <unicode hex="007B"/>
  <outline>
    <contour>
      <point x="215" y="309" type="curve" smooth="yes"/>
      <point x="215" y="106" type="line" smooth="yes"/>
      <point x="215" y="-104"/>
      <point x="288" y="-283"/>
      <point x="524" y="-360" type="curve"/>
      <point x="570" y="-217" type="line"/>
      <point x="465" y="-171"/>
      <point x="439" y="-45"/>
      <point x="439" y="106" type="curve" smooth="yes"/>
      <point x="439" y="309" type="line" smooth="yes"/>
      <point x="439.0" y="441.4981"/>
      <point x="392.56411539" y="555.67745653"/>
      <point x="286.06746673583984" y="618.998664855957" type="curve"/>
      <point x="392.56411539000004" y="682.32254347"/>
      <point x="439.00000000000006" y="796.5019000000001"/>
      <point x="439.0" y="929.0" type="curve"/>
      <point x="439" y="1132" type="line"/>
      <point x="439" y="1283"/>
      <point x="466" y="1409"/>
      <point x="570" y="1455" type="curve"/>
      <point x="524" y="1597" type="line"/>
      <point x="288" y="1520"/>
      <point x="215" y="1342"/>
      <point x="215" y="1132" type="curve"/>
      <point x="215" y="929" type="line"/>
      <point x="215" y="795"/>
      <point x="170" y="710"/>
      <point x="63" y="710" type="curve"/>
      <point x="63" y="528" type="line"/>
      <point x="170" y="528"/>
      <point x="215" y="442"/>
    </contour>
  </outline>
</glyph>
<glyph name="braceright" format="1">
  <advance width="620"/>
  <unicode hex="007D"/>
  <outline>
    <contour>
      <point x="404" y="929" type="curve" smooth="yes"/>
      <point x="404" y="1132" type="line" smooth="yes"/>
      <point x="404" y="1342"/>
      <point x="331" y="1520"/>
      <point x="95" y="1597" type="curve"/>
      <point x="48" y="1455" type="line"/>
      <point x="152" y="1409"/>
      <point x="180" y="1283"/>
      <point x="180" y="1132" type="curve" smooth="yes"/>
      <point x="180" y="929" type="line" smooth="yes"/>
      <point x="180.0" y="793.048667"/>
      <point x="228.887897763789" y="679.074462352529"/>
      <point x="341.0818557739258" y="618.6282043457031" type="curve"/>
      <point x="228.887897763789" y="558.4770248239499"/>
      <point x="179.99999999999997" y="444.9513329999999"/>
      <point x="179.99999999999994" y="309.0" type="curve" smooth="yes"/>
      <point x="180" y="106" type="line" smooth="yes"/>
      <point x="180" y="-45"/>
      <point x="154" y="-171"/>
      <point x="49" y="-217" type="curve"/>
      <point x="95" y="-360" type="line"/>
      <point x="331" y="-283"/>
      <point x="404" y="-104"/>
      <point x="404" y="106" type="curve" smooth="yes"/>
      <point x="404" y="309" type="line" smooth="yes"/>
      <point x="404" y="442"/>
      <point x="448" y="528"/>
      <point x="555" y="528" type="curve"/>
      <point x="555" y="710" type="line"/>
      <point x="448" y="710"/>
      <point x="404" y="795"/>
    </contour>
  </outline>
</glyph>
<glyph name="asciitilde" format="1">
  <advance width="1171"/>
  <unicode hex="007E"/>
  <outline>
    <contour>
      <point x="880" y="787" type="line"/>
      <point x="880" y="676"/>
      <point x="831" y="594"/>
      <point x="765" y="594" type="curve" smooth="yes"/>
      <point x="722" y="594"/>
      <point x="685" y="624"/>
      <point x="639" y="683" type="curve" smooth="yes"/>
      <point x="562" y="770"/>
      <point x="490" y="817"/>
      <point x="398" y="817" type="curve" smooth="yes"/>
      <point x="234" y="817"/>
      <point x="110" y="660"/>
      <point x="110" y="424" type="curve"/>
      <point x="298" y="424" type="line"/>
      <point x="298" y="534"/>
      <point x="339" y="610"/>
      <point x="406" y="610" type="curve" smooth="yes"/>
      <point x="449" y="610"/>
      <point x="489" y="578"/>
      <point x="533" y="521" type="curve" smooth="yes"/>
      <point x="615" y="430"/>
      <point x="681" y="386"/>
      <point x="773" y="386" type="curve" smooth="yes"/>
      <point x="937" y="386"/>
      <point x="1062" y="555"/>
      <point x="1062" y="788" type="curve"/>
    </contour>
  </outline>
</glyph>
<glyph name="exclamdown" format="1">
  <advance width="523"/>
  <unicode hex="00A1"/>
  <outline>
    <contour>
      <point x="395" y="968" type="curve" smooth="yes"/>
      <point x="395" y="1043"/>
      <point x="346" y="1101"/>
      <point x="263" y="1101" type="curve" smooth="yes"/>
      <point x="179" y="1101"/>
      <point x="131" y="1043"/>
      <point x="131" y="968" type="curve" smooth="yes"/>
      <point x="131" y="893"/>
      <point x="179" y="834"/>
      <point x="263" y="834" type="curve" smooth="yes"/>
      <point x="346" y="834"/>
      <point x="395" y="893"/>
    </contour>
    <contour>
      <point x="137" y="-365" type="line"/>
      <point x="391" y="-365" type="line"/>
      <point x="366" y="659" type="line"/>
      <point x="162" y="659" type="line"/>
    </contour>
  </outline>
</glyph>
<glyph name="cent" format="1">
  <advance width="1016"/>
  <unicode hex="00A2"/>
  <outline>
    <contour>
      <point x="899.9999999999999" y="360.0" type="curve"/>
      <point x="675" y="360" type="line"/>
      <point x="671" y="255"/>
      <point x="608" y="180"/>
      <point x="519" y="180" type="curve" smooth="yes"/>
      <point x="366" y="180"/>
      <point x="340" y="350"/>
      <point x="340" y="524" type="curve" smooth="yes"/>
      <point x="340" y="558" type="line" smooth="yes"/>
      <point x="340" y="729"/>
      <point x="368" y="902"/>
      <point x="519" y="902" type="curve"/>
      <point x="621" y="902"/>
      <point x="670" y="807"/>
      <point x="675" y="693" type="curve"/>
      <point x="900" y="693" type="line"/>
      <point x="896.552932" y="901.547614"/>
      <point x="788.3932909172511" y="1054.397050828325"/>
      <point x="612" y="1092.660545349121" type="curve"/>
      <point x="612" y="1318" type="line"/>
      <point x="421" y="1318" type="line"/>
      <point x="421" y="1090.8079223632812" type="line"/>
      <point x="202.31638197174001" y="1039.595588277552"/>
      <point x="99.00000000000001" y="818.6957639999999"/>
      <point x="99.0" y="557.9999999999998" type="curve" smooth="yes"/>
      <point x="99" y="524" type="line" smooth="yes"/>
      <point x="99.0" y="263.304236"/>
      <point x="202.31638197174" y="42.40441172244803"/>
      <point x="421" y="-8.814559936523438" type="curve"/>
      <point x="421" y="-245" type="line"/>
      <point x="612" y="-245" type="line"/>
      <point x="612" y="-9.102607727050781" type="line"/>
      <point x="775.978378923102" y="31.426592501417996"/>
      <point x="896.5975080000001" y="180.51854699999998"/>
    </contour>
  </outline>
</glyph>
<glyph name="sterling" format="1">
  <advance width="1063"/>
  <unicode hex="00A3"/>
  <outline>
    <contour>
      <point x="103" y="0" type="line"/>
      <point x="1000" y="0" type="line"/>
      <point x="1000" y="208" type="line"/>
      <point x="427.1135940551758" y="208" type="line"/>
      <point x="467.37883651940297" y="265.571982812263"/>
      <point x="484.336391" y="339.721657"/>
      <point x="485.0" y="423.99999999999994" type="curve" smooth="yes"/>
      <point x="479.40650177001953" y="596" type="line"/>
      <point x="724" y="596" type="line"/>
      <point x="724" y="800" type="line"/>
      <point x="472.77235412597656" y="800" type="line"/>
      <point x="465" y="1039" type="line"/>
      <point x="465" y="1188"/>
      <point x="527" y="1268"/>
      <point x="601" y="1268" type="curve" smooth="yes"/>
      <point x="676" y="1268"/>
      <point x="745" y="1216"/>
      <point x="745" y="1071" type="curve"/>
      <point x="987" y="1071" type="line"/>
      <point x="987" y="1313"/>
      <point x="850" y="1476"/>
      <point x="610" y="1476" type="curve" smooth="yes"/>
      <point x="380" y="1476"/>
      <point x="215" y="1315"/>
      <point x="215" y="1039" type="curve" smooth="yes"/>
      <point x="221.51121520996094" y="800" type="line"/>
      <point x="100" y="800" type="line"/>
      <point x="100" y="596" type="line"/>
      <point x="227.06890869140625" y="596" type="line"/>
      <point x="232" y="415" type="line" smooth="yes"/>
      <point x="232" y="333"/>
      <point x="221" y="224"/>
      <point x="167" y="208" type="curve"/>
      <point x="103" y="208" type="line"/>
    </contour>
  </outline>
</glyph>
<glyph name="currency" format="1">
  <advance width="1435"/>
  <unicode hex="00A4"/>
  <outline>
    <contour>
      <point x="1358" y="118" type="line"/>
      <point x="1218.9148712158203" y="259.15074920654297" type="line"/>
      <point x="1280.9255125968639" y="358.11855789568"/>
      <point x="1317.0" y="477.634544"/>
      <point x="1317.0" y="608.0" type="curve" smooth="yes"/>
      <point x="1317.0" y="744.5095699999999"/>
      <point x="1277.667538356504" y="868.5983626388959"/>
      <point x="1210.5449600219727" y="969.6250610351562" type="curve"/>
      <point x="1358" y="1120" type="line"/>
      <point x="1216" y="1265" type="line"/>
      <point x="1071.391227722168" y="1117.527687072754" type="line"/>
      <point x="973.3312875413129" y="1191.275695201521"/>
      <point x="852.6317529999999" y="1234.0"/>
      <point x="722.0" y="1234.0" type="curve" smooth="yes"/>
      <point x="592.67944" y="1234.0"/>
      <point x="472.8412588069" y="1191.8733662841"/>
      <point x="375.1113052368164" y="1119.074607849121" type="curve"/>
      <point x="233" y="1264" type="line"/>
      <point x="92" y="1120" type="line"/>
      <point x="236.0535888671875" y="973.093864440918" type="line"/>
      <point x="167.39149057457195" y="871.4442247630559"/>
      <point x="126.99999999999994" y="746.0758299999999"/>
      <point x="126.99999999999996" y="608.0" type="curve"/>
      <point x="127.0" y="476.07198800000003"/>
      <point x="164.083334079628" y="355.25508733472003"/>
      <point x="227.5872344970703" y="255.6009063720703" type="curve"/>
      <point x="92" y="118" type="line"/>
      <point x="233" y="-26" type="line"/>
      <point x="362.2551574707031" y="105.81466674804688" type="line"/>
      <point x="462.24351409211596" y="26.449818971144012"/>
      <point x="586.951248" y="-19.999999999999986"/>
      <point x="722.0" y="-19.999999999999986" type="curve" smooth="yes"/>
      <point x="858.3731319999999" y="-20.0"/>
      <point x="983.9218004299679" y="27.07782568553599"/>
      <point x="1084.188621520996" y="107.42150115966797" type="curve"/>
      <point x="1216" y="-27" type="line"/>
    </contour>
    <contour>
      <point x="312" y="608" type="curve"/>
      <point x="312" y="854"/>
      <point x="495" y="1048"/>
      <point x="722" y="1048" type="curve" smooth="yes"/>
      <point x="949" y="1048"/>
      <point x="1131" y="854"/>
      <point x="1131" y="608" type="curve" smooth="yes"/>
      <point x="1131" y="362"/>
      <point x="949" y="166"/>
      <point x="722" y="166" type="curve" smooth="yes"/>
      <point x="495" y="166"/>
      <point x="312" y="362"/>
    </contour>
  </outline>
</glyph>
<glyph name="yen" format="1">
  <advance width="964"/>
  <unicode hex="00A5"/>
  <outline>
    <contour>
      <point x="842" y="298" type="line"/>
      <point x="842" y="452" type="line"/>
      <point x="604" y="452" type="line"/>
      <point x="604" y="587" type="line"/>
      <point x="842" y="587" type="line"/>
      <point x="842" y="742" type="line"/>
      <point x="658.5733795166016" y="742" type="line"/>
      <point x="938" y="1456" type="line"/>
      <point x="673" y="1456" type="line"/>
      <point x="483.9628143310547" y="908.1488418579102" type="line"/>
      <point x="295" y="1456" type="line"/>
      <point x="27" y="1456" type="line"/>
      <point x="307.23890686035156" y="742" type="line"/>
      <point x="109" y="742" type="line"/>
      <point x="109" y="587" type="line"/>
      <point x="354" y="587" type="line"/>
      <point x="354" y="452" type="line"/>
      <point x="109" y="452" type="line"/>
      <point x="109" y="298" type="line"/>
      <point x="354" y="298" type="line"/>
      <point x="354" y="0" type="line"/>
      <point x="604" y="0" type="line"/>
      <point x="604" y="298" type="line"/>
    </contour>
  </outline>
</glyph>
<glyph name="section" format="1">
  <advance width="1119"/>
  <unicode hex="00A7"/>
  <outline>
    <contour>
      <point x="984" y="-101" type="curve" smooth="yes"/>
      <point x="984.0" y="32.81890000000001"/>
      <point x="943.5170748852" y="121.47317606240001"/>
      <point x="867.4649124145508" y="187.50770568847656" type="curve"/>
      <point x="959.1436373330371" y="243.637806032898"/>
      <point x="1012.0000000000001" y="335.429567"/>
      <point x="1012.0" y="459.0" type="curve"/>
      <point x="1012" y="704"/>
      <point x="868" y="803"/>
      <point x="614" y="883" type="curve" smooth="yes"/>
      <point x="411" y="952"/>
      <point x="363" y="991"/>
      <point x="363" y="1103" type="curve"/>
      <point x="363" y="1198"/>
      <point x="422" y="1277"/>
      <point x="558" y="1277" type="curve" smooth="yes"/>
      <point x="686" y="1277"/>
      <point x="754" y="1175"/>
      <point x="754" y="1048" type="curve"/>
      <point x="994" y="1048" type="line"/>
      <point x="994" y="1324"/>
      <point x="828" y="1477"/>
      <point x="558" y="1477" type="curve" smooth="yes"/>
      <point x="293" y="1477"/>
      <point x="122" y="1328"/>
      <point x="122" y="1101" type="curve"/>
      <point x="122.0" y="968.698258"/>
      <point x="163.238919683608" y="880.077213822769"/>
      <point x="238.5093994140625" y="813.946662902832" type="curve"/>
      <point x="147.37566504934404" y="756.671777704832"/>
      <point x="95.00000000000006" y="663.1012880000001"/>
      <point x="95.00000000000007" y="542.0" type="curve" smooth="yes"/>
      <point x="95" y="296"/>
      <point x="240" y="196"/>
      <point x="489" y="117" type="curve"/>
      <point x="683" y="46"/>
      <point x="744" y="0"/>
      <point x="744" y="-102" type="curve" smooth="yes"/>
      <point x="744" y="-201"/>
      <point x="675" y="-271"/>
      <point x="550" y="-271" type="curve" smooth="yes"/>
      <point x="445" y="-271"/>
      <point x="332" y="-221"/>
      <point x="332" y="-47" type="curve"/>
      <point x="92" y="-48" type="line"/>
      <point x="92" y="-370"/>
      <point x="323" y="-472"/>
      <point x="550" y="-472" type="curve" smooth="yes"/>
      <point x="813" y="-472"/>
      <point x="984" y="-338"/>
    </contour>
    <contour>
      <point x="577.0000000000001" y="328.0" type="curve" smooth="yes"/>
      <point x="380" y="401"/>
      <point x="335" y="443"/>
      <point x="335" y="559" type="curve" smooth="yes"/>
      <point x="335.0" y="629.121792"/>
      <point x="356.821297544192" y="686.514493765888"/>
      <point x="404.7552719116211" y="716.43896484375" type="curve"/>
      <point x="442.288888014656" y="700.771028199616"/>
      <point x="483.125752" y="686.220112"/>
      <point x="527.0" y="672.0" type="curve" smooth="yes"/>
      <point x="716" y="598"/>
      <point x="774" y="547"/>
      <point x="774" y="442" type="curve"/>
      <point x="774.0" y="372.338164"/>
      <point x="746.9569495312151" y="315.989829769248"/>
      <point x="698.238037109375" y="284.7764587402344" type="curve"/>
      <point x="661.1176631127001" y="299.9047635832"/>
      <point x="620.6514000000002" y="314.06513"/>
    </contour>
  </outline>
</glyph>
<glyph name="dieresis" format="1">
  <advance width="909"/>
  <unicode hex="00A8"/>
  <outline>
    <contour>
      <point x="451" y="1290" type="move" name="_top"/>
    </contour>
    <contour>
      <point x="451" y="1592" type="move" name="mkmktop_acc"/>
    </contour>
    <contour>
      <point x="94" y="1366" type="curve" smooth="yes"/>
      <point x="94" y="1300"/>
      <point x="143" y="1248"/>
      <point x="222" y="1248" type="curve" smooth="yes"/>
      <point x="300" y="1248"/>
      <point x="350" y="1300"/>
      <point x="350" y="1366" type="curve" smooth="yes"/>
      <point x="350" y="1433"/>
      <point x="300" y="1486"/>
      <point x="222" y="1486" type="curve" smooth="yes"/>
      <point x="143" y="1486"/>
      <point x="94" y="1433"/>
    </contour>
    <contour>
      <point x="555" y="1365" type="curve" smooth="yes"/>
      <point x="555" y="1298"/>
      <point x="604" y="1246"/>
      <point x="683" y="1246" type="curve" smooth="yes"/>
      <point x="761" y="1246"/>
      <point x="811" y="1298"/>
      <point x="811" y="1365" type="curve" smooth="yes"/>
      <point x="811" y="1432"/>
      <point x="761" y="1485"/>
      <point x="683" y="1485" type="curve" smooth="yes"/>
      <point x="604" y="1485"/>
      <point x="555" y="1432"/>
    </contour>
  </outline>
</glyph>
<glyph name="ordfeminine" format="1">
  <advance width="810"/>
  <unicode hex="00AA"/>
  <outline>
    <contour>
      <point x="519.0" y="705.9999999999999" type="curve"/>
      <point x="687" y="706" type="line"/>
      <point x="671" y="764"/>
      <point x="665" y="822"/>
      <point x="665" y="887" type="curve" smooth="yes"/>
      <point x="665" y="1201" type="line"/>
      <point x="665" y="1384"/>
      <point x="565" y="1477"/>
      <point x="415" y="1477" type="curve" smooth="yes"/>
      <point x="255" y="1477"/>
      <point x="150" y="1379"/>
      <point x="150" y="1244" type="curve"/>
      <point x="315" y="1230" type="line"/>
      <point x="315" y="1294"/>
      <point x="352" y="1329"/>
      <point x="415" y="1329" type="curve" smooth="yes"/>
      <point x="472" y="1329"/>
      <point x="499" y="1284"/>
      <point x="499" y="1202" type="curve"/>
      <point x="499" y="1151" type="line"/>
      <point x="424" y="1151" type="line"/>
      <point x="226" y="1151"/>
      <point x="134" y="1067"/>
      <point x="134" y="920" type="curve" smooth="yes"/>
      <point x="134" y="782"/>
      <point x="209" y="692"/>
      <point x="343" y="692" type="curve" smooth="yes"/>
      <point x="420.29863" y="692.0"/>
      <point x="472.296361762336" y="727.240536831032"/>
      <point x="505.67430877685547" y="769.7898178100586" type="curve"/>
      <point x="508.962592486784" y="747.5550859012479"/>
      <point x="513.430696" y="726.1351759999999"/>
    </contour>
    <contour>
      <point x="386.00000000000006" y="836.0" type="curve" smooth="yes"/>
      <point x="329" y="836"/>
      <point x="300" y="869"/>
      <point x="300" y="924" type="curve" smooth="yes"/>
      <point x="300" y="982"/>
      <point x="336" y="1034"/>
      <point x="425" y="1034" type="curve"/>
      <point x="499" y="1034" type="line"/>
      <point x="499" y="891.6493148803711" type="line"/>
      <point x="469.959785777728" y="860.984935842944"/>
      <point x="424.76213599999994" y="836.0"/>
    </contour>
  </outline>
</glyph>
<glyph name="logicalnot" format="1">
  <advance width="997"/>
  <unicode hex="00AC"/>
  <outline>
    <contour>
      <point x="128" y="805" type="line"/>
      <point x="128" y="634" type="line"/>
      <point x="644" y="634" type="line"/>
      <point x="644" y="374" type="line"/>
      <point x="836" y="374" type="line"/>
      <point x="836" y="805" type="line"/>
    </contour>
  </outline>
</glyph>
<glyph name="registered" format="1">
  <advance width="1605"/>
  <unicode hex="00AE"/>
  <outline>
    <contour>
      <point x="87" y="729" type="curve" smooth="yes"/>
      <point x="87" y="306"/>
      <point x="405" y="-21"/>
      <point x="797" y="-21" type="curve" smooth="yes"/>
      <point x="1188" y="-21"/>
      <point x="1507" y="306"/>
      <point x="1507" y="729" type="curve" smooth="yes"/>
      <point x="1507" y="1152"/>
      <point x="1188" y="1476"/>
      <point x="797" y="1476" type="curve" smooth="yes"/>
      <point x="405" y="1476"/>
      <point x="87" y="1152"/>
    </contour>
    <contour>
      <point x="209" y="729" type="curve" smooth="yes"/>
      <point x="209" y="1082"/>
      <point x="472" y="1351"/>
      <point x="797" y="1351" type="curve" smooth="yes"/>
      <point x="1121" y="1351"/>
      <point x="1384" y="1082"/>
      <point x="1384" y="729" type="curve" smooth="yes"/>
      <point x="1384" y="376"/>
      <point x="1121" y="104"/>
      <point x="797" y="104" type="curve" smooth="yes"/>
      <point x="472" y="104"/>
      <point x="209" y="376"/>
    </contour>
    <contour>
      <point x="811" y="653" type="line"/>
      <point x="915" y="653"/>
      <point x="954" y="608"/>
      <point x="954" y="514" type="curve"/>
      <point x="954" y="460" type="line"/>
      <point x="954" y="431"/>
      <point x="954" y="350"/>
      <point x="967" y="316" type="curve"/>
      <point x="1122" y="316" type="line"/>
      <point x="1122" y="332" type="line"/>
      <point x="1109" y="362"/>
      <point x="1105" y="409"/>
      <point x="1105" y="459" type="curve"/>
      <point x="1105" y="515" type="line"/>
      <point x="1105.0" y="609.928382"/>
      <point x="1075.150124041984" y="687.1334001499281"/>
      <point x="989.6498260498047" y="726.5366439819336" type="curve"/>
      <point x="1066.617740014258" y="767.7687766088039"/>
      <point x="1108.0" y="827.3346359999999"/>
      <point x="1108.0" y="906.0" type="curve"/>
      <point x="1108" y="1079"/>
      <point x="981" y="1166"/>
      <point x="783" y="1166" type="curve"/>
      <point x="502" y="1166" type="line"/>
      <point x="502" y="316" type="line"/>
      <point x="653" y="316" type="line"/>
      <point x="653" y="653" type="line"/>
    </contour>
    <contour>
      <point x="653" y="1033" type="line"/>
      <point x="783" y="1033" type="line"/>
      <point x="913" y="1033"/>
      <point x="958" y="1000"/>
      <point x="958" y="903" type="curve"/>
      <point x="958" y="827"/>
      <point x="882" y="788"/>
      <point x="796" y="787" type="curve"/>
      <point x="653" y="787" type="line"/>
    </contour>
  </outline>
</glyph>
<glyph name="macron" format="1">
  <advance width="903"/>
  <unicode hex="00AF"/>
  <outline>
    <contour>
      <point x="451" y="1288" type="move" name="_top"/>
    </contour>
    <contour>
      <point x="451" y="1592" type="move" name="mkmktop_acc"/>
    </contour>
    <contour>
      <point x="752" y="1451" type="line"/>
      <point x="156" y="1451" type="line"/>
      <point x="156" y="1292" type="line"/>
      <point x="752" y="1292" type="line"/>
    </contour>
  </outline>
</glyph>
<glyph name="degree" format="1">
  <advance width="781"/>
  <unicode hex="00B0"/>
  <outline>
    <contour>
      <point x="127" y="1207" type="curve"/>
      <point x="127" y="1059"/>
      <point x="248" y="941"/>
      <point x="393" y="941" type="curve" smooth="yes"/>
      <point x="536" y="941"/>
      <point x="654" y="1059"/>
      <point x="654" y="1207" type="curve" smooth="yes"/>
      <point x="654" y="1354"/>
      <point x="536" y="1477"/>
      <point x="393" y="1477" type="curve" smooth="yes"/>
      <point x="248" y="1477"/>
      <point x="127" y="1354"/>
    </contour>
    <contour>
      <point x="267" y="1207" type="curve"/>
      <point x="267" y="1280"/>
      <point x="325" y="1335"/>
      <point x="393" y="1335" type="curve" smooth="yes"/>
      <point x="461" y="1335"/>
      <point x="514" y="1280"/>
      <point x="514" y="1207" type="curve" smooth="yes"/>
      <point x="514" y="1136"/>
      <point x="461" y="1083"/>
      <point x="393" y="1083" type="curve" smooth="yes"/>
      <point x="325" y="1083"/>
      <point x="267" y="1136"/>
    </contour>
  </outline>
</glyph>
<glyph name="plusminus" format="1">
  <advance width="967"/>
  <unicode hex="00B1"/>
  <outline>
    <contour>
      <point x="872" y="701" type="line"/>
      <point x="872" y="905" type="line"/>
      <point x="598" y="905" type="line"/>
      <point x="598" y="1277" type="line"/>
      <point x="387" y="1277" type="line"/>
      <point x="387" y="905" type="line"/>
      <point x="103" y="905" type="line"/>
      <point x="103" y="701" type="line"/>
      <point x="387" y="701" type="line"/>
      <point x="387" y="315" type="line"/>
      <point x="598" y="315" type="line"/>
      <point x="598" y="701" type="line"/>
    </contour>
    <contour>
      <point x="842" y="203" type="line"/>
      <point x="125" y="203" type="line"/>
      <point x="125" y="1" type="line"/>
      <point x="842" y="1" type="line"/>
    </contour>
  </outline>
</glyph>
<glyph name="twosuperior" format="1">
  <advance width="682"/>
  <unicode hex="00B2"/>
  <outline>
    <contour>
      <point x="606.0" y="818.0" type="line"/>
      <point x="314.0" y="818.0" type="line"/>
      <point x="410.0" y="927.0" type="line" smooth="yes"/>
      <point x="530.0" y="1038.0"/>
      <point x="588.0" y="1111.0"/>
      <point x="588.0" y="1224.0" type="curve" smooth="yes"/>
      <point x="588.0" y="1376.0"/>
      <point x="493.0" y="1467.0"/>
      <point x="327.0" y="1467.0" type="curve" smooth="yes"/>
      <point x="165.0" y="1467.0"/>
      <point x="66.0" y="1345.0"/>
      <point x="66.0" y="1198.0" type="curve"/>
      <point x="246.0" y="1198.0" type="line"/>
      <point x="246.0" y="1263.0"/>
      <point x="273.0" y="1316.0"/>
      <point x="334.0" y="1316.0" type="curve" smooth="yes"/>
      <point x="381.0" y="1316.0"/>
      <point x="407.0" y="1278.0"/>
      <point x="407.0" y="1223.0" type="curve" smooth="yes"/>
      <point x="407.0" y="1187.0"/>
      <point x="384.0" y="1128.0"/>
      <point x="321.0" y="1057.0" type="curve" smooth="yes"/>
      <point x="80.0" y="794.0" type="line"/>
      <point x="80.0" y="667.0" type="line"/>
      <point x="606.0" y="667.0" type="line"/>
    </contour>
  </outline>
</glyph>
<glyph name="threesuperior" format="1">
  <advance width="682"/>
  <unicode hex="00B3"/>
  <outline>
    <contour>
      <point x="322" y="1004" type="line" smooth="yes"/>
      <point x="385.0" y="1004.0"/>
      <point x="421.0" y="977.0"/>
      <point x="421.0" y="903.0" type="curve" smooth="yes"/>
      <point x="421.0" y="849.0"/>
      <point x="393.0" y="807.0"/>
      <point x="332.0" y="807.0" type="curve" smooth="yes"/>
      <point x="275.0" y="807.0"/>
      <point x="242.0" y="848.0"/>
      <point x="242.0" y="897.0" type="curve"/>
      <point x="61" y="897" type="line"/>
      <point x="61.0" y="725.0"/>
      <point x="195.0" y="656.0"/>
      <point x="322.0" y="656.0" type="curve" smooth="yes"/>
      <point x="480.0" y="656.0"/>
      <point x="601.0" y="740.0"/>
      <point x="601.0" y="888.0" type="curve" smooth="yes"/>
      <point x="601.0" y="986.669262"/>
      <point x="556.43776887531601" y="1045.6732413505561"/>
      <point x="475.8801803588867" y="1072.1997299194336" type="curve"/>
      <point x="546.83443272233592" y="1103.9598977291239"/>
      <point x="589.99999999999989" y="1164.886405"/>
      <point x="590.0" y="1242.0" type="curve"/>
      <point x="590.0" y="1389.0"/>
      <point x="481.0" y="1467.0"/>
      <point x="323.0" y="1467.0" type="curve" smooth="yes"/>
      <point x="186.0" y="1467.0"/>
      <point x="71.0" y="1386.0"/>
      <point x="71.0" y="1244.0" type="curve"/>
      <point x="251" y="1244" type="line"/>
      <point x="251.0" y="1289.0"/>
      <point x="284.0" y="1316.0"/>
      <point x="328.0" y="1316.0" type="curve" smooth="yes"/>
      <point x="388.0" y="1316.0"/>
      <point x="410.0" y="1275.0"/>
      <point x="410.0" y="1230.0" type="curve"/>
      <point x="410.0" y="1172.0"/>
      <point x="382.0" y="1134.0"/>
      <point x="322.0" y="1134.0" type="curve" smooth="yes"/>
      <point x="246" y="1134" type="line"/>
      <point x="246" y="1004" type="line"/>
    </contour>
  </outline>
</glyph>
<glyph name="acute" format="1">
  <advance width="669"/>
  <unicode hex="00B4"/>
  <outline>
    <contour>
      <point x="236" y="1290" type="move" name="_top"/>
    </contour>
    <contour>
      <point x="236" y="1658" type="move" name="mkmktop_acc"/>
    </contour>
    <contour>
      <point x="111" y="1233" type="line"/>
      <point x="312" y="1233" type="line"/>
      <point x="588" y="1536" type="line"/>
      <point x="307" y="1536" type="line"/>
    </contour>
  </outline>
</glyph>
<glyph name="mu" format="1">
  <advance width="1078"/>
  <unicode hex="00B5"/>
  <outline>
    <contour>
      <point x="522.0" y="-21.0" type="curve" smooth="yes"/>
      <point x="597.058182" y="-21.0"/>
      <point x="657.164310080292" y="11.371922564028004"/>
      <point x="702.8160171508789" y="68.21026611328125" type="curve"/>
      <point x="708" y="0" type="line"/>
      <point x="929" y="0" type="line"/>
      <point x="929" y="1082" type="line"/>
      <point x="689" y="1082" type="line"/>
      <point x="689" y="284.60975646972656" type="line"/>
      <point x="658.849757878316" y="219.78872281126002"/>
      <point x="607.08403" y="181.0"/>
      <point x="524.0" y="181.0" type="curve" smooth="yes"/>
      <point x="436" y="181"/>
      <point x="378" y="228"/>
      <point x="378" y="462" type="curve"/>
      <point x="378" y="1082" type="line"/>
      <point x="138" y="1082" type="line"/>
      <point x="138" y="-416" type="line"/>
      <point x="378" y="-416" type="line"/>
      <point x="378" y="24.736167907714844" type="line"/>
      <point x="416.62070273205" y="-6.421313866898988"/>
      <point x="463.33548" y="-20.999999999999993"/>
    </contour>
  </outline>
</glyph>
<glyph name="periodcentered" format="1">
  <advance width="548"/>
  <unicode hex="00B7"/>
  <outline>
    <contour>
      <point x="133" y="713" type="curve" smooth="yes"/>
      <point x="133" y="636"/>
      <point x="183" y="577"/>
      <point x="269" y="577" type="curve" smooth="yes"/>
      <point x="355" y="577"/>
      <point x="405" y="636"/>
      <point x="405" y="713" type="curve" smooth="yes"/>
      <point x="405" y="791"/>
      <point x="355" y="850"/>
      <point x="269" y="850" type="curve" smooth="yes"/>
      <point x="183" y="850"/>
      <point x="133" y="791"/>
    </contour>
  </outline>
</glyph>
<glyph name="cedilla" format="1">
  <advance width="493"/>
  <unicode hex="00B8"/>
  <outline>
    <contour>
      <point x="218" y="0" type="move" name="_bottom"/>
    </contour>
    <contour>
      <point x="218" y="-453" type="move" name="mkmkbottom_acc"/>
    </contour>
    <contour>
      <point x="135" y="4" type="line"/>
      <point x="107" y="-136" type="line"/>
      <point x="193" y="-144"/>
      <point x="227" y="-161"/>
      <point x="227" y="-220" type="curve" smooth="yes"/>
      <point x="227" y="-283"/>
      <point x="191" y="-308"/>
      <point x="131" y="-308" type="curve"/>
      <point x="137" y="-450" type="line"/>
      <point x="326" y="-450"/>
      <point x="421" y="-359"/>
      <point x="421" y="-224" type="curve" smooth="yes"/>
      <point x="421" y="-109"/>
      <point x="360" y="-64"/>
      <point x="299" y="-51" type="curve"/>
      <point x="309" y="4" type="line"/>
    </contour>
  </outline>
</glyph>
<glyph name="onesuperior" format="1">
  <advance width="682"/>
  <unicode hex="00B9"/>
  <outline>
    <contour>
      <point x="467.0" y="1455.0" type="line"/>
      <point x="450.0" y="1455.0" type="line"/>
      <point x="129.0" y="1335.0" type="line"/>
      <point x="129.0" y="1187.0" type="line"/>
      <point x="288.0" y="1235.0" type="line"/>
      <point x="288.0" y="667.0" type="line"/>
      <point x="467.0" y="667.0" type="line"/>
    </contour>
  </outline>
</glyph>
<glyph name="ordmasculine" format="1">
  <advance width="829"/>
  <unicode hex="00BA"/>
  <outline>
    <contour>
      <point x="116" y="1045" type="line"/>
      <point x="116" y="838"/>
      <point x="231" y="691"/>
      <point x="415" y="691" type="curve" smooth="yes"/>
      <point x="597" y="691"/>
      <point x="711" y="838"/>
      <point x="711" y="1045" type="curve"/>
      <point x="711" y="1122" type="line"/>
      <point x="711" y="1329"/>
      <point x="597" y="1477"/>
      <point x="413" y="1477" type="curve" smooth="yes"/>
      <point x="231" y="1477"/>
      <point x="116" y="1329"/>
      <point x="116" y="1122" type="curve"/>
    </contour>
    <contour>
      <point x="282" y="1122" type="line"/>
      <point x="282" y="1239"/>
      <point x="325" y="1329"/>
      <point x="413" y="1329" type="curve" smooth="yes"/>
      <point x="502" y="1329"/>
      <point x="545" y="1239"/>
      <point x="545" y="1122" type="curve"/>
      <point x="545" y="1045" type="line"/>
      <point x="545" y="926"/>
      <point x="502" y="837"/>
      <point x="415" y="837" type="curve" smooth="yes"/>
      <point x="326" y="837"/>
      <point x="282" y="926"/>
      <point x="282" y="1045" type="curve"/>
    </contour>
  </outline>
</glyph>
<glyph name="questiondown" format="1">
  <advance width="894"/>
  <unicode hex="00BF"/>
  <outline>
    <contour>
      <point x="591" y="969" type="curve" smooth="yes"/>
      <point x="591" y="1044"/>
      <point x="543" y="1102"/>
      <point x="460" y="1102" type="curve" smooth="yes"/>
      <point x="376" y="1102"/>
      <point x="327" y="1044"/>
      <point x="327" y="969" type="curve" smooth="yes"/>
      <point x="327" y="894"/>
      <point x="376" y="835"/>
      <point x="460" y="835" type="curve" smooth="yes"/>
      <point x="543" y="835"/>
      <point x="591" y="894"/>
    </contour>
    <contour>
      <point x="351" y="659" type="line"/>
      <point x="349" y="559"/>
      <point x="333" y="488"/>
      <point x="277" y="420" type="curve"/>
      <point x="177" y="301"/>
      <point x="70" y="179"/>
      <point x="70" y="1" type="curve" smooth="yes"/>
      <point x="70" y="-247"/>
      <point x="210" y="-386"/>
      <point x="447" y="-386" type="curve" smooth="yes"/>
      <point x="661" y="-386"/>
      <point x="825" y="-252"/>
      <point x="828" y="3" type="curve"/>
      <point x="587" y="3" type="line"/>
      <point x="587" y="-124"/>
      <point x="512" y="-179"/>
      <point x="445" y="-179" type="curve" smooth="yes"/>
      <point x="361" y="-179"/>
      <point x="310" y="-118"/>
      <point x="310" y="5" type="curve" smooth="yes"/>
      <point x="310" y="125"/>
      <point x="367" y="190"/>
      <point x="433" y="277" type="curve" smooth="yes"/>
      <point x="533" y="395"/>
      <point x="572" y="472"/>
      <point x="573" y="659" type="curve"/>
    </contour>
  </outline>
</glyph>
<glyph name="Aring" format="1">
  <advance width="1210"/>
  <unicode hex="00C5"/>
  <outline>
    <contour>
      <point x="608" y="1600" type="move" name="parent_top"/>
    </contour>
    <contour>
      <point x="613" y="4" type="move" name="bottom"/>
    </contour>
    <contour>
      <point x="1190" y="1600" type="move" name="top_dd"/>
    </contour>
    <contour>
      <point x="1190" y="-407" type="move" name="bottom_dd"/>
    </contour>
    <contour>
      <point x="1190" y="1600" type="move" name="top0315"/>
    </contour>
    <contour>
      <point x="608" y="2015" type="move" name="top"/>
    </contour>
    <component base="A"/>
    <component base="ring" xOffset="266" yOffset="367"/>
  </outline>
</glyph>
<glyph name="AE" format="1">
  <advance width="1675"/>
  <unicode hex="00C6"/>
  <outline>
    <contour>
      <point x="799" y="1612" type="move" name="top"/>
    </contour>
    <contour>
      <point x="1655" y="1600" type="move" name="top_dd"/>
    </contour>
    <contour>
      <point x="1655" y="1612" type="move" name="top0315"/>
    </contour>
    <contour>
      <point x="1615" y="202" type="line"/>
      <point x="1070.7857131958008" y="202" type="line"/>
      <point x="1054.7142868041992" y="652" type="line"/>
      <point x="1495" y="652" type="line"/>
      <point x="1495" y="853" type="line"/>
      <point x="1047.5357131958008" y="853" type="line"/>
      <point x="1033.2142868041992" y="1254" type="line"/>
      <point x="1563" y="1254" type="line"/>
      <point x="1563" y="1456" type="line"/>
      <point x="692" y="1456" type="line"/>
      <point x="4" y="0" type="line"/>
      <point x="290" y="0" type="line"/>
      <point x="436.6872100830078" y="340" type="line"/>
      <point x="825.0906600952148" y="340" type="line"/>
      <point x="837" y="0" type="line"/>
      <point x="1615" y="0" type="line"/>
    </contour>
    <contour>
      <point x="531.1710357666016" y="559" type="line"/>
      <point x="795.9246444702148" y="1172.6610565185547" type="line"/>
      <point x="817.4196395874023" y="559" type="line"/>
    </contour>
  </outline>
</glyph>
<glyph name="Ccedilla" format="1">
  <advance width="1165"/>
  <unicode hex="00C7"/>
  <outline>
    <contour>
      <point x="596" y="1620" type="move" name="parent_top"/>
    </contour>
    <contour>
      <point x="1145" y="1600" type="move" name="top_dd"/>
    </contour>
    <contour>
      <point x="1145" y="-407" type="move" name="bottom_dd"/>
    </contour>
    <contour>
      <point x="1145" y="1620" type="move" name="top0315"/>
    </contour>
    <contour>
      <point x="596" y="1620" type="move" name="top"/>
    </contour>
    <contour>
      <point x="594" y="-459" type="move" name="bottom"/>
    </contour>
    <component base="C"/>
    <component base="cedilla" xOffset="376" yOffset="-6"/>
  </outline>
</glyph>
<glyph name="Icircumflex" format="1">
  <advance width="535"/>
  <unicode hex="00CE"/>
  <outline>
    <contour>
      <point x="267" y="1607" type="move" name="parent_top"/>
    </contour>
    <contour>
      <point x="268" y="6" type="move" name="bottom"/>
    </contour>
    <contour>
      <point x="515" y="1600" type="move" name="top_dd"/>
    </contour>
    <contour>
      <point x="515" y="-407" type="move" name="bottom_dd"/>
    </contour>
    <contour>
      <point x="515" y="1607" type="move" name="top0315"/>
    </contour>
    <contour>
      <point x="267" y="1957" type="move" name="top"/>
    </contour>
    <component base="I"/>
    <component base="circumflex" xOffset="-181" yOffset="317"/>
  </outline>
</glyph>
<glyph name="multiply" format="1">
  <advance width="964"/>
  <unicode hex="00D7"/>
  <outline>
    <contour>
      <point x="875" y="365" type="line"/>
      <point x="612.1876602172852" y="684.0718688964844" type="line"/>
      <point x="879" y="1008" type="line"/>
      <point x="734" y="1159" type="line"/>
      <point x="477.5" y="847.5917434692383" type="line"/>
      <point x="221" y="1159" type="line"/>
      <point x="76" y="1008" type="line"/>
      <point x="342.81233978271484" y="684.0718688964844" type="line"/>
      <point x="80" y="365" type="line"/>
      <point x="225" y="214" type="line"/>
      <point x="477.5" y="520.5519866943359" type="line"/>
      <point x="730" y="214" type="line"/>
    </contour>
  </outline>
</glyph>
<glyph name="Oslash" format="1">
  <advance width="1234"/>
  <unicode hex="00D8"/>
  <outline>
    <contour>
      <point x="621" y="1674" type="move" name="top"/>
    </contour>
    <contour>
      <point x="1214" y="1600" type="move" name="top_dd"/>
    </contour>
    <contour>
      <point x="1214" y="1674" type="move" name="top0315"/>
    </contour>
    <contour>
      <point x="623.0000000000001" y="-20.000000000000014" type="curve" smooth="yes"/>
      <point x="931" y="-20"/>
      <point x="1140" y="249"/>
      <point x="1140" y="691" type="curve"/>
      <point x="1140" y="764" type="line"/>
      <point x="1140.0" y="980.604752"/>
      <point x="1089.56747454144" y="1155.902864100608"/>
      <point x="1001.7657699584961" y="1278.3544006347656" type="curve"/>
      <point x="1123" y="1518" type="line"/>
      <point x="964" y="1518" type="line"/>
      <point x="897.2547607421875" y="1386.38623046875" type="line"/>
      <point x="819.491661835956" y="1444.84929227988"/>
      <point x="725.9567940000001" y="1476.0"/>
      <point x="621.0" y="1476.0000000000002" type="curve" smooth="yes"/>
      <point x="318" y="1476"/>
      <point x="103" y="1206"/>
      <point x="103" y="764" type="curve"/>
      <point x="103" y="691" type="line"/>
      <point x="103.0" y="455.30703600000004"/>
      <point x="164.703305632388" y="268.806108287572"/>
      <point x="268.24681854248047" y="146.05638122558594" type="curve"/>
      <point x="146" y="-95" type="line"/>
      <point x="307" y="-95" type="line"/>
      <point x="379.57106018066406" y="48.45234680175781" type="line"/>
      <point x="450.876458488966" y="3.6498309247889935"/>
      <point x="533.157773" y="-20.00000000000001"/>
    </contour>
    <contour>
      <point x="353.99999999999994" y="690.9999999999999" type="curve" smooth="yes"/>
      <point x="354" y="766" type="line" smooth="yes"/>
      <point x="354" y="1089"/>
      <point x="457" y="1262"/>
      <point x="621" y="1262" type="curve" smooth="yes"/>
      <point x="690.021797" y="1262.0"/>
      <point x="747.3675115001699" y="1233.143396107563"/>
      <point x="791.0616149902344" y="1176.9857940673828" type="curve"/>
      <point x="394.4456787109375" y="394.9057159423828" type="line"/>
      <point x="368.205448891296" y="472.465474499152"/>
      <point x="354.0" y="571.625014"/>
    </contour>
    <contour>
      <point x="888.9999999999999" y="765.9999999999999" type="curve"/>
      <point x="889" y="691" type="line"/>
      <point x="889" y="368"/>
      <point x="793" y="193"/>
      <point x="623" y="193" type="curve" smooth="yes"/>
      <point x="568.55165" y="193.0"/>
      <point x="520.7457974061" y="212.0563450175"/>
      <point x="481.1277618408203" y="249.20108032226562" type="curve"/>
      <point x="864.9102249145508" y="1007.8298873901367" type="line"/>
      <point x="880.736970602509" y="940.11159648865"/>
      <point x="889.0" y="859.315669"/>
    </contour>
  </outline>
</glyph>
<glyph name="Thorn" format="1">
  <advance width="1074"/>
  <unicode hex="00DE"/>
  <outline>
    <contour>
      <point x="558" y="298" type="line" smooth="yes"/>
      <point x="846" y="298"/>
      <point x="1003" y="484"/>
      <point x="1003" y="738" type="curve" smooth="yes"/>
      <point x="1003" y="993"/>
      <point x="846" y="1178"/>
      <point x="558" y="1178" type="curve" smooth="yes"/>
      <point x="375" y="1178" type="line"/>
      <point x="375" y="1456" type="line"/>
      <point x="135" y="1456" type="line"/>
      <point x="135" y="0" type="line"/>
      <point x="375" y="0" type="line"/>
      <point x="375" y="298" type="line"/>
    </contour>
    <contour>
      <point x="379" y="978" type="line"/>
      <point x="558" y="978" type="line" smooth="yes"/>
      <point x="704" y="978"/>
      <point x="762" y="861"/>
      <point x="762" y="736" type="curve" smooth="yes"/>
      <point x="762" y="615"/>
      <point x="704" y="498"/>
      <point x="558" y="498" type="curve" smooth="yes"/>
      <point x="375" y="498" type="line"/>
      <point x="375" y="983.5172424316406" type="line"/>
    </contour>
  </outline>
</glyph>
<glyph name="germandbls" format="1">
  <advance width="1111"/>
  <unicode hex="00DF"/>
  <outline>
    <contour>
      <point x="370" y="1103" type="line" name="hr00"/>
      <point x="370" y="1285"/>
      <point x="421" y="1358"/>
      <point x="509" y="1358" type="curve" smooth="yes"/>
      <point x="589" y="1358"/>
      <point x="641" y="1296"/>
      <point x="641" y="1184" type="curve" smooth="yes"/>
      <point x="641" y="1031"/>
      <point x="535" y="988"/>
      <point x="535" y="819" type="curve" smooth="yes"/>
      <point x="535" y="554"/>
      <point x="796" y="504"/>
      <point x="796" y="331" type="curve" smooth="yes"/>
      <point x="796" y="242"/>
      <point x="761" y="180"/>
      <point x="664" y="180" type="curve" smooth="yes"/>
      <point x="587" y="180"/>
      <point x="518" y="217"/>
      <point x="483" y="243" type="curve"/>
      <point x="438" y="43" type="line"/>
      <point x="482" y="9"/>
      <point x="588" y="-20"/>
      <point x="675" y="-20" type="curve" smooth="yes"/>
      <point x="910" y="-20"/>
      <point x="1036" y="104"/>
      <point x="1036" y="339" type="curve" smooth="yes"/>
      <point x="1036" y="592"/>
      <point x="775" y="670"/>
      <point x="775" y="825" type="curve" smooth="yes"/>
      <point x="775" y="970"/>
      <point x="873" y="994"/>
      <point x="873" y="1200" type="curve" smooth="yes"/>
      <point x="873" y="1442"/>
      <point x="722" y="1558"/>
      <point x="518" y="1558" type="curve" smooth="yes"/>
      <point x="286" y="1558"/>
      <point x="130" y="1405"/>
      <point x="130" y="1105" type="curve" smooth="yes"/>
      <point x="130" y="0" type="line"/>
      <point x="370" y="0" type="line"/>
    </contour>
  </outline>
</glyph>
<glyph name="agrave" format="1">
  <advance width="974"/>
  <unicode hex="00E0"/>
  <outline>
    <contour>
      <point x="493" y="1290" type="move" name="parent_top"/>
    </contour>
    <contour>
      <point x="426" y="9" type="move" name="bottom"/>
    </contour>
    <contour>
      <point x="954" y="1600" type="move" name="top_dd"/>
    </contour>
    <contour>
      <point x="954" y="-407" type="move" name="bottom_dd"/>
    </contour>
    <contour>
      <point x="954" y="1290" type="move" name="top0315"/>
    </contour>
    <contour>
      <point x="493" y="1658" type="move" name="top"/>
    </contour>
    <component base="a"/>
    <component base="grave" xOffset="95"/>
  </outline>
</glyph>
<glyph name="ae" format="1">
  <advance width="1492"/>
  <unicode hex="00E6"/>
  <outline>
    <contour>
      <point x="743" y="1291" type="move" name="top"/>
    </contour>
    <contour>
      <point x="1472" y="1600" type="move" name="top_dd"/>
    </contour>
    <contour>
      <point x="1472" y="1291" type="move" name="top0315"/>
    </contour>
    <contour>
      <point x="1406" y="100" type="curve"/>
      <point x="1338" y="269" type="line"/>
      <point x="1278" y="229"/>
      <point x="1214" y="179"/>
      <point x="1087" y="179" type="curve" smooth="yes"/>
      <point x="936.392488" y="179.0"/>
      <point x="867.89323517272" y="304.32313242152"/>
      <point x="859.003776550293" y="469" type="curve"/>
      <point x="1425" y="469" type="line"/>
      <point x="1425" y="612" type="line" smooth="yes"/>
      <point x="1425" y="913"/>
      <point x="1286" y="1102"/>
      <point x="1039" y="1102" type="curve" smooth="yes"/>
      <point x="929.604571" y="1102.864786"/>
      <point x="838.157657819104" y="1061.4757743425262"/>
      <point x="769.5908432006836" y="988.6606140136719" type="curve"/>
      <point x="705.509661744568" y="1064.168629618589"/>
      <point x="609.151238" y="1102.0"/>
      <point x="492.00000000000006" y="1102.0" type="curve" smooth="yes"/>
      <point x="259" y="1102"/>
      <point x="104" y="962"/>
      <point x="104" y="770" type="curve"/>
      <point x="343" y="751" type="line"/>
      <point x="343" y="833"/>
      <point x="401" y="902"/>
      <point x="490" y="902" type="curve" smooth="yes"/>
      <point x="574" y="902"/>
      <point x="623" y="830"/>
      <point x="623" y="712" type="curve"/>
      <point x="623" y="644" type="line"/>
      <point x="483" y="644" type="line"/>
      <point x="216" y="644"/>
      <point x="77" y="524"/>
      <point x="77" y="313" type="curve" smooth="yes"/>
      <point x="77" y="111"/>
      <point x="191" y="-21"/>
      <point x="399" y="-21" type="curve" smooth="yes"/>
      <point x="567.354656" y="-21.0"/>
      <point x="679.389122290944" y="51.411672483071996"/>
      <point x="741.432975769043" y="129.54131317138672" type="curve"/>
      <point x="816.19943749325" y="34.902761738525"/>
      <point x="927.15773" y="-21.000000000000007"/>
      <point x="1071.0" y="-21.0" type="curve"/>
      <point x="1240" y="-21"/>
      <point x="1361" y="56"/>
    </contour>
    <contour>
      <point x="1039.0" y="902.0000000000001" type="curve"/>
      <point x="1149" y="902"/>
      <point x="1187" y="802"/>
      <point x="1187" y="672" type="curve"/>
      <point x="1187" y="643" type="line"/>
      <point x="861.3563537597656" y="643" type="line"/>
      <point x="874.801975366875" y="793.5208635427"/>
      <point x="929.41472" y="902.0"/>
    </contour>
    <contour>
      <point x="448.0" y="168.0" type="curve" smooth="yes"/>
      <point x="356" y="168"/>
      <point x="317" y="228"/>
      <point x="317" y="309" type="curve" smooth="yes"/>
      <point x="317" y="396"/>
      <point x="376" y="474"/>
      <point x="484" y="474" type="curve"/>
      <point x="623" y="474" type="line"/>
      <point x="623" y="256.17969512939453" type="line"/>
      <point x="576.876986102368" y="208.21895586988802"/>
      <point x="505.36293600000005" y="168.00000000000003"/>
    </contour>
  </outline>
</glyph>
<glyph name="ccedilla" format="1">
  <advance width="946"/>
  <unicode hex="00E7"/>
  <outline>
    <contour>
      <point x="465" y="1290" type="move" name="parent_top"/>
    </contour>
    <contour>
      <point x="926" y="1600" type="move" name="top_dd"/>
    </contour>
    <contour>
      <point x="926" y="-407" type="move" name="bottom_dd"/>
    </contour>
    <contour>
      <point x="926" y="1290" type="move" name="top0315"/>
    </contour>
    <contour>
      <point x="465" y="1290" type="move" name="top"/>
    </contour>
    <contour>
      <point x="476" y="-459" type="move" name="bottom"/>
    </contour>
    <component base="c"/>
    <component base="cedilla" xOffset="258" yOffset="-6"/>
  </outline>
</glyph>
<glyph name="igrave" format="1">
  <advance width="517"/>
  <unicode hex="00EC"/>
  <outline>
    <contour>
      <point x="256" y="1282" type="move" name="parent_top"/>
    </contour>
    <contour>
      <point x="249" y="10" type="move" name="bottom"/>
    </contour>
    <contour>
      <point x="497" y="1282" type="move" name="top0315"/>
    </contour>
    <contour>
      <point x="256" y="1650" type="move" name="top"/>
    </contour>
    <component base="dotlessi"/>
    <component base="grave" xOffset="-142" yOffset="-8"/>
  </outline>
</glyph>
<glyph name="icircumflex" format="1">
  <advance width="517"/>
  <unicode hex="00EE"/>
  <outline>
    <contour>
      <point x="256" y="1282" type="move" name="parent_top"/>
    </contour>
    <contour>
      <point x="249" y="10" type="move" name="bottom"/>
    </contour>
    <contour>
      <point x="497" y="1282" type="move" name="top0315"/>
    </contour>
    <contour>
      <point x="256" y="1632" type="move" name="top"/>
    </contour>
    <component base="dotlessi"/>
    <component base="circumflex" xOffset="-192" yOffset="-8"/>
  </outline>
</glyph>
<glyph name="eth" format="1">
  <advance width="1041"/>
  <unicode hex="00F0"/>
  <outline>
    <contour>
      <point x="944" y="558" type="curve"/>
      <point x="944" y="643" type="line"/>
      <point x="944.0" y="915.0140739999999"/>
      <point x="859.567334492573" y="1141.3808058705429"/>
      <point x="720.6871490478516" y="1306.1295471191406" type="curve"/>
      <point x="850" y="1405" type="line"/>
      <point x="777" y="1514" type="line"/>
      <point x="628.0264892578125" y="1400.0973358154297" type="line"/>
      <point x="528.069291858324" y="1486.6760143882761"/>
      <point x="409.29332400000004" y="1547.9382920000003"/>
      <point x="279.0" y="1580.0000000000002" type="curve"/>
      <point x="205" y="1381" type="line"/>
      <point x="288.352675" y="1354.932175"/>
      <point x="369.737494718125" y="1314.778649035"/>
      <point x="441.78819274902344" y="1257.7026443481445" type="curve"/>
      <point x="297" y="1147" type="line"/>
      <point x="370" y="1038" type="line"/>
      <point x="536.669921875" y="1165.4330444335938" type="line"/>
      <point x="596.0452821951492" y="1094.4684124741195"/>
      <point x="643.5291382560146" y="1006.5459517016113"/>
      <point x="672.5298690795898" y="899.1202850341797" type="curve"/>
      <point x="618.552340964075" y="944.55737976885"/>
      <point x="551.45565" y="972.0"/>
      <point x="475.99999999999994" y="972.0" type="curve"/>
      <point x="247" y="972"/>
      <point x="93" y="771"/>
      <point x="93" y="468" type="curve"/>
      <point x="93" y="196"/>
      <point x="263" y="-20"/>
      <point x="512" y="-20" type="curve" smooth="yes"/>
      <point x="761" y="-20"/>
      <point x="944" y="215"/>
    </contour>
    <contour>
      <point x="333" y="468" type="curve"/>
      <point x="333" y="661"/>
      <point x="408" y="780"/>
      <point x="534" y="780" type="curve"/>
      <point x="617.592924" y="780.0"/>
      <point x="674.3247797094721" y="735.809210231712"/>
      <point x="703.3400268554688" y="684.2047882080078" type="curve"/>
      <point x="703.77793886624" y="671.4416867059961"/>
      <point x="704.0" y="658.3230840000001"/>
      <point x="704.0" y="645.0" type="curve" smooth="yes"/>
      <point x="704" y="542" type="line" smooth="yes"/>
      <point x="704" y="336"/>
      <point x="637" y="180"/>
      <point x="515" y="180" type="curve" smooth="yes"/>
      <point x="400" y="180"/>
      <point x="333" y="319"/>
    </contour>
  </outline>
</glyph>
<glyph name="ograve" format="1">
  <advance width="1026"/>
  <unicode hex="00F2"/>
  <outline>
    <contour>
      <point x="505" y="1290" type="move" name="parent_top"/>
    </contour>
    <contour>
      <point x="511" y="-4" type="move" name="bottom"/>
    </contour>
    <contour>
      <point x="1005" y="1600" type="move" name="top_dd"/>
    </contour>
    <contour>
      <point x="1005" y="-407" type="move" name="bottom_dd"/>
    </contour>
    <contour>
      <point x="1005" y="1290" type="move" name="top0315"/>
    </contour>
    <contour>
      <point x="505" y="1658" type="move" name="top"/>
    </contour>
    <component base="o"/>
    <component base="grave" xOffset="107"/>
  </outline>
</glyph>
<glyph name="otilde" format="1">
  <advance width="1026"/>
  <unicode hex="00F5"/>
  <outline>
    <contour>
      <point x="505" y="1290" type="move" name="parent_top"/>
    </contour>
    <contour>
      <point x="511" y="-4" type="move" name="bottom"/>
    </contour>
    <contour>
      <point x="1005" y="1600" type="move" name="top_dd"/>
    </contour>
    <contour>
      <point x="1005" y="-407" type="move" name="bottom_dd"/>
    </contour>
    <contour>
      <point x="1005" y="1290" type="move" name="top0315"/>
    </contour>
    <contour>
      <point x="506" y="1634" type="move" name="top"/>
    </contour>
    <component base="o"/>
    <component base="tilde" xOffset="60"/>
  </outline>
</glyph>
<glyph name="divide" format="1">
  <advance width="1024"/>
  <unicode hex="00F7"/>
  <outline>
    <contour>
      <point x="368" y="1094" type="curve" smooth="yes"/>
      <point x="368" y="1018"/>
      <point x="418" y="960"/>
      <point x="504" y="960" type="curve" smooth="yes"/>
      <point x="589" y="960"/>
      <point x="639" y="1018"/>
      <point x="639" y="1094" type="curve" smooth="yes"/>
      <point x="639" y="1172"/>
      <point x="589" y="1230"/>
      <point x="504" y="1230" type="curve" smooth="yes"/>
      <point x="418" y="1230"/>
      <point x="368" y="1172"/>
    </contour>
    <contour>
      <point x="930" y="796" type="line"/>
      <point x="75" y="796" type="line"/>
      <point x="75" y="581" type="line"/>
      <point x="930" y="581" type="line"/>
    </contour>
    <contour>
      <point x="368" y="279" type="curve" smooth="yes"/>
      <point x="368" y="202"/>
      <point x="418" y="145"/>
      <point x="504" y="145" type="curve" smooth="yes"/>
      <point x="589" y="145"/>
      <point x="639" y="202"/>
      <point x="639" y="279" type="curve" smooth="yes"/>
      <point x="639" y="357"/>
      <point x="589" y="415"/>
      <point x="504" y="415" type="curve" smooth="yes"/>
      <point x="418" y="415"/>
      <point x="368" y="357"/>
    </contour>
  </outline>
</glyph>
<glyph name="oslash" format="1">
  <advance width="1021"/>
  <unicode hex="00F8"/>
  <outline>
    <contour>
      <point x="478" y="1287" type="move" name="top"/>
    </contour>
    <contour>
      <point x="1001" y="1600" type="move" name="top_dd"/>
    </contour>
    <contour>
      <point x="1001" y="1287" type="move" name="top0315"/>
    </contour>
    <contour>
      <point x="513.0" y="-20.000000000000043" type="curve" smooth="yes"/>
      <point x="786" y="-20"/>
      <point x="941" y="216"/>
      <point x="941" y="530" type="curve"/>
      <point x="941" y="551" type="line"/>
      <point x="941.0" y="742.110762"/>
      <point x="883.582710053205" y="904.698096090947"/>
      <point x="776.6391220092773" y="1002.6872787475586" type="curve"/>
      <point x="863" y="1212" type="line"/>
      <point x="726" y="1212" type="line"/>
      <point x="668.2524795532227" y="1072.0374221801758" type="line"/>
      <point x="621.35936778292" y="1091.5181176212668"/>
      <point x="568.8333250000001" y="1101.9999999999998"/>
      <point x="511.0000000000001" y="1101.9999999999998" type="curve" smooth="yes"/>
      <point x="240" y="1102"/>
      <point x="84" y="865"/>
      <point x="84" y="551" type="curve"/>
      <point x="84" y="530" type="line"/>
      <point x="84.0" y="334.59340399999996"/>
      <point x="144.41485547697602" y="169.39423573848796"/>
      <point x="255.8452911376953" y="72.48680114746094" type="curve"/>
      <point x="169" y="-138" type="line"/>
      <point x="306" y="-138" type="line"/>
      <point x="365.5345993041992" y="6.293907165527344" type="line"/>
      <point x="409.947159638373" y="-10.835217071316027"/>
      <point x="459.20180100000005" y="-20.000000000000032"/>
    </contour>
    <contour>
      <point x="324.0" y="530.0" type="curve"/>
      <point x="324" y="551" type="line"/>
      <point x="324" y="740"/>
      <point x="376" y="902"/>
      <point x="511" y="902" type="curve" smooth="yes"/>
      <point x="541.011136" y="902.0"/>
      <point x="566.9549819125759" y="894.338360532992"/>
      <point x="589.1811447143555" y="880.3923645019531" type="curve"/>
      <point x="354.91249084472656" y="312.59580993652344" type="line"/>
      <point x="333.451732692688" y="372.466187068296"/>
      <point x="324.0" y="448.143104"/>
    </contour>
    <contour>
      <point x="700.9999999999999" y="551.0" type="curve"/>
      <point x="701" y="530" type="line"/>
      <point x="701" y="338"/>
      <point x="648" y="180"/>
      <point x="513" y="180" type="curve" smooth="yes"/>
      <point x="486.980275" y="180.0"/>
      <point x="464.026627978125" y="185.69929788875"/>
      <point x="443.91283416748047" y="196.2591094970703" type="curve"/>
      <point x="674.3291854858398" y="754.7188491821289" type="line"/>
      <point x="692.8172087941119" y="696.699307027712"/>
      <point x="700.9999999999999" y="625.9740320000001"/>
    </contour>
  </outline>
</glyph>
<glyph name="thorn" format="1">
  <advance width="1034"/>
  <unicode hex="00FE"/>
  <outline>
    <contour>
      <point x="585.0" y="-19.99999999999993" type="curve" smooth="yes"/>
      <point x="814" y="-20"/>
      <point x="940" y="216"/>
      <point x="940" y="531" type="curve" smooth="yes"/>
      <point x="940" y="552" type="line"/>
      <point x="940" y="881"/>
      <point x="816" y="1102"/>
      <point x="582" y="1102" type="curve" smooth="yes"/>
      <point x="489.400907" y="1102.0"/>
      <point x="417.176519210089" y="1067.884214531944"/>
      <point x="362" y="1006.4916076660156" type="curve"/>
      <point x="362" y="1536" type="line"/>
      <point x="121" y="1536" type="line"/>
      <point x="121" y="-416" type="line"/>
      <point x="362" y="-416" type="line"/>
      <point x="362" y="76.81067657470703" type="line"/>
      <point x="417.71188723732" y="14.983265686624065"/>
      <point x="490.828572" y="-19.99999999999993"/>
    </contour>
    <contour>
      <point x="513.0" y="898.9999999999999" type="curve" smooth="yes"/>
      <point x="647" y="899"/>
      <point x="700" y="744"/>
      <point x="700" y="552" type="curve" smooth="yes"/>
      <point x="700" y="531" type="line"/>
      <point x="700" y="340"/>
      <point x="649" y="180"/>
      <point x="515" y="180" type="curve" smooth="yes"/>
      <point x="439.05257" y="180.0"/>
      <point x="391.774549371764" y="219.932391624957"/>
      <point x="362" y="282.0696029663086" type="curve"/>
      <point x="362" y="794.2085494995117" type="line"/>
      <point x="393.177701758464" y="859.1761238127839"/>
      <point x="442.102954" y="898.9999999999999"/>
    </contour>
  </outline>
</glyph>
<glyph name="ydieresis" format="1">
  <advance width="885"/>
  <unicode hex="00FF"/>
  <outline>
    <contour>
      <point x="452" y="1290" type="move" name="parent_top"/>
    </contour>
    <contour>
      <point x="663" y="-132" type="move" name="bottom"/>
    </contour>
    <contour>
      <point x="865" y="1600" type="move" name="top_dd"/>
    </contour>
    <contour>
      <point x="865" y="-407" type="move" name="bottom_dd"/>
    </contour>
    <contour>
      <point x="865" y="1290" type="move" name="top0315"/>
    </contour>
    <contour>
      <point x="452" y="1592" type="move" name="top"/>
    </contour>
    <component base="y"/>
    <component base="dieresis" xOffset="1"/>
  </outline>
</glyph>
<glyph name="Abreve" format="1">
  <advance width="1210"/>
  <unicode hex="0102"/>
  <outline>
    <contour>
      <point x="608" y="1600" type="move" name="parent_top"/>
    </contour>
    <contour>
      <point x="613" y="4" type="move" name="bottom"/>
    </contour>
    <contour>
      <point x="1190" y="1600" type="move" name="top_dd"/>
    </contour>
    <contour>
      <point x="1190" y="-407" type="move" name="bottom_dd"/>
    </contour>
    <contour>
      <point x="1190" y="1600" type="move" name="top0315"/>
    </contour>
    <contour>
      <point x="608" y="1932" type="move" name="top"/>
    </contour>
    <component base="A"/>
    <component base="breve" xOffset="167" yOffset="310"/>
  </outline>
</glyph>
<glyph name="Aogonek" format="1">
  <advance width="1210"/>
  <unicode hex="0104"/>
  <outline>
    <contour>
      <point x="608" y="1600" type="move" name="parent_top"/>
    </contour>
    <contour>
      <point x="613" y="4" type="move" name="bottom"/>
    </contour>
    <contour>
      <point x="1190" y="1600" type="move" name="top_dd"/>
    </contour>
    <contour>
      <point x="1190" y="-407" type="move" name="bottom_dd"/>
    </contour>
    <contour>
      <point x="1190" y="1600" type="move" name="top0315"/>
    </contour>
    <contour>
      <point x="608" y="1600" type="move" name="top"/>
    </contour>
    <contour>
      <point x="32" y="0" type="line"/>
      <point x="293" y="0" type="line"/>
      <point x="386.37060546875" y="334" type="line"/>
      <point x="824.3626174926758" y="334" type="line"/>
      <point x="916.2160720825195" y="6.363182067871094" type="line"/>
      <point x="823.97894476882" y="-63.610842328196014"/>
      <point x="796.0" y="-144.99454400000002"/>
      <point x="796.0" y="-227.0" type="curve" smooth="yes"/>
      <point x="796" y="-359"/>
      <point x="881" y="-429"/>
      <point x="986" y="-429" type="curve" smooth="yes"/>
      <point x="1057" y="-429"/>
      <point x="1101" y="-405"/>
      <point x="1130" y="-385" type="curve"/>
      <point x="1111" y="-241" type="line"/>
      <point x="1096" y="-250"/>
      <point x="1071" y="-264"/>
      <point x="1040" y="-264" type="curve" smooth="yes"/>
      <point x="1000" y="-264"/>
      <point x="984" y="-237"/>
      <point x="984" y="-196" type="curve" smooth="yes"/>
      <point x="984" y="-118"/>
      <point x="1038" y="-59"/>
      <point x="1115" y="0" type="curve"/>
      <point x="1180" y="0" type="line"/>
      <point x="716" y="1456" type="line"/>
      <point x="493" y="1456" type="line"/>
    </contour>
    <contour>
      <point x="444.79712677001953" y="543" type="line"/>
      <point x="605.0542068481445" y="1116.2624816894531" type="line"/>
      <point x="765.769172668457" y="543" type="line"/>
    </contour>
  </outline>
</glyph>
<glyph name="aogonek" format="1">
  <advance width="974"/>
  <unicode hex="0105"/>
  <outline>
    <contour>
      <point x="493" y="1290" type="move" name="parent_top"/>
    </contour>
    <contour>
      <point x="426" y="9" type="move" name="bottom"/>
    </contour>
    <contour>
      <point x="954" y="1600" type="move" name="top_dd"/>
    </contour>
    <contour>
      <point x="954" y="-407" type="move" name="bottom_dd"/>
    </contour>
    <contour>
      <point x="954" y="1290" type="move" name="top0315"/>
    </contour>
    <contour>
      <point x="493" y="1290" type="move" name="top"/>
    </contour>
    <contour>
      <point x="864" y="-385" type="curve"/>
      <point x="845" y="-241" type="line"/>
      <point x="830" y="-250"/>
      <point x="805" y="-264"/>
      <point x="774" y="-264" type="curve" smooth="yes"/>
      <point x="734" y="-264"/>
      <point x="718" y="-237"/>
      <point x="718" y="-196" type="curve" smooth="yes"/>
      <point x="718" y="-118"/>
      <point x="772" y="-59"/>
      <point x="849" y="0" type="curve"/>
      <point x="892" y="0" type="line"/>
      <point x="892" y="17" type="line"/>
      <point x="868" y="74"/>
      <point x="855" y="152"/>
      <point x="855" y="252" type="curve" smooth="yes"/>
      <point x="855" y="755" type="line"/>
      <point x="855" y="1004"/>
      <point x="704" y="1102"/>
      <point x="495" y="1102" type="curve" smooth="yes"/>
      <point x="259" y="1102"/>
      <point x="112" y="941"/>
      <point x="112" y="769" type="curve"/>
      <point x="352" y="769" type="line"/>
      <point x="352" y="850"/>
      <point x="397" y="910"/>
      <point x="487" y="910" type="curve" smooth="yes"/>
      <point x="571" y="910"/>
      <point x="614" y="868"/>
      <point x="614" y="758" type="curve"/>
      <point x="614" y="661" type="line"/>
      <point x="523" y="661" type="line"/>
      <point x="234" y="661"/>
      <point x="93" y="515"/>
      <point x="93" y="300" type="curve" smooth="yes"/>
      <point x="93" y="99"/>
      <point x="226" y="-20"/>
      <point x="408" y="-20" type="curve" smooth="yes"/>
      <point x="506.57876" y="-20.0"/>
      <point x="577.6980217043999" y="32.3898322745"/>
      <point x="623.3123626708984" y="95.69599151611328" type="curve"/>
      <point x="628.7807799632482" y="60.230658226315754"/>
      <point x="636.5838100635307" y="27.844051561406935"/>
      <point x="646.5250091552734" y="3.5228347778320312" type="curve"/>
      <point x="557.23049840672" y="-65.802754186816"/>
      <point x="530.0" y="-146.098816"/>
      <point x="530.0" y="-227.00000000000003" type="curve" smooth="yes"/>
      <point x="530" y="-359"/>
      <point x="615" y="-429"/>
      <point x="720" y="-429" type="curve" smooth="yes"/>
      <point x="791" y="-429"/>
      <point x="835" y="-405"/>
    </contour>
    <contour>
      <point x="455.9999999999999" y="178.99999999999997" type="curve" smooth="yes"/>
      <point x="374" y="179"/>
      <point x="333" y="221"/>
      <point x="333" y="322" type="curve" smooth="yes"/>
      <point x="333" y="433"/>
      <point x="411" y="507"/>
      <point x="543" y="507" type="curve"/>
      <point x="614" y="507" type="line"/>
      <point x="614" y="264.3193359375" type="line"/>
      <point x="587.994321008606" y="220.28324068360797"/>
      <point x="529.972332" y="178.99999999999997"/>
    </contour>
  </outline>
</glyph>
<glyph name="Ccircumflex" format="1">
  <advance width="1165"/>
  <unicode hex="0108"/>
  <outline>
    <contour>
      <point x="596" y="1620" type="move" name="parent_top"/>
    </contour>
    <contour>
      <point x="594" y="-6" type="move" name="bottom"/>
    </contour>
    <contour>
      <point x="1145" y="1600" type="move" name="top_dd"/>
    </contour>
    <contour>
      <point x="1145" y="-407" type="move" name="bottom_dd"/>
    </contour>
    <contour>
      <point x="1145" y="1620" type="move" name="top0315"/>
    </contour>
    <contour>
      <point x="596" y="1970" type="move" name="top"/>
    </contour>
    <component base="C"/>
    <component base="circumflex" xOffset="148" yOffset="330"/>
  </outline>
</glyph>
<glyph name="Ccaron" format="1">
  <advance width="1165"/>
  <unicode hex="010C"/>
  <outline>
    <contour>
      <point x="596" y="1620" type="move" name="parent_top"/>
    </contour>
    <contour>
      <point x="594" y="-6" type="move" name="bottom"/>
    </contour>
    <contour>
      <point x="1145" y="1600" type="move" name="top_dd"/>
    </contour>
    <contour>
      <point x="1145" y="-407" type="move" name="bottom_dd"/>
    </contour>
    <contour>
      <point x="1145" y="1620" type="move" name="top0315"/>
    </contour>
    <contour>
      <point x="596" y="1971" type="move" name="top"/>
    </contour>
    <component base="C"/>
    <component base="caron" xOffset="171" yOffset="330"/>
  </outline>
</glyph>
<glyph name="Dcaron" format="1">
  <advance width="1163"/>
  <unicode hex="010E"/>
  <outline>
    <contour>
      <point x="491" y="1607" type="move" name="parent_top"/>
    </contour>
    <contour>
      <point x="493" y="10" type="move" name="bottom"/>
    </contour>
    <contour>
      <point x="1143" y="1600" type="move" name="top_dd"/>
    </contour>
    <contour>
      <point x="1143" y="-407" type="move" name="bottom_dd"/>
    </contour>
    <contour>
      <point x="1143" y="1607" type="move" name="top0315"/>
    </contour>
    <contour>
      <point x="491" y="1958" type="move" name="top"/>
    </contour>
    <component base="D"/>
    <component base="caron" xOffset="66" yOffset="317"/>
  </outline>
</glyph>
<glyph name="Dcroat" format="1">
  <advance width="1193"/>
  <unicode hex="0110"/>
  <outline>
    <contour>
      <point x="491" y="1607" type="move" name="parent_top"/>
    </contour>
    <contour>
      <point x="493" y="10" type="move" name="bottom"/>
    </contour>
    <contour>
      <point x="1173" y="1600" type="move" name="top_dd"/>
    </contour>
    <contour>
      <point x="1173" y="-407" type="move" name="bottom_dd"/>
    </contour>
    <contour>
      <point x="1173" y="1607" type="move" name="top0315"/>
    </contour>
    <contour>
      <point x="491" y="1607" type="move" name="top"/>
    </contour>
    <contour>
      <point x="31" y="823" type="line"/>
      <point x="31" y="650" type="line"/>
      <point x="164" y="650" type="line"/>
      <point x="164" y="0" type="line"/>
      <point x="521" y="0" type="line"/>
      <point x="869" y="0"/>
      <point x="1084" y="216"/>
      <point x="1084" y="612" type="curve"/>
      <point x="1084" y="843" type="line"/>
      <point x="1084" y="1239"/>
      <point x="867" y="1456"/>
      <point x="532" y="1456" type="curve"/>
      <point x="164" y="1456" type="line"/>
      <point x="164" y="823" type="line"/>
    </contour>
    <contour>
      <point x="610" y="650" type="line"/>
      <point x="610" y="823" type="line"/>
      <point x="415" y="823" type="line"/>
      <point x="415" y="1247" type="line"/>
      <point x="532" y="1247" type="line"/>
      <point x="752" y="1247"/>
      <point x="835" y="1131"/>
      <point x="835" y="845" type="curve"/>
      <point x="835" y="612" type="line" smooth="yes"/>
      <point x="835" y="334"/>
      <point x="755" y="208"/>
      <point x="521" y="208" type="curve"/>
      <point x="415" y="208" type="line"/>
      <point x="415" y="650" type="line"/>
    </contour>
  </outline>
</glyph>
<glyph name="dcroat" format="1">
  <advance width="1126"/>
  <unicode hex="0111"/>
  <outline>
    <contour>
      <point x="981" y="1536" type="move" name="caron"/>
    </contour>
    <contour>
      <point x="527" y="0" type="move" name="bottom"/>
    </contour>
    <contour>
      <point x="456" y="1607" type="move" name="top"/>
    </contour>
    <contour>
      <point x="997" y="1600" type="move" name="top_dd"/>
    </contour>
    <contour>
      <point x="997" y="-407" type="move" name="bottom_dd"/>
    </contour>
    <contour>
      <point x="527" y="0" type="move" name="markbottom"/>
    </contour>
    <contour>
      <point x="1106" y="1607" type="move" name="top0315"/>
    </contour>
    <contour>
      <point x="756" y="1311" type="move" name="parenthesses.w2"/>
    </contour>
    <contour>
      <point x="680" y="0" type="line"/>
      <point x="897" y="0" type="line"/>
      <point x="897" y="1223" type="line"/>
      <point x="1045" y="1223" type="line"/>
      <point x="1045" y="1396" type="line"/>
      <point x="897" y="1396" type="line"/>
      <point x="897" y="1536" type="line"/>
      <point x="657" y="1536" type="line"/>
      <point x="657" y="1396" type="line"/>
      <point x="465" y="1396" type="line"/>
      <point x="465" y="1223" type="line"/>
      <point x="657" y="1223" type="line"/>
      <point x="657" y="1004.916877746582" type="line"/>
      <point x="602.1425359646801" y="1067.245280902502"/>
      <point x="530.636787" y="1102.0"/>
      <point x="439.99999999999994" y="1102.0" type="curve" smooth="yes"/>
      <point x="217" y="1102"/>
      <point x="78" y="879"/>
      <point x="78" y="550" type="curve" smooth="yes"/>
      <point x="78" y="529" type="line"/>
      <point x="78" y="214"/>
      <point x="218" y="-20"/>
      <point x="438" y="-20" type="curve" smooth="yes"/>
      <point x="537.419856" y="-20.0"/>
      <point x="613.642467702112" y="21.640954928175994"/>
      <point x="670.3158874511719" y="94.73587799072266" type="curve"/>
    </contour>
    <contour>
      <point x="318" y="529" type="curve" smooth="yes"/>
      <point x="318" y="550" type="line"/>
      <point x="318" y="742"/>
      <point x="369" y="899"/>
      <point x="504" y="899" type="curve" smooth="yes"/>
      <point x="574.493432" y="899.0"/>
      <point x="625.044571076584" y="855.422396945128"/>
      <point x="657" y="785.5202255249023" type="curve"/>
      <point x="657" y="296.40535736083984" type="line"/>
      <point x="626.5769662797" y="227.893693053272"/>
      <point x="578.23775" y="183.99999999999997"/>
      <point x="501.99999999999994" y="183.99999999999994" type="curve" smooth="yes"/>
      <point x="368" y="184"/>
      <point x="318" y="338"/>
    </contour>
  </outline>
</glyph>
<glyph name="Emacron" format="1">
  <advance width="1011"/>
  <unicode hex="0112"/>
  <outline>
    <contour>
      <point x="549" y="1607" type="move" name="parent_top"/>
    </contour>
    <contour>
      <point x="550" y="10" type="move" name="bottom"/>
    </contour>
    <contour>
      <point x="991" y="1600" type="move" name="top_dd"/>
    </contour>
    <contour>
      <point x="991" y="-407" type="move" name="bottom_dd"/>
    </contour>
    <contour>
      <point x="991" y="1607" type="move" name="top0315"/>
    </contour>
    <contour>
      <point x="549" y="1911" type="move" name="top"/>
    </contour>
    <component base="E"/>
    <component base="macron" xOffset="98" yOffset="319"/>
  </outline>
</glyph>
<glyph name="Ebreve" format="1">
  <advance width="1011"/>
  <unicode hex="0114"/>
  <outline>
    <contour>
      <point x="549" y="1607" type="move" name="parent_top"/>
    </contour>
    <contour>
      <point x="550" y="10" type="move" name="bottom"/>
    </contour>
    <contour>
      <point x="991" y="1600" type="move" name="top_dd"/>
    </contour>
    <contour>
      <point x="991" y="-407" type="move" name="bottom_dd"/>
    </contour>
    <contour>
      <point x="991" y="1607" type="move" name="top0315"/>
    </contour>
    <contour>
      <point x="549" y="1939" type="move" name="top"/>
    </contour>
    <component base="E"/>
    <component base="breve" xOffset="108" yOffset="317"/>
  </outline>
</glyph>
<glyph name="Edotaccent" format="1">
  <advance width="1011"/>
  <unicode hex="0116"/>
  <outline>
    <contour>
      <point x="549" y="1607" type="move" name="parent_top"/>
    </contour>
    <contour>
      <point x="550" y="10" type="move" name="bottom"/>
    </contour>
    <contour>
      <point x="991" y="1600" type="move" name="top_dd"/>
    </contour>
    <contour>
      <point x="991" y="-407" type="move" name="bottom_dd"/>
    </contour>
    <contour>
      <point x="991" y="1607" type="move" name="top0315"/>
    </contour>
    <contour>
      <point x="548" y="1930" type="move" name="top"/>
    </contour>
    <component base="E"/>
    <component base="dotaccent" xOffset="287" yOffset="326"/>
  </outline>
</glyph>
<glyph name="edotaccent" format="1">
  <advance width="974"/>
  <unicode hex="0117"/>
  <outline>
    <contour>
      <point x="483" y="1290" type="move" name="parent_top"/>
    </contour>
    <contour>
      <point x="498" y="0" type="move" name="bottom"/>
    </contour>
    <contour>
      <point x="955" y="1600" type="move" name="top_dd"/>
    </contour>
    <contour>
      <point x="955" y="-407" type="move" name="bottom_dd"/>
    </contour>
    <contour>
      <point x="955" y="1290" type="move" name="top0315"/>
    </contour>
    <contour>
      <point x="482" y="1613" type="move" name="top"/>
    </contour>
    <component base="e"/>
    <component base="dotaccent" xOffset="221" yOffset="9"/>
  </outline>
</glyph>
<glyph name="Eogonek" format="1">
  <advance width="1011"/>
  <unicode hex="0118"/>
  <outline>
    <contour>
      <point x="549" y="1607" type="move" name="parent_top"/>
    </contour>
    <contour>
      <point x="550" y="10" type="move" name="bottom"/>
    </contour>
    <contour>
      <point x="991" y="1600" type="move" name="top_dd"/>
    </contour>
    <contour>
      <point x="991" y="-407" type="move" name="bottom_dd"/>
    </contour>
    <contour>
      <point x="991" y="1607" type="move" name="top0315"/>
    </contour>
    <contour>
      <point x="549" y="1607" type="move" name="top"/>
    </contour>
    <contour>
      <point x="134" y="0" type="line"/>
      <point x="633.0557098388672" y="0" type="line"/>
      <point x="547.3188789063199" y="-68.51395197569599"/>
      <point x="520.9999999999999" y="-147.464544"/>
      <point x="521.0" y="-226.99999999999997" type="curve" smooth="yes"/>
      <point x="521" y="-359"/>
      <point x="606" y="-429"/>
      <point x="711" y="-429" type="curve" smooth="yes"/>
      <point x="782" y="-429"/>
      <point x="826" y="-405"/>
      <point x="855" y="-385" type="curve"/>
      <point x="836" y="-241" type="line"/>
      <point x="821" y="-250"/>
      <point x="796" y="-264"/>
      <point x="765" y="-264" type="curve" smooth="yes"/>
      <point x="725" y="-264"/>
      <point x="709" y="-237"/>
      <point x="709" y="-196" type="curve" smooth="yes"/>
      <point x="709" y="-118"/>
      <point x="763" y="-59"/>
      <point x="840" y="0" type="curve"/>
      <point x="948" y="0" type="line"/>
      <point x="948" y="208" type="line"/>
      <point x="385" y="208" type="line"/>
      <point x="385" y="648" type="line"/>
      <point x="863" y="648" type="line"/>
      <point x="863" y="852" type="line"/>
      <point x="385" y="852" type="line"/>
      <point x="385" y="1247" type="line"/>
      <point x="941" y="1247" type="line"/>
      <point x="941" y="1456" type="line"/>
      <point x="134" y="1456" type="line"/>
    </contour>
  </outline>
</glyph>
<glyph name="eogonek" format="1">
  <advance width="974"/>
  <unicode hex="0119"/>
  <outline>
    <contour>
      <point x="483" y="1290" type="move" name="parent_top"/>
    </contour>
    <contour>
      <point x="498" y="0" type="move" name="bottom"/>
    </contour>
    <contour>
      <point x="955" y="1600" type="move" name="top_dd"/>
    </contour>
    <contour>
      <point x="955" y="-407" type="move" name="bottom_dd"/>
    </contour>
    <contour>
      <point x="955" y="1290" type="move" name="top0315"/>
    </contour>
    <contour>
      <point x="483" y="1290" type="move" name="top"/>
    </contour>
    <contour>
      <point x="737" y="-357" type="curve"/>
      <point x="718" y="-213" type="line"/>
      <point x="703" y="-222"/>
      <point x="678" y="-236"/>
      <point x="647" y="-236" type="curve" smooth="yes"/>
      <point x="607" y="-236"/>
      <point x="591" y="-209"/>
      <point x="591" y="-168" type="curve" smooth="yes"/>
      <point x="591.0" y="-101.02280400000001"/>
      <point x="630.816077964696" y="-48.054968765356016"/>
      <point x="690.8210525512695" y="2.924591064453125" type="curve"/>
      <point x="788.301189759768" y="33.350730879984006"/>
      <point x="854.560116" y="89.60016000000002"/>
      <point x="894.0000000000001" y="144.0" type="curve"/>
      <point x="788" y="290" type="line"/>
      <point x="731" y="224"/>
      <point x="656" y="180"/>
      <point x="547" y="180" type="curve" smooth="yes"/>
      <point x="405.995279" y="180.0"/>
      <point x="331.106188662212" y="257.78309489672"/>
      <point x="329.04378509521484" y="463" type="curve"/>
      <point x="906" y="463" type="line"/>
      <point x="906" y="580" type="line" smooth="yes"/>
      <point x="906" y="919"/>
      <point x="783" y="1102"/>
      <point x="507" y="1102" type="curve" smooth="yes"/>
      <point x="267" y="1102"/>
      <point x="88" y="942"/>
      <point x="88" y="576" type="curve" smooth="yes"/>
      <point x="88" y="471" type="line" smooth="yes"/>
      <point x="88.0" y="175.190154"/>
      <point x="227.27046766286398" y="7.611043470075998"/>
      <point x="468.2477035522461" y="-16.866928100585938" type="curve"/>
      <point x="419.34802661012503" y="-73.99440948022499"/>
      <point x="403.0" y="-136.31555999999998"/>
      <point x="403.0" y="-199.0" type="curve" smooth="yes"/>
      <point x="403" y="-331"/>
      <point x="488" y="-401"/>
      <point x="593" y="-401" type="curve" smooth="yes"/>
      <point x="664" y="-401"/>
      <point x="708" y="-377"/>
    </contour>
    <contour>
      <point x="506.0" y="902.0" type="curve"/>
      <point x="629" y="902"/>
      <point x="662" y="812"/>
      <point x="668" y="668" type="curve"/>
      <point x="668" y="643" type="line"/>
      <point x="330.66111755371094" y="643" type="line"/>
      <point x="340.9850041542263" y="837.5649119269226"/>
      <point x="399.4312983029893" y="901.9999999999999"/>
    </contour>
  </outline>
</glyph>
<glyph name="uni0120" format="1">
  <advance width="1203"/>
  <unicode hex="0120"/>
  <outline>
    <contour>
      <point x="590" y="1620" type="move" name="parent_top"/>
    </contour>
    <contour>
      <point x="632" y="-6" type="move" name="bottom"/>
    </contour>
    <contour>
      <point x="1190" y="1600" type="move" name="top_dd"/>
    </contour>
    <contour>
      <point x="1190" y="-407" type="move" name="bottom_dd"/>
    </contour>
    <contour>
      <point x="1190" y="1620" type="move" name="top0315"/>
    </contour>
    <contour>
      <point x="589" y="1943" type="move" name="top"/>
    </contour>
    <component base="G"/>
    <component base="dotaccent" xOffset="328" yOffset="339"/>
  </outline>
</glyph>
<glyph name="Hcircumflex" format="1">
  <advance width="1265"/>
  <unicode hex="0124"/>
  <outline>
    <contour>
      <point x="623" y="1607" type="move" name="parent_top"/>
    </contour>
    <contour>
      <point x="625" y="10" type="move" name="bottom"/>
    </contour>
    <contour>
      <point x="1245" y="1600" type="move" name="top_dd"/>
    </contour>
    <contour>
      <point x="1245" y="-407" type="move" name="bottom_dd"/>
    </contour>
    <contour>
      <point x="1245" y="1607" type="move" name="top0315"/>
    </contour>
    <contour>
      <point x="623" y="1957" type="move" name="top"/>
    </contour>
    <component base="H"/>
    <component base="circumflex" xOffset="175" yOffset="317"/>
  </outline>
</glyph>
